<?xml version="1.0" encoding="UTF-8" standalone="no"?>
<svg width="16px" height="16px" viewBox="0 0 16 16" version="1.1" xmlns="http://www.w3.org/2000/svg" xmlns:xlink="http://www.w3.org/1999/xlink">
    <!-- Generator: Sketch 43.1 (39012) - http://www.bohemiancoding.com/sketch -->
    <title>icon-coproc-symbol</title>
    <desc>Created with Sketch.</desc>
    <defs></defs>
    <g id="coproc-light" stroke="none" stroke-width="1" fill="none" fill-rule="evenodd">
        <g id="Coproc-Icons-Light" transform="translate(-10.000000, -23.000000)" fill="#5D5D5D">
            <g id="icon-coproc-symbol" transform="translate(10.000000, 23.000000)">
                <g id="croproc-Icn-light">
                    <g id="croprocIcn-light">
                        <path d="M7.76727273,10.9037037 L7.47636364,10.9037037 C7.12727273,10.9037037 6.83636364,10.9037037 6.57454545,10.8740741 C6.31272727,10.8444444 6.10909091,10.8148148 5.90545455,10.7555556 C5.73090909,10.6962963 5.55636364,10.637037 5.44,10.5481481 C5.32363636,10.4592593 5.23636364,10.3703704 5.14909091,10.2518519 C5.06181818,10.1333333 5.03272727,10.0148148 5.00363636,9.86666667 C4.97454545,9.71851852 4.97454545,9.57037037 4.97454545,9.39259259 L5.64363636,9.39259259 C5.64363636,9.6 5.67272727,9.77777778 5.73090909,9.8962963 C5.78909091,10.0148148 5.90545455,10.1037037 6.02181818,10.162963 C6.16727273,10.2222222 6.34181818,10.2518519 6.57454545,10.2814815 C6.80727273,10.3111111 7.09818182,10.3111111 7.41818182,10.3111111 L7.70909091,10.3111111 L7.70909091,8.20740741 L7.65090909,8.20740741 C7.24363636,8.20740741 6.86545455,8.17777778 6.57454545,8.14814815 C6.28363636,8.11851852 6.02181818,8.05925926 5.81818182,8 C5.61454545,7.94074074 5.46909091,7.88148148 5.32363636,7.79259259 C5.17818182,7.7037037 5.12,7.61481481 5.06181818,7.4962963 C5.00363636,7.37777778 4.94545455,7.25925926 4.94545455,7.11111111 C4.91636364,6.96296296 4.91636364,6.81481481 4.91636364,6.66666667 C4.91636364,6.48888889 4.94545455,6.34074074 4.97454545,6.19259259 C5.00363636,6.04444444 5.06181818,5.92592593 5.14909091,5.80740741 C5.23636364,5.68888889 5.35272727,5.6 5.46909091,5.48148148 C5.61454545,5.39259259 5.78909091,5.3037037 5.99272727,5.24444444 C6.22545455,5.18518519 6.48727273,5.12592593 6.77818182,5.0962963 C7.04,5.06666667 7.36,5.06666667 7.70909091,5.03703704 L7.70909091,4.68148148 L8.43636364,4.68148148 L8.43636364,5.03703704 L8.61090909,5.03703704 C8.96,5.03703704 9.25090909,5.03703704 9.51272727,5.06666667 C9.77454545,5.0962963 9.97818182,5.12592593 10.1818182,5.18518519 C10.3563636,5.24444444 10.5309091,5.3037037 10.6472727,5.39259259 C10.7636364,5.48148148 10.88,5.57037037 10.9381818,5.68888889 C10.9963636,5.80740741 11.0545455,5.92592593 11.0836364,6.07407407 C11.1127273,6.22222222 11.1127273,6.37037037 11.1127273,6.54814815 L10.4436364,6.54814815 C10.4436364,6.34074074 10.4145455,6.16296296 10.3563636,6.04444444 C10.2981818,5.92592593 10.1818182,5.83703704 10.0654545,5.77777778 C9.92,5.71851852 9.74545455,5.68888889 9.51272727,5.65925926 C9.28,5.62962963 8.98909091,5.62962963 8.66909091,5.62962963 L8.43636364,5.62962963 L8.43636364,7.58518519 L8.64,7.58518519 C9.01818182,7.58518519 9.33818182,7.61481481 9.6,7.64444444 C9.86181818,7.67407407 10.0945455,7.73333333 10.2690909,7.79259259 C10.4436364,7.85185185 10.5890909,7.94074074 10.7054545,8.02962963 C10.8218182,8.11851852 10.9090909,8.23703704 10.9672727,8.35555556 C11.0254545,8.47407407 11.0545455,8.59259259 11.0836364,8.74074074 C11.1127273,8.88888889 11.1127273,9.03703704 11.1127273,9.21481481 C11.1127273,9.39259259 11.0836364,9.54074074 11.0545455,9.68888889 C11.0254545,9.83703704 10.9672727,9.98518519 10.9090909,10.1037037 C10.8218182,10.2222222 10.7345455,10.3407407 10.5890909,10.4296296 C10.4727273,10.5185185 10.2981818,10.6074074 10.0945455,10.6666667 C9.89090909,10.7259259 9.65818182,10.7851852 9.36727273,10.8148148 C9.10545455,10.8444444 8.78545455,10.8740741 8.43636364,10.8740741 L8.43636364,11.2296296 L7.76727273,11.2296296 L7.76727273,10.9037037 Z M7.76727273,7.64444444 L7.76727273,5.68888889 C7.38909091,5.68888889 7.06909091,5.71851852 6.80727273,5.74814815 C6.51636364,5.77777778 6.28363636,5.83703704 6.10909091,5.8962963 C5.93454545,5.98518519 5.81818182,6.07407407 5.76,6.19259259 C5.70181818,6.31111111 5.67272727,6.48888889 5.67272727,6.66666667 C5.67272727,6.78518519 5.67272727,6.9037037 5.70181818,6.99259259 C5.73090909,7.08148148 5.76,7.17037037 5.78909091,7.22962963 C5.84727273,7.28888889 5.90545455,7.34814815 5.99272727,7.40740741 C6.08,7.46666667 6.19636364,7.4962963 6.37090909,7.52592593 C6.51636364,7.55555556 6.72,7.58518519 6.92363636,7.58518519 C7.15636364,7.58518519 7.38909091,7.61481481 7.70909091,7.61481481 L7.76727273,7.61481481 L7.76727273,7.64444444 Z M8.43636364,8.23703704 L8.43636364,10.3407407 C8.81454545,10.3407407 9.10545455,10.3111111 9.36727273,10.2814815 C9.62909091,10.2518519 9.83272727,10.1925926 10.0072727,10.1037037 C10.1527273,10.0148148 10.2690909,9.8962963 10.3272727,9.77777778 C10.3854545,9.62962963 10.4145455,9.48148148 10.4145455,9.27407407 C10.4145455,9.06666667 10.3854545,8.91851852 10.3563636,8.77037037 C10.2981818,8.65185185 10.24,8.53333333 10.0945455,8.44444444 C9.97818182,8.35555556 9.77454545,8.32592593 9.54181818,8.26666667 C9.30909091,8.23703704 8.98909091,8.20740741 8.61090909,8.20740741 L8.43636364,8.20740741 L8.43636364,8.23703704 Z" id="Shape" fill-rule="nonzero"></path>
                        <path d="M8.23272727,0.118518519 L8.02909091,0.118518519 L7.82545455,0.118518519 L7.47636364,0.651851852 C7.38909091,0.8 7.15636364,0.82962963 7.04,0.711111111 L6.60363636,0.266666667 C6.48727273,0.296296296 6.34181818,0.325925926 6.22545455,0.355555556 L5.99272727,0.948148148 C5.93454545,1.12592593 5.73090909,1.18518519 5.58545455,1.0962963 L5.06181818,0.740740741 C4.94545455,0.8 4.82909091,0.859259259 4.71272727,0.918518519 L4.62545455,1.54074074 C4.59636364,1.71851852 4.42181818,1.83703704 4.24727273,1.77777778 L3.66545455,1.54074074 L3.34545455,1.77777778 L3.37454545,2.4 C3.37454545,2.57777778 3.22909091,2.72592593 3.05454545,2.6962963 L2.44363636,2.60740741 C2.35636364,2.6962963 2.26909091,2.81481481 2.18181818,2.9037037 L2.35636364,3.52592593 C2.41454545,3.7037037 2.26909091,3.88148148 2.09454545,3.88148148 L1.45454545,3.91111111 C1.39636364,4.02962963 1.30909091,4.14814815 1.25090909,4.26666667 L1.54181818,4.82962963 C1.62909091,5.00740741 1.54181818,5.18518519 1.36727273,5.24444444 L0.756363636,5.39259259 C0.698181818,5.51111111 0.669090909,5.65925926 0.64,5.77777778 L1.04727273,6.28148148 C1.16363636,6.42962963 1.10545455,6.63703704 0.96,6.72592593 L0.407272727,7.02222222 C0.378181818,7.17037037 0.378181818,7.28888889 0.378181818,7.43703704 L0.872727273,7.82222222 C1.01818182,7.94074074 1.01818182,8.14814815 0.872727273,8.26666667 L0.378181818,8.65185185 C0.378181818,8.8 0.407272727,8.91851852 0.407272727,9.06666667 L0.96,9.36296296 C1.13454545,9.45185185 1.16363636,9.65925926 1.04727273,9.80740741 L0.64,10.3111111 C0.669090909,10.4296296 0.727272727,10.5777778 0.756363636,10.6962963 L1.36727273,10.8444444 C1.54181818,10.9037037 1.62909091,11.0814815 1.54181818,11.2592593 L1.25090909,11.8222222 C1.30909091,11.9407407 1.36727273,12.0592593 1.45454545,12.1777778 L2.09454545,12.2074074 C2.26909091,12.2074074 2.41454545,12.3851852 2.35636364,12.562963 L2.18181818,13.1851852 C2.26909091,13.2740741 2.35636364,13.3925926 2.44363636,13.4814815 L3.05454545,13.3925926 C3.22909091,13.362963 3.40363636,13.5111111 3.37454545,13.6888889 L3.34545455,14.3111111 C3.46181818,14.4 3.54909091,14.4592593 3.66545455,14.5481481 L4.24727273,14.3111111 C4.42181818,14.2518519 4.59636364,14.3407407 4.62545455,14.5481481 L4.71272727,15.1703704 C4.82909091,15.2296296 4.94545455,15.2888889 5.06181818,15.3481481 L5.58545455,14.9925926 C5.73090909,14.9037037 5.93454545,14.962963 5.99272727,15.1407407 L6.22545455,15.7333333 C6.34181818,15.762963 6.48727273,15.7925926 6.60363636,15.8222222 L7.04,15.3777778 C7.15636364,15.2592593 7.38909091,15.2592593 7.47636364,15.437037 L7.82545455,15.9703704 L8.02909091,15.9703704 L8.23272727,15.9703704 L8.58181818,15.437037 C8.66909091,15.2888889 8.90181818,15.2592593 9.01818182,15.3777778 L9.45454545,15.8222222 C9.57090909,15.7925926 9.71636364,15.762963 9.83272727,15.7333333 L10.0654545,15.1407407 C10.1236364,14.962963 10.3272727,14.9037037 10.4727273,14.9925926 L10.9963636,15.3481481 C11.1127273,15.2888889 11.2290909,15.2296296 11.3454545,15.1703704 L11.4327273,14.5481481 C11.4618182,14.3703704 11.6363636,14.2518519 11.8109091,14.3111111 L12.3927273,14.5481481 C12.5090909,14.4592593 12.5963636,14.4 12.7127273,14.3111111 L12.6836364,13.6888889 C12.6836364,13.5111111 12.8290909,13.362963 13.0036364,13.3925926 L13.6145455,13.4814815 C13.7018182,13.3925926 13.7890909,13.2740741 13.8763636,13.1851852 L13.7018182,12.562963 C13.6436364,12.3851852 13.7890909,12.2074074 13.9636364,12.2074074 L14.6036364,12.1777778 C14.6618182,12.0592593 14.7490909,11.9407407 14.8072727,11.8222222 L14.5163636,11.2592593 C14.4290909,11.0814815 14.5163636,10.9037037 14.6909091,10.8444444 L15.3018182,10.6962963 C15.36,10.5777778 15.3890909,10.4296296 15.4181818,10.3111111 L15.0109091,9.80740741 C14.8945455,9.65925926 14.9527273,9.45185185 15.0981818,9.36296296 L15.6509091,9.06666667 C15.68,8.91851852 15.68,8.8 15.68,8.65185185 L15.1854545,8.26666667 C15.04,8.14814815 15.04,7.94074074 15.1854545,7.82222222 L15.68,7.43703704 C15.68,7.28888889 15.6509091,7.17037037 15.6509091,7.02222222 L15.0981818,6.72592593 C14.9236364,6.63703704 14.8945455,6.42962963 15.0109091,6.28148148 L15.4181818,5.77777778 C15.3890909,5.65925926 15.3309091,5.51111111 15.3018182,5.39259259 L14.6909091,5.24444444 C14.5163636,5.18518519 14.4290909,5.00740741 14.5163636,4.82962963 L14.8072727,4.26666667 C14.7490909,4.14814815 14.6909091,4.02962963 14.6036364,3.91111111 L13.9636364,3.88148148 C13.7890909,3.88148148 13.6436364,3.7037037 13.7018182,3.52592593 L13.8763636,2.9037037 C13.7890909,2.81481481 13.7018182,2.6962963 13.6145455,2.60740741 L13.0036364,2.6962963 C12.8290909,2.72592593 12.6545455,2.57777778 12.6836364,2.4 L12.7127273,1.77777778 C12.5963636,1.68888889 12.5090909,1.62962963 12.3927273,1.54074074 L11.8109091,1.77777778 C11.6363636,1.83703704 11.4618182,1.74814815 11.4327273,1.54074074 L11.3745455,0.888888889 C11.2581818,0.82962963 11.1418182,0.77037037 11.0254545,0.711111111 L10.5018182,1.06666667 C10.3563636,1.15555556 10.1527273,1.0962963 10.0945455,0.918518519 L9.86181818,0.325925926 C9.74545455,0.296296296 9.6,0.266666667 9.48363636,0.237037037 L9.01818182,0.711111111 C8.90181818,0.82962963 8.66909091,0.82962963 8.58181818,0.651851852 L8.23272727,0.118518519 Z M13.8181818,8 C13.8181818,11.2296296 11.2290909,13.8666667 8.05818182,13.8666667 C4.88727273,13.8666667 2.26909091,11.2296296 2.26909091,8 C2.26909091,4.77037037 4.85818182,2.13333333 8.02909091,2.13333333 C11.2,2.13333333 13.8181818,4.77037037 13.8181818,8 Z" id="SVGID_1_" fill-rule="nonzero"></path>
                        <path d="M15.8836364,8.56296296 L15.8836364,8.62222222 C15.8836364,8.77037037 15.8545455,8.88888889 15.8545455,9.03703704 L15.8545455,9.0962963 L15.2436364,9.42222222 C15.1854545,9.45185185 15.1563636,9.48148148 15.1563636,9.54074074 C15.1563636,9.6 15.1563636,9.65925926 15.1854545,9.68888889 L15.6218182,10.2222222 L15.5927273,10.2814815 C15.5636364,10.4 15.5054545,10.5481481 15.4763636,10.6666667 L15.4472727,10.7259259 L14.7781818,10.9037037 C14.72,10.9037037 14.6909091,10.962963 14.6618182,10.9925926 C14.6327273,11.0518519 14.6327273,11.1111111 14.6618182,11.1407407 L14.9818182,11.762963 L14.9527273,11.8222222 C14.8945455,11.9407407 14.8072727,12.0592593 14.7490909,12.1777778 L14.72,12.237037 L14.0509091,12.2666667 C13.9927273,12.2666667 13.9345455,12.2962963 13.9054545,12.3259259 C13.8763636,12.3555556 13.8763636,12.4148148 13.8763636,12.4740741 L14.0509091,13.1555556 L14.0218182,13.1851852 C13.9345455,13.3037037 13.8472727,13.3925926 13.76,13.4814815 L13.7309091,13.5111111 L13.0618182,13.3925926 C13.0036364,13.3925926 12.9454545,13.3925926 12.9163636,13.4222222 C12.8872727,13.4518519 12.8581818,13.5111111 12.8581818,13.5703704 L12.8872727,14.2518519 L12.8290909,14.2814815 C12.7127273,14.3703704 12.6254545,14.4592593 12.5090909,14.5185185 L12.4509091,14.5481481 L11.8109091,14.2814815 C11.7527273,14.2518519 11.6945455,14.2518519 11.6654545,14.2814815 C11.6072727,14.3111111 11.5781818,14.3407407 11.5781818,14.4 L11.4618182,15.0814815 L11.4036364,15.1111111 C11.2872727,15.1703704 11.1709091,15.2296296 11.0254545,15.2888889 L10.9672727,15.3185185 L10.3854545,14.9333333 C10.3272727,14.9037037 10.2981818,14.9037037 10.24,14.9037037 C10.1818182,14.9333333 10.1527273,14.962963 10.1236364,15.0222222 L9.89090909,15.6740741 L9.83272727,15.6740741 C9.71636364,15.7037037 9.57090909,15.7333333 9.42545455,15.762963 L9.36727273,15.762963 L8.90181818,15.2592593 C8.87272727,15.2296296 8.81454545,15.2 8.75636364,15.2 C8.69818182,15.2 8.66909091,15.2296296 8.64,15.2888889 L8.26181818,15.8814815 L8.14545455,15.8814815 L8,15.8814815 L7.85454545,15.8814815 L7.73818182,15.8814815 L7.36,15.2888889 C7.33090909,15.2296296 7.27272727,15.2 7.24363636,15.2 C7.18545455,15.2 7.12727273,15.2 7.09818182,15.2592593 L6.63272727,15.762963 L6.57454545,15.762963 C6.42909091,15.7333333 6.31272727,15.7037037 6.16727273,15.6740741 L6.10909091,15.6740741 L5.87636364,15.0222222 C5.84727273,14.962963 5.81818182,14.9333333 5.76,14.9037037 C5.70181818,14.8740741 5.64363636,14.9037037 5.61454545,14.9333333 L5.03272727,15.3185185 L4.97454545,15.2888889 C4.85818182,15.2296296 4.74181818,15.1703704 4.59636364,15.1111111 L4.53818182,15.0814815 L4.50909091,14.5185185 C4.50909091,14.4592593 4.48,14.4296296 4.42181818,14.4 C4.36363636,14.3703704 4.33454545,14.3703704 4.27636364,14.4 L3.63636364,14.6666667 L3.57818182,14.637037 C3.46181818,14.5481481 3.34545455,14.4888889 3.25818182,14.4 L3.2,14.3703704 L3.22909091,13.6888889 C3.22909091,13.6296296 3.2,13.5703704 3.17090909,13.5407407 C3.14181818,13.5111111 3.08363636,13.4814815 3.02545455,13.5111111 L2.35636364,13.6296296 L2.32727273,13.6 C2.24,13.5111111 2.15272727,13.3925926 2.06545455,13.3037037 L2.03636364,13.1555556 L2.21090909,12.4740741 C2.21090909,12.4148148 2.21090909,12.3555556 2.18181818,12.3259259 C2.15272727,12.2962963 2.09454545,12.2666667 2.03636364,12.2666667 L1.36727273,12.237037 L1.33818182,12.1777778 C1.28,12.0592593 1.19272727,11.9407407 1.13454545,11.8222222 L1.10545455,11.762963 L1.42545455,11.1407407 C1.45454545,11.0814815 1.45454545,11.0222222 1.42545455,10.9925926 C1.39636364,10.9333333 1.36727273,10.9037037 1.30909091,10.9037037 L0.64,10.7259259 L0.64,10.6666667 C0.581818182,10.5481481 0.552727273,10.4 0.523636364,10.2814815 L0.494545455,10.2222222 L0.930909091,9.68888889 C0.96,9.65925926 0.989090909,9.6 0.96,9.54074074 C0.96,9.48148148 0.901818182,9.45185185 0.872727273,9.42222222 L0.261818182,9.0962963 L0.261818182,9.03703704 C0.232727273,8.88888889 0.232727273,8.77037037 0.232727273,8.62222222 L0.232727273,8.56296296 L0.756363636,8.11851852 C0.785454545,8.08888889 0.814545455,8.02962963 0.814545455,7.97037037 L0.814545455,7.97037037 C0.814545455,7.91111111 0.785454545,7.85185185 0.756363636,7.82222222 L0.232727273,7.37777778 L0.232727273,7.31851852 C0.232727273,7.17037037 0.261818182,7.05185185 0.261818182,6.9037037 L0.261818182,6.84444444 L0.872727273,6.51851852 C0.930909091,6.48888889 0.96,6.45925926 0.96,6.4 C0.96,6.34074074 0.96,6.28148148 0.930909091,6.25185185 L0.494545455,5.71851852 L0.523636364,5.65925926 C0.552727273,5.54074074 0.610909091,5.39259259 0.64,5.27407407 L0.669090909,5.21481481 L1.33818182,5.03703704 C1.39636364,5.03703704 1.42545455,4.97777778 1.45454545,4.94814815 C1.48363636,4.88888889 1.48363636,4.82962963 1.45454545,4.8 L1.13454545,4.17777778 L1.16363636,4.11851852 C1.22181818,4 1.30909091,3.88148148 1.36727273,3.76296296 L1.39636364,3.7037037 L2.06545455,3.67407407 C2.12363636,3.67407407 2.18181818,3.64444444 2.21090909,3.61481481 C2.24,3.58518519 2.24,3.52592593 2.24,3.46666667 L2.03636364,2.84444444 L2.06545455,2.81481481 C2.15272727,2.6962963 2.24,2.60740741 2.32727273,2.51851852 L2.35636364,2.48888889 L3.02545455,2.60740741 C3.08363636,2.60740741 3.14181818,2.60740741 3.17090909,2.57777778 C3.2,2.54814815 3.22909091,2.48888889 3.22909091,2.42962963 L3.2,1.74814815 L3.60727273,1.45185185 L4.24727273,1.71851852 C4.30545455,1.74814815 4.36363636,1.74814815 4.39272727,1.71851852 C4.45090909,1.68888889 4.48,1.65925926 4.48,1.6 L4.59636364,0.918518519 L4.65454545,0.888888889 C4.77090909,0.82962963 4.88727273,0.77037037 5.03272727,0.711111111 L5.09090909,0.681481481 L5.67272727,1.06666667 C5.73090909,1.0962963 5.76,1.0962963 5.81818182,1.0962963 C5.87636364,1.06666667 5.90545455,1.03703704 5.93454545,0.977777778 L6.16727273,0.325925926 L6.22545455,0.325925926 C6.34181818,0.296296296 6.48727273,0.266666667 6.63272727,0.237037037 L6.69090909,0.237037037 L7.15636364,0.740740741 C7.18545455,0.77037037 7.24363636,0.8 7.30181818,0.8 C7.36,0.8 7.38909091,0.77037037 7.41818182,0.711111111 L7.79636364,0.118518519 L7.91272727,0.118518519 L8.05818182,0.118518519 L8.20363636,0.118518519 L8.32,0.118518519 L8.69818182,0.711111111 C8.72727273,0.77037037 8.78545455,0.8 8.81454545,0.8 C8.87272727,0.8 8.93090909,0.8 8.96,0.740740741 L9.42545455,0.237037037 L9.48363636,0.237037037 C9.62909091,0.266666667 9.74545455,0.296296296 9.89090909,0.325925926 L9.94909091,0.325925926 L10.1818182,0.888888889 C10.2109091,0.948148148 10.24,0.977777778 10.2981818,1.00740741 C10.3563636,1.03703704 10.4145455,1.00740741 10.4436364,0.977777778 L11.0254545,0.592592593 L11.0836364,0.622222222 C11.2,0.681481481 11.3163636,0.740740741 11.4618182,0.8 L11.52,0.82962963 L11.6363636,1.51111111 C11.6363636,1.57037037 11.6654545,1.6 11.7236364,1.62962963 C11.7818182,1.65925926 11.8109091,1.65925926 11.8690909,1.62962963 L12.5090909,1.36296296 L12.5672727,1.39259259 C12.6836364,1.48148148 12.8,1.54074074 12.8872727,1.62962963 L12.9454545,1.65925926 L12.9163636,2.34074074 C12.9163636,2.4 12.9454545,2.45925926 12.9745455,2.48888889 C13.0036364,2.51851852 13.0618182,2.54814815 13.12,2.51851852 L13.7890909,2.4 L13.8181818,2.42962963 C13.9054545,2.51851852 13.9927273,2.63703704 14.08,2.72592593 L14.1090909,2.75555556 L13.9345455,3.43703704 C13.9345455,3.4962963 13.9345455,3.55555556 13.9636364,3.58518519 C13.9927273,3.61481481 14.0509091,3.64444444 14.1090909,3.64444444 L14.7781818,3.67407407 L14.8072727,3.73333333 C14.8654545,3.85185185 14.9527273,3.97037037 15.0109091,4.08888889 L15.04,4.14814815 L14.72,4.77037037 C14.6909091,4.82962963 14.6909091,4.88888889 14.72,4.91851852 C14.7490909,4.97777778 14.7781818,5.00740741 14.8363636,5.00740741 L15.5054545,5.18518519 L15.5345455,5.24444444 C15.5927273,5.36296296 15.6218182,5.51111111 15.6509091,5.62962963 L15.68,5.68888889 L15.2436364,6.22222222 C15.2145455,6.25185185 15.1854545,6.31111111 15.2145455,6.37037037 C15.2145455,6.42962963 15.2727273,6.45925926 15.3018182,6.48888889 L15.9127273,6.81481481 L15.9127273,6.87407407 C15.9418182,7.02222222 15.9418182,7.14074074 15.9418182,7.28888889 L15.9418182,7.34814815 L15.4181818,7.79259259 C15.3890909,7.82222222 15.36,7.88148148 15.36,7.94074074 L15.36,7.94074074 C15.36,8 15.3890909,8.05925926 15.4181818,8.08888889 L15.8836364,8.56296296 Z M15.0690909,8 L15.0690909,8 C15.0690909,7.88148148 15.1272727,7.76296296 15.2145455,7.7037037 L15.6509091,7.34814815 C15.6509091,7.25925926 15.6218182,7.17037037 15.6218182,7.05185185 L15.1272727,6.78518519 C15.0109091,6.72592593 14.9527273,6.63703704 14.9236364,6.51851852 C14.8945455,6.4 14.9236364,6.28148148 15.0109091,6.19259259 L15.36,5.74814815 C15.3309091,5.65925926 15.3018182,5.57037037 15.2727273,5.48148148 L14.72,5.33333333 C14.6036364,5.3037037 14.5163636,5.21481481 14.4581818,5.12592593 C14.4,5.00740741 14.4,4.88888889 14.4581818,4.77037037 L14.72,4.26666667 C14.6618182,4.17777778 14.6327273,4.08888889 14.5745455,4.02962963 L13.9927273,4 C13.8763636,4 13.76,3.94074074 13.7018182,3.85185185 C13.6436364,3.76296296 13.6145455,3.64444444 13.6436364,3.52592593 L13.7890909,2.96296296 C13.7309091,2.9037037 13.6727273,2.81481481 13.6145455,2.75555556 L13.0618182,2.84444444 C12.9454545,2.87407407 12.8290909,2.81481481 12.7418182,2.75555556 C12.6545455,2.66666667 12.5963636,2.54814815 12.6254545,2.42962963 L12.6545455,1.86666667 C12.5672727,1.80740741 12.5090909,1.74814815 12.4218182,1.68888889 L11.8981818,1.8962963 C11.7818182,1.92592593 11.6654545,1.92592593 11.5490909,1.86666667 C11.4327273,1.80740741 11.3745455,1.68888889 11.3454545,1.57037037 L11.2581818,1.00740741 C11.1709091,0.977777778 11.0836364,0.918518519 10.9963636,0.888888889 L10.5309091,1.21481481 C10.4436364,1.27407407 10.2981818,1.3037037 10.2109091,1.27407407 C10.0945455,1.24444444 10.0072727,1.15555556 9.97818182,1.03703704 L9.77454545,0.503703704 C9.68727273,0.474074074 9.6,0.474074074 9.51272727,0.444444444 L9.10545455,0.859259259 C9.01818182,0.859259259 8.90181818,0.888888889 8.78545455,0.888888889 C8.66909091,0.888888889 8.55272727,0.8 8.49454545,0.711111111 L8.17454545,0.237037037 L8.05818182,0.237037037 L7.94181818,0.237037037 L7.94181818,0.237037037 L7.62181818,0.711111111 C7.56363636,0.8 7.44727273,0.888888889 7.33090909,0.888888889 C7.21454545,0.888888889 7.09818182,0.859259259 7.01090909,0.77037037 L6.60363636,0.355555556 C6.51636364,0.385185185 6.42909091,0.385185185 6.34181818,0.414814815 L6.10909091,0.977777778 C6.08,1.0962963 5.99272727,1.18518519 5.87636364,1.21481481 C5.76,1.24444444 5.64363636,1.24444444 5.55636364,1.15555556 L5.09090909,0.82962963 C5.00363636,0.859259259 4.91636364,0.918518519 4.82909091,0.948148148 L4.74181818,1.51111111 C4.71272727,1.62962963 4.65454545,1.74814815 4.53818182,1.80740741 C4.42181818,1.86666667 4.30545455,1.86666667 4.18909091,1.83703704 L3.66545455,1.62962963 L3.43272727,1.80740741 L3.46181818,2.37037037 C3.46181818,2.48888889 3.43272727,2.60740741 3.34545455,2.6962963 C3.25818182,2.78518519 3.14181818,2.81481481 3.02545455,2.78518519 L2.47272727,2.6962963 C2.41454545,2.75555556 2.35636364,2.84444444 2.29818182,2.9037037 L2.44363636,3.46666667 C2.47272727,3.58518519 2.44363636,3.7037037 2.38545455,3.79259259 C2.32727273,3.88148148 2.21090909,3.94074074 2.09454545,3.97037037 L1.51272727,4 C1.45454545,4.08888889 1.42545455,4.14814815 1.36727273,4.23703704 L1.62909091,4.74074074 C1.68727273,4.85925926 1.68727273,4.97777778 1.62909091,5.0962963 C1.57090909,5.21481481 1.48363636,5.27407407 1.36727273,5.3037037 L0.814545455,5.45185185 C0.785454545,5.54074074 0.756363636,5.62962963 0.727272727,5.71851852 L1.07636364,6.16296296 C1.16363636,6.25185185 1.19272727,6.37037037 1.16363636,6.48888889 C1.13454545,6.60740741 1.07636364,6.6962963 0.96,6.75555556 L0.465454545,7.02222222 C0.465454545,7.11111111 0.436363636,7.2 0.436363636,7.31851852 L0.872727273,7.7037037 C0.96,7.79259259 1.01818182,7.88148148 1.01818182,8 L1.01818182,8 C1.01818182,8.11851852 0.96,8.23703704 0.872727273,8.2962963 L0.436363636,8.65185185 C0.436363636,8.74074074 0.465454545,8.82962963 0.465454545,8.94814815 L0.96,9.21481481 C1.07636364,9.27407407 1.13454545,9.36296296 1.16363636,9.48148148 C1.19272727,9.6 1.16363636,9.71851852 1.07636364,9.80740741 L0.727272727,10.2518519 C0.756363636,10.3407407 0.785454545,10.4296296 0.814545455,10.5185185 L1.36727273,10.6666667 C1.48363636,10.6962963 1.57090909,10.7851852 1.62909091,10.9037037 C1.68727273,11.0222222 1.68727273,11.1407407 1.62909091,11.2592593 L1.36727273,11.762963 C1.42545455,11.8518519 1.45454545,11.9407407 1.51272727,12 L2.09454545,12.0296296 C2.21090909,12.0296296 2.32727273,12.0888889 2.38545455,12.2074074 C2.44363636,12.2962963 2.47272727,12.4148148 2.44363636,12.5333333 L2.29818182,13.0962963 C2.35636364,13.1555556 2.41454545,13.2444444 2.47272727,13.3037037 L3.02545455,13.2148148 C3.14181818,13.1851852 3.25818182,13.2444444 3.34545455,13.3037037 C3.43272727,13.3925926 3.49090909,13.5111111 3.46181818,13.6296296 L3.43272727,14.2222222 C3.52,14.2814815 3.57818182,14.3407407 3.66545455,14.4 L4.18909091,14.1925926 C4.30545455,14.162963 4.42181818,14.162963 4.53818182,14.2222222 C4.65454545,14.2814815 4.71272727,14.4 4.74181818,14.5185185 L4.82909091,15.0814815 C4.91636364,15.1111111 5.00363636,15.1703704 5.09090909,15.2 L5.55636364,14.8740741 C5.64363636,14.8148148 5.78909091,14.7851852 5.90545455,14.8148148 C6.02181818,14.8444444 6.10909091,14.9333333 6.13818182,15.0518519 L6.34181818,15.5851852 C6.42909091,15.6148148 6.51636364,15.6148148 6.60363636,15.6444444 L7.01090909,15.2296296 C7.09818182,15.1407407 7.21454545,15.1111111 7.33090909,15.1111111 C7.44727273,15.1111111 7.56363636,15.2 7.62181818,15.2888889 L7.94181818,15.762963 L8.05818182,15.762963 L8.17454545,15.762963 L8.17454545,15.762963 L8.49454545,15.2888889 C8.55272727,15.2 8.66909091,15.1111111 8.78545455,15.1111111 C8.90181818,15.1111111 9.01818182,15.1407407 9.10545455,15.2296296 L9.51272727,15.6444444 C9.6,15.6148148 9.68727273,15.6148148 9.77454545,15.5851852 L9.97818182,15.0518519 C10.0072727,14.9333333 10.0945455,14.8444444 10.2109091,14.8148148 C10.3272727,14.7851852 10.4436364,14.7851852 10.56,14.8740741 L11.0254545,15.2 C11.1127273,15.1703704 11.2,15.1111111 11.2872727,15.0814815 L11.3745455,14.5185185 C11.4036364,14.4 11.4618182,14.2814815 11.5781818,14.2222222 C11.6945455,14.162963 11.8109091,14.162963 11.9272727,14.1925926 L12.4509091,14.4 C12.5381818,14.3407407 12.5963636,14.2814815 12.6836364,14.2222222 L12.6545455,13.6592593 C12.6545455,13.5407407 12.6836364,13.4222222 12.7709091,13.3333333 C12.8581818,13.2444444 12.9745455,13.2148148 13.0909091,13.2444444 L13.6436364,13.3333333 C13.7018182,13.2740741 13.76,13.1851852 13.8181818,13.1259259 L13.6727273,12.562963 C13.6436364,12.4444444 13.6727273,12.3259259 13.7309091,12.237037 C13.7890909,12.1481481 13.9054545,12.0888889 14.0218182,12.0888889 L14.6036364,12.0592593 C14.6618182,11.9703704 14.6909091,11.9111111 14.7490909,11.8222222 L14.4872727,11.3185185 C14.4290909,11.2 14.4290909,11.0814815 14.4872727,10.962963 C14.5454545,10.8444444 14.6327273,10.7851852 14.7490909,10.7259259 L15.3018182,10.5777778 C15.3309091,10.4888889 15.36,10.4 15.3890909,10.3111111 L15.04,9.86666667 C14.9527273,9.77777778 14.9236364,9.65925926 14.9527273,9.54074074 C14.9818182,9.42222222 15.04,9.33333333 15.1563636,9.27407407 L15.6509091,9.00740741 C15.6509091,8.91851852 15.68,8.82962963 15.68,8.71111111 L15.2436364,8.35555556 C15.1272727,8.23703704 15.0690909,8.11851852 15.0690909,8 Z M13.9054545,8 C13.9054545,11.2888889 11.2581818,13.9851852 8.02909091,13.9851852 C4.8,13.9851852 2.15272727,11.2888889 2.15272727,8 C2.15272727,4.71111111 4.8,2.01481481 8.02909091,2.01481481 C11.2872727,2.01481481 13.9054545,4.71111111 13.9054545,8 Z M2.38545455,8 C2.38545455,11.1703704 4.91636364,13.7481481 8.02909091,13.7481481 C11.1418182,13.7481481 13.7018182,11.1703704 13.7018182,8 C13.7018182,4.82962963 11.1709091,2.25185185 8.02909091,2.25185185 C4.91636364,2.25185185 2.38545455,4.82962963 2.38545455,8 Z" id="Shape" fill-rule="nonzero"></path>
                    </g>
                </g>
            </g>
        </g>
    </g>
</svg>