<?xml version="1.0" encoding="UTF-8" standalone="no"?>
<svg width="51px" height="51px" viewBox="0 0 51 51" version="1.1" xmlns="http://www.w3.org/2000/svg" xmlns:xlink="http://www.w3.org/1999/xlink">
    <!-- Generator: Sketch 43.1 (39012) - http://www.bohemiancoding.com/sketch -->
    <title>icon-coproc</title>
    <desc>Created with Sketch.</desc>
    <defs>
        <linearGradient x1="60.5013725%" y1="68.2727451%" x2="26.0078431%" y2="8.59686275%" id="linearGradient-1">
            <stop stop-color="#FFA24B" offset="0%"></stop>
            <stop stop-color="#F7891C" offset="100%"></stop>
        </linearGradient>
    </defs>
    <g id="coproc-light" stroke="none" stroke-width="1" fill="none" fill-rule="evenodd">
        <g id="Coproc-Icons-Light" transform="translate(-262.000000, -5.000000)">
            <g id="icon-coproc" transform="translate(262.000000, 5.000000)">
                <path d="M25.5,51 C39.6,51 51,39.6 51,25.5 C51,11.4 39.5,0 25.5,0 C11.5,0 0,11.4 0,25.5 C0,39.6 11.4,51 25.5,51 Z" id="coin" fill="url(#linearGradient-1)" fill-rule="nonzero"></path>
                <g id="croproc-Icn-dark" transform="translate(25.500000, 25.500000) rotate(19.950000) translate(-25.500000, -25.500000) translate(8.000000, 8.000000)" fill="#FFFFFF">
                    <g id="croprocIcn">
                        <path d="M16.9909091,23.8518519 L16.3545455,23.8518519 C15.5909091,23.8518519 14.9545455,23.8518519 14.3818182,23.787037 C13.8090909,23.7222222 13.3636364,23.6574074 12.9181818,23.5277778 C12.5363636,23.3981481 12.1545455,23.2685185 11.9,23.0740741 C11.6454545,22.8796296 11.4545455,22.6851852 11.2636364,22.4259259 C11.0727273,22.1666667 11.0090909,21.9074074 10.9454545,21.5833333 C10.8818182,21.2592593 10.8818182,20.9351852 10.8818182,20.5462963 L12.3454545,20.5462963 C12.3454545,21 12.4090909,21.3888889 12.5363636,21.6481481 C12.6636364,21.9074074 12.9181818,22.1018519 13.1727273,22.2314815 C13.4909091,22.3611111 13.8727273,22.4259259 14.3818182,22.4907407 C14.8909091,22.5555556 15.5272727,22.5555556 16.2272727,22.5555556 L16.8636364,22.5555556 L16.8636364,17.9537037 L16.7363636,17.9537037 C15.8454545,17.9537037 15.0181818,17.8888889 14.3818182,17.8240741 C13.7454545,17.7592593 13.1727273,17.6296296 12.7272727,17.5 C12.2818182,17.3703704 11.9636364,17.2407407 11.6454545,17.0462963 C11.3272727,16.8518519 11.2,16.6574074 11.0727273,16.3981481 C10.9454545,16.1388889 10.8181818,15.8796296 10.8181818,15.5555556 C10.7545455,15.2314815 10.7545455,14.9074074 10.7545455,14.5833333 C10.7545455,14.1944444 10.8181818,13.8703704 10.8818182,13.5462963 C10.9454545,13.2222222 11.0727273,12.962963 11.2636364,12.7037037 C11.4545455,12.4444444 11.7090909,12.25 11.9636364,11.9907407 C12.2818182,11.7962963 12.6636364,11.6018519 13.1090909,11.4722222 C13.6181818,11.3425926 14.1909091,11.212963 14.8272727,11.1481481 C15.4,11.0833333 16.1,11.0833333 16.8636364,11.0185185 L16.8636364,10.2407407 L18.4545455,10.2407407 L18.4545455,11.0185185 L18.8363636,11.0185185 C19.6,11.0185185 20.2363636,11.0185185 20.8090909,11.0833333 C21.3818182,11.1481481 21.8272727,11.212963 22.2727273,11.3425926 C22.6545455,11.4722222 23.0363636,11.6018519 23.2909091,11.7962963 C23.5454545,11.9907407 23.8,12.1851852 23.9272727,12.4444444 C24.0545455,12.7037037 24.1818182,12.962963 24.2454545,13.287037 C24.3090909,13.6111111 24.3090909,13.9351852 24.3090909,14.3240741 L22.8454545,14.3240741 C22.8454545,13.8703704 22.7818182,13.4814815 22.6545455,13.2222222 C22.5272727,12.962963 22.2727273,12.7685185 22.0181818,12.6388889 C21.7,12.5092593 21.3181818,12.4444444 20.8090909,12.3796296 C20.3,12.3148148 19.6636364,12.3148148 18.9636364,12.3148148 L18.4545455,12.3148148 L18.4545455,16.5925926 L18.9,16.5925926 C19.7272727,16.5925926 20.4272727,16.6574074 21,16.7222222 C21.5727273,16.787037 22.0818182,16.9166667 22.4636364,17.0462963 C22.8454545,17.1759259 23.1636364,17.3703704 23.4181818,17.5648148 C23.6727273,17.7592593 23.8636364,18.0185185 23.9909091,18.2777778 C24.1181818,18.537037 24.1818182,18.7962963 24.2454545,19.1203704 C24.3090909,19.4444444 24.3090909,19.7685185 24.3090909,20.1574074 C24.3090909,20.5462963 24.2454545,20.8703704 24.1818182,21.1944444 C24.1181818,21.5185185 23.9909091,21.8425926 23.8636364,22.1018519 C23.6727273,22.3611111 23.4818182,22.6203704 23.1636364,22.8148148 C22.9090909,23.0092593 22.5272727,23.2037037 22.0818182,23.3333333 C21.6363636,23.462963 21.1272727,23.5925926 20.4909091,23.6574074 C19.9181818,23.7222222 19.2181818,23.787037 18.4545455,23.787037 L18.4545455,24.5648148 L16.9909091,24.5648148 L16.9909091,23.8518519 Z M16.9909091,16.7222222 L16.9909091,12.4444444 C16.1636364,12.4444444 15.4636364,12.5092593 14.8909091,12.5740741 C14.2545455,12.6388889 13.7454545,12.7685185 13.3636364,12.8981481 C12.9818182,13.0925926 12.7272727,13.287037 12.6,13.5462963 C12.4727273,13.8055556 12.4090909,14.1944444 12.4090909,14.5833333 C12.4090909,14.8425926 12.4090909,15.1018519 12.4727273,15.2962963 C12.5363636,15.4907407 12.6,15.6851852 12.6636364,15.8148148 C12.7909091,15.9444444 12.9181818,16.0740741 13.1090909,16.2037037 C13.3,16.3333333 13.5545455,16.3981481 13.9363636,16.462963 C14.2545455,16.5277778 14.7,16.5925926 15.1454545,16.5925926 C15.6545455,16.5925926 16.1636364,16.6574074 16.8636364,16.6574074 L16.9909091,16.6574074 L16.9909091,16.7222222 Z M18.4545455,18.0185185 L18.4545455,22.6203704 C19.2818182,22.6203704 19.9181818,22.5555556 20.4909091,22.4907407 C21.0636364,22.4259259 21.5090909,22.2962963 21.8909091,22.1018519 C22.2090909,21.9074074 22.4636364,21.6481481 22.5909091,21.3888889 C22.7181818,21.0648148 22.7818182,20.7407407 22.7818182,20.287037 C22.7818182,19.8333333 22.7181818,19.5092593 22.6545455,19.1851852 C22.5272727,18.9259259 22.4,18.6666667 22.0818182,18.4722222 C21.8272727,18.2777778 21.3818182,18.212963 20.8727273,18.0833333 C20.3636364,18.0185185 19.6636364,17.9537037 18.8363636,17.9537037 L18.4545455,17.9537037 L18.4545455,18.0185185 Z" id="Shape" fill-rule="nonzero"></path>
                        <path d="M18.0090909,0.259259259 L17.5636364,0.259259259 L17.1181818,0.259259259 L16.3545455,1.42592593 C16.1636364,1.75 15.6545455,1.81481481 15.4,1.55555556 L14.4454545,0.583333333 C14.1909091,0.648148148 13.8727273,0.712962963 13.6181818,0.777777778 L13.1090909,2.07407407 C12.9818182,2.46296296 12.5363636,2.59259259 12.2181818,2.39814815 L11.0727273,1.62037037 L10.3090909,2.00925926 L10.1181818,3.37037037 C10.0545455,3.75925926 9.67272727,4.01851852 9.29090909,3.88888889 L8.01818182,3.37037037 L7.31818182,3.88888889 L7.38181818,5.25 C7.38181818,5.63888889 7.06363636,5.96296296 6.68181818,5.89814815 L5.34545455,5.7037037 C5.15454545,5.89814815 4.96363636,6.15740741 4.77272727,6.35185185 L5.15454545,7.71296296 C5.28181818,8.10185185 4.96363636,8.49074074 4.58181818,8.49074074 L3.18181818,8.55555556 C3.05454545,8.81481481 2.86363636,9.07407407 2.73636364,9.33333333 L3.37272727,10.5648148 C3.56363636,10.9537037 3.37272727,11.3425926 2.99090909,11.4722222 L1.65454545,11.7962963 C1.52727273,12.0555556 1.46363636,12.3796296 1.4,12.6388889 L2.29090909,13.7407407 C2.54545455,14.0648148 2.41818182,14.5185185 2.1,14.712963 L0.890909091,15.3611111 C0.827272727,15.6851852 0.827272727,15.9444444 0.827272727,16.2685185 L1.90909091,17.1111111 C2.22727273,17.3703704 2.22727273,17.8240741 1.90909091,18.0833333 L0.827272727,18.9259259 C0.827272727,19.25 0.890909091,19.5092593 0.890909091,19.8333333 L2.1,20.4814815 C2.48181818,20.6759259 2.54545455,21.1296296 2.29090909,21.4537037 L1.4,22.5555556 C1.46363636,22.8148148 1.59090909,23.1388889 1.65454545,23.3981481 L2.99090909,23.7222222 C3.37272727,23.8518519 3.56363636,24.2407407 3.37272727,24.6296296 L2.73636364,25.8611111 C2.86363636,26.1203704 2.99090909,26.3796296 3.18181818,26.6388889 L4.58181818,26.7037037 C4.96363636,26.7037037 5.28181818,27.0925926 5.15454545,27.4814815 L4.77272727,28.8425926 C4.96363636,29.037037 5.15454545,29.2962963 5.34545455,29.4907407 L6.68181818,29.2962963 C7.06363636,29.2314815 7.44545455,29.5555556 7.38181818,29.9444444 L7.31818182,31.3055556 C7.57272727,31.5 7.76363636,31.6296296 8.01818182,31.8240741 L9.29090909,31.3055556 C9.67272727,31.1759259 10.0545455,31.3703704 10.1181818,31.8240741 L10.3090909,33.1851852 C10.5636364,33.3148148 10.8181818,33.4444444 11.0727273,33.5740741 L12.2181818,32.7962963 C12.5363636,32.6018519 12.9818182,32.7314815 13.1090909,33.1203704 L13.6181818,34.4166667 C13.8727273,34.4814815 14.1909091,34.5462963 14.4454545,34.6111111 L15.4,33.6388889 C15.6545455,33.3796296 16.1636364,33.3796296 16.3545455,33.7685185 L17.1181818,34.9351852 L17.5636364,34.9351852 L18.0090909,34.9351852 L18.7727273,33.7685185 C18.9636364,33.4444444 19.4727273,33.3796296 19.7272727,33.6388889 L20.6818182,34.6111111 C20.9363636,34.5462963 21.2545455,34.4814815 21.5090909,34.4166667 L22.0181818,33.1203704 C22.1454545,32.7314815 22.5909091,32.6018519 22.9090909,32.7962963 L24.0545455,33.5740741 C24.3090909,33.4444444 24.5636364,33.3148148 24.8181818,33.1851852 L25.0090909,31.8240741 C25.0727273,31.4351852 25.4545455,31.1759259 25.8363636,31.3055556 L27.1090909,31.8240741 C27.3636364,31.6296296 27.5545455,31.5 27.8090909,31.3055556 L27.7454545,29.9444444 C27.7454545,29.5555556 28.0636364,29.2314815 28.4454545,29.2962963 L29.7818182,29.4907407 C29.9727273,29.2962963 30.1636364,29.037037 30.3545455,28.8425926 L29.9727273,27.4814815 C29.8454545,27.0925926 30.1636364,26.7037037 30.5454545,26.7037037 L31.9454545,26.6388889 C32.0727273,26.3796296 32.2636364,26.1203704 32.3909091,25.8611111 L31.7545455,24.6296296 C31.5636364,24.2407407 31.7545455,23.8518519 32.1363636,23.7222222 L33.4727273,23.3981481 C33.6,23.1388889 33.6636364,22.8148148 33.7272727,22.5555556 L32.8363636,21.4537037 C32.5818182,21.1296296 32.7090909,20.6759259 33.0272727,20.4814815 L34.2363636,19.8333333 C34.3,19.5092593 34.3,19.25 34.3,18.9259259 L33.2181818,18.0833333 C32.9,17.8240741 32.9,17.3703704 33.2181818,17.1111111 L34.3,16.2685185 C34.3,15.9444444 34.2363636,15.6851852 34.2363636,15.3611111 L33.0272727,14.712963 C32.6454545,14.5185185 32.5818182,14.0648148 32.8363636,13.7407407 L33.7272727,12.6388889 C33.6636364,12.3796296 33.5363636,12.0555556 33.4727273,11.7962963 L32.1363636,11.4722222 C31.7545455,11.3425926 31.5636364,10.9537037 31.7545455,10.5648148 L32.3909091,9.33333333 C32.2636364,9.07407407 32.1363636,8.81481481 31.9454545,8.55555556 L30.5454545,8.49074074 C30.1636364,8.49074074 29.8454545,8.10185185 29.9727273,7.71296296 L30.3545455,6.35185185 C30.1636364,6.15740741 29.9727273,5.89814815 29.7818182,5.7037037 L28.4454545,5.89814815 C28.0636364,5.96296296 27.6818182,5.63888889 27.7454545,5.25 L27.8090909,3.88888889 C27.5545455,3.69444444 27.3636364,3.56481481 27.1090909,3.37037037 L25.8363636,3.88888889 C25.4545455,4.01851852 25.0727273,3.82407407 25.0090909,3.37037037 L24.8818182,1.94444444 C24.6272727,1.81481481 24.3727273,1.68518519 24.1181818,1.55555556 L22.9727273,2.33333333 C22.6545455,2.52777778 22.2090909,2.39814815 22.0818182,2.00925926 L21.5727273,0.712962963 C21.3181818,0.648148148 21,0.583333333 20.7454545,0.518518519 L19.7272727,1.55555556 C19.4727273,1.81481481 18.9636364,1.81481481 18.7727273,1.42592593 L18.0090909,0.259259259 Z M30.2272727,17.5 C30.2272727,24.5648148 24.5636364,30.3333333 17.6272727,30.3333333 C10.6909091,30.3333333 4.96363636,24.5648148 4.96363636,17.5 C4.96363636,10.4351852 10.6272727,4.66666667 17.5636364,4.66666667 C24.5,4.66666667 30.2272727,10.4351852 30.2272727,17.5 Z" id="SVGID_1_" fill-rule="nonzero"></path>
                        <path d="M34.7454545,18.7314815 L34.7454545,18.8611111 C34.7454545,19.1851852 34.6818182,19.4444444 34.6818182,19.7685185 L34.6818182,19.8981481 L33.3454545,20.6111111 C33.2181818,20.6759259 33.1545455,20.7407407 33.1545455,20.8703704 C33.1545455,21 33.1545455,21.1296296 33.2181818,21.1944444 L34.1727273,22.3611111 L34.1090909,22.4907407 C34.0454545,22.75 33.9181818,23.0740741 33.8545455,23.3333333 L33.7909091,23.462963 L32.3272727,23.8518519 C32.2,23.8518519 32.1363636,23.9814815 32.0727273,24.0462963 C32.0090909,24.1759259 32.0090909,24.3055556 32.0727273,24.3703704 L32.7727273,25.7314815 L32.7090909,25.8611111 C32.5818182,26.1203704 32.3909091,26.3796296 32.2636364,26.6388889 L32.2,26.7685185 L30.7363636,26.8333333 C30.6090909,26.8333333 30.4818182,26.8981481 30.4181818,26.962963 C30.3545455,27.0277778 30.3545455,27.1574074 30.3545455,27.287037 L30.7363636,28.7777778 L30.6727273,28.8425926 C30.4818182,29.1018519 30.2909091,29.2962963 30.1,29.4907407 L30.0363636,29.5555556 L28.5727273,29.2962963 C28.4454545,29.2962963 28.3181818,29.2962963 28.2545455,29.3611111 C28.1909091,29.4259259 28.1272727,29.5555556 28.1272727,29.6851852 L28.1909091,31.1759259 L28.0636364,31.2407407 C27.8090909,31.4351852 27.6181818,31.6296296 27.3636364,31.7592593 L27.2363636,31.8240741 L25.8363636,31.2407407 C25.7090909,31.1759259 25.5818182,31.1759259 25.5181818,31.2407407 C25.3909091,31.3055556 25.3272727,31.3703704 25.3272727,31.5 L25.0727273,32.9907407 L24.9454545,33.0555556 C24.6909091,33.1851852 24.4363636,33.3148148 24.1181818,33.4444444 L23.9909091,33.5092593 L22.7181818,32.6666667 C22.5909091,32.6018519 22.5272727,32.6018519 22.4,32.6018519 C22.2727273,32.6666667 22.2090909,32.7314815 22.1454545,32.8611111 L21.6363636,34.287037 L21.5090909,34.287037 C21.2545455,34.3518519 20.9363636,34.4166667 20.6181818,34.4814815 L20.4909091,34.4814815 L19.4727273,33.3796296 C19.4090909,33.3148148 19.2818182,33.25 19.1545455,33.25 C19.0272727,33.25 18.9636364,33.3148148 18.9,33.4444444 L18.0727273,34.7407407 L17.8181818,34.7407407 L17.5,34.7407407 L17.1818182,34.7407407 L16.9272727,34.7407407 L16.1,33.4444444 C16.0363636,33.3148148 15.9090909,33.25 15.8454545,33.25 C15.7181818,33.25 15.5909091,33.25 15.5272727,33.3796296 L14.5090909,34.4814815 L14.3818182,34.4814815 C14.0636364,34.4166667 13.8090909,34.3518519 13.4909091,34.287037 L13.3636364,34.287037 L12.8545455,32.8611111 C12.7909091,32.7314815 12.7272727,32.6666667 12.6,32.6018519 C12.4727273,32.537037 12.3454545,32.6018519 12.2818182,32.6666667 L11.0090909,33.5092593 L10.8818182,33.4444444 C10.6272727,33.3148148 10.3727273,33.1851852 10.0545455,33.0555556 L9.92727273,32.9907407 L9.86363636,31.7592593 C9.86363636,31.6296296 9.8,31.5648148 9.67272727,31.5 C9.54545455,31.4351852 9.48181818,31.4351852 9.35454545,31.5 L7.95454545,32.0833333 L7.82727273,32.0185185 C7.57272727,31.8240741 7.31818182,31.6944444 7.12727273,31.5 L7,31.4351852 L7.06363636,29.9444444 C7.06363636,29.8148148 7,29.6851852 6.93636364,29.6203704 C6.87272727,29.5555556 6.74545455,29.4907407 6.61818182,29.5555556 L5.15454545,29.8148148 L5.09090909,29.75 C4.9,29.5555556 4.70909091,29.2962963 4.51818182,29.1018519 L4.45454545,28.7777778 L4.83636364,27.287037 C4.83636364,27.1574074 4.83636364,27.0277778 4.77272727,26.962963 C4.70909091,26.8981481 4.58181818,26.8333333 4.45454545,26.8333333 L2.99090909,26.7685185 L2.92727273,26.6388889 C2.8,26.3796296 2.60909091,26.1203704 2.48181818,25.8611111 L2.41818182,25.7314815 L3.11818182,24.3703704 C3.18181818,24.2407407 3.18181818,24.1111111 3.11818182,24.0462963 C3.05454545,23.9166667 2.99090909,23.8518519 2.86363636,23.8518519 L1.4,23.462963 L1.4,23.3333333 C1.27272727,23.0740741 1.20909091,22.75 1.14545455,22.4907407 L1.08181818,22.3611111 L2.03636364,21.1944444 C2.1,21.1296296 2.16363636,21 2.1,20.8703704 C2.1,20.7407407 1.97272727,20.6759259 1.90909091,20.6111111 L0.572727273,19.8981481 L0.572727273,19.7685185 C0.509090909,19.4444444 0.509090909,19.1851852 0.509090909,18.8611111 L0.509090909,18.7314815 L1.65454545,17.7592593 C1.71818182,17.6944444 1.78181818,17.5648148 1.78181818,17.4351852 L1.78181818,17.4351852 C1.78181818,17.3055556 1.71818182,17.1759259 1.65454545,17.1111111 L0.509090909,16.1388889 L0.509090909,16.0092593 C0.509090909,15.6851852 0.572727273,15.4259259 0.572727273,15.1018519 L0.572727273,14.9722222 L1.90909091,14.2592593 C2.03636364,14.1944444 2.1,14.1296296 2.1,14 C2.1,13.8703704 2.1,13.7407407 2.03636364,13.6759259 L1.08181818,12.5092593 L1.14545455,12.3796296 C1.20909091,12.1203704 1.33636364,11.7962963 1.4,11.537037 L1.46363636,11.4074074 L2.92727273,11.0185185 C3.05454545,11.0185185 3.11818182,10.8888889 3.18181818,10.8240741 C3.24545455,10.6944444 3.24545455,10.5648148 3.18181818,10.5 L2.48181818,9.13888889 L2.54545455,9.00925926 C2.67272727,8.75 2.86363636,8.49074074 2.99090909,8.23148148 L3.05454545,8.10185185 L4.51818182,8.03703704 C4.64545455,8.03703704 4.77272727,7.97222222 4.83636364,7.90740741 C4.9,7.84259259 4.9,7.71296296 4.9,7.58333333 L4.45454545,6.22222222 L4.51818182,6.15740741 C4.70909091,5.89814815 4.9,5.7037037 5.09090909,5.50925926 L5.15454545,5.44444444 L6.61818182,5.7037037 C6.74545455,5.7037037 6.87272727,5.7037037 6.93636364,5.63888889 C7,5.57407407 7.06363636,5.44444444 7.06363636,5.31481481 L7,3.82407407 L7.89090909,3.17592593 L9.29090909,3.75925926 C9.41818182,3.82407407 9.54545455,3.82407407 9.60909091,3.75925926 C9.73636364,3.69444444 9.8,3.62962963 9.8,3.5 L10.0545455,2.00925926 L10.1818182,1.94444444 C10.4363636,1.81481481 10.6909091,1.68518519 11.0090909,1.55555556 L11.1363636,1.49074074 L12.4090909,2.33333333 C12.5363636,2.39814815 12.6,2.39814815 12.7272727,2.39814815 C12.8545455,2.33333333 12.9181818,2.26851852 12.9818182,2.13888889 L13.4909091,0.712962963 L13.6181818,0.712962963 C13.8727273,0.648148148 14.1909091,0.583333333 14.5090909,0.518518519 L14.6363636,0.518518519 L15.6545455,1.62037037 C15.7181818,1.68518519 15.8454545,1.75 15.9727273,1.75 C16.1,1.75 16.1636364,1.68518519 16.2272727,1.55555556 L17.0545455,0.259259259 L17.3090909,0.259259259 L17.6272727,0.259259259 L17.9454545,0.259259259 L18.2,0.259259259 L19.0272727,1.55555556 C19.0909091,1.68518519 19.2181818,1.75 19.2818182,1.75 C19.4090909,1.75 19.5363636,1.75 19.6,1.62037037 L20.6181818,0.518518519 L20.7454545,0.518518519 C21.0636364,0.583333333 21.3181818,0.648148148 21.6363636,0.712962963 L21.7636364,0.712962963 L22.2727273,1.94444444 C22.3363636,2.07407407 22.4,2.13888889 22.5272727,2.2037037 C22.6545455,2.26851852 22.7818182,2.2037037 22.8454545,2.13888889 L24.1181818,1.2962963 L24.2454545,1.36111111 C24.5,1.49074074 24.7545455,1.62037037 25.0727273,1.75 L25.2,1.81481481 L25.4545455,3.30555556 C25.4545455,3.43518519 25.5181818,3.5 25.6454545,3.56481481 C25.7727273,3.62962963 25.8363636,3.62962963 25.9636364,3.56481481 L27.3636364,2.98148148 L27.4909091,3.0462963 C27.7454545,3.24074074 28,3.37037037 28.1909091,3.56481481 L28.3181818,3.62962963 L28.2545455,5.12037037 C28.2545455,5.25 28.3181818,5.37962963 28.3818182,5.44444444 C28.4454545,5.50925926 28.5727273,5.57407407 28.7,5.50925926 L30.1636364,5.25 L30.2272727,5.31481481 C30.4181818,5.50925926 30.6090909,5.76851852 30.8,5.96296296 L30.8636364,6.02777778 L30.4818182,7.51851852 C30.4818182,7.64814815 30.4818182,7.77777778 30.5454545,7.84259259 C30.6090909,7.90740741 30.7363636,7.97222222 30.8636364,7.97222222 L32.3272727,8.03703704 L32.3909091,8.16666667 C32.5181818,8.42592593 32.7090909,8.68518519 32.8363636,8.94444444 L32.9,9.07407407 L32.2,10.4351852 C32.1363636,10.5648148 32.1363636,10.6944444 32.2,10.7592593 C32.2636364,10.8888889 32.3272727,10.9537037 32.4545455,10.9537037 L33.9181818,11.3425926 L33.9818182,11.4722222 C34.1090909,11.7314815 34.1727273,12.0555556 34.2363636,12.3148148 L34.3,12.4444444 L33.3454545,13.6111111 C33.2818182,13.6759259 33.2181818,13.8055556 33.2818182,13.9351852 C33.2818182,14.0648148 33.4090909,14.1296296 33.4727273,14.1944444 L34.8090909,14.9074074 L34.8090909,15.037037 C34.8727273,15.3611111 34.8727273,15.6203704 34.8727273,15.9444444 L34.8727273,16.0740741 L33.7272727,17.0462963 C33.6636364,17.1111111 33.6,17.2407407 33.6,17.3703704 L33.6,17.3703704 C33.6,17.5 33.6636364,17.6296296 33.7272727,17.6944444 L34.7454545,18.7314815 Z M32.9636364,17.5 L32.9636364,17.5 C32.9636364,17.2407407 33.0909091,16.9814815 33.2818182,16.8518519 L34.2363636,16.0740741 C34.2363636,15.8796296 34.1727273,15.6851852 34.1727273,15.4259259 L33.0909091,14.8425926 C32.8363636,14.712963 32.7090909,14.5185185 32.6454545,14.2592593 C32.5818182,14 32.6454545,13.7407407 32.8363636,13.5462963 L33.6,12.5740741 C33.5363636,12.3796296 33.4727273,12.1851852 33.4090909,11.9907407 L32.2,11.6666667 C31.9454545,11.6018519 31.7545455,11.4074074 31.6272727,11.212963 C31.5,10.9537037 31.5,10.6944444 31.6272727,10.4351852 L32.2,9.33333333 C32.0727273,9.13888889 32.0090909,8.94444444 31.8818182,8.81481481 L30.6090909,8.75 C30.3545455,8.75 30.1,8.62037037 29.9727273,8.42592593 C29.8454545,8.23148148 29.7818182,7.97222222 29.8454545,7.71296296 L30.1636364,6.48148148 C30.0363636,6.35185185 29.9090909,6.15740741 29.7818182,6.02777778 L28.5727273,6.22222222 C28.3181818,6.28703704 28.0636364,6.15740741 27.8727273,6.02777778 C27.6818182,5.83333333 27.5545455,5.57407407 27.6181818,5.31481481 L27.6818182,4.08333333 C27.4909091,3.9537037 27.3636364,3.82407407 27.1727273,3.69444444 L26.0272727,4.14814815 C25.7727273,4.21296296 25.5181818,4.21296296 25.2636364,4.08333333 C25.0090909,3.9537037 24.8818182,3.69444444 24.8181818,3.43518519 L24.6272727,2.2037037 C24.4363636,2.13888889 24.2454545,2.00925926 24.0545455,1.94444444 L23.0363636,2.65740741 C22.8454545,2.78703704 22.5272727,2.85185185 22.3363636,2.78703704 C22.0818182,2.72222222 21.8909091,2.52777778 21.8272727,2.26851852 L21.3818182,1.10185185 C21.1909091,1.03703704 21,1.03703704 20.8090909,0.972222222 L19.9181818,1.87962963 C19.7272727,1.87962963 19.4727273,1.94444444 19.2181818,1.94444444 C18.9636364,1.94444444 18.7090909,1.75 18.5818182,1.55555556 L17.8818182,0.518518519 L17.6272727,0.518518519 L17.3727273,0.518518519 L17.3727273,0.518518519 L16.6727273,1.55555556 C16.5454545,1.75 16.2909091,1.94444444 16.0363636,1.94444444 C15.7818182,1.94444444 15.5272727,1.87962963 15.3363636,1.68518519 L14.4454545,0.777777778 C14.2545455,0.842592593 14.0636364,0.842592593 13.8727273,0.907407407 L13.3636364,2.13888889 C13.3,2.39814815 13.1090909,2.59259259 12.8545455,2.65740741 C12.6,2.72222222 12.3454545,2.72222222 12.1545455,2.52777778 L11.1363636,1.81481481 C10.9454545,1.87962963 10.7545455,2.00925926 10.5636364,2.07407407 L10.3727273,3.30555556 C10.3090909,3.56481481 10.1818182,3.82407407 9.92727273,3.9537037 C9.67272727,4.08333333 9.41818182,4.08333333 9.16363636,4.01851852 L8.01818182,3.56481481 L7.50909091,3.9537037 L7.57272727,5.18518519 C7.57272727,5.44444444 7.50909091,5.7037037 7.31818182,5.89814815 C7.12727273,6.09259259 6.87272727,6.15740741 6.61818182,6.09259259 L5.40909091,5.89814815 C5.28181818,6.02777778 5.15454545,6.22222222 5.02727273,6.35185185 L5.34545455,7.58333333 C5.40909091,7.84259259 5.34545455,8.10185185 5.21818182,8.2962963 C5.09090909,8.49074074 4.83636364,8.62037037 4.58181818,8.68518519 L3.30909091,8.75 C3.18181818,8.94444444 3.11818182,9.07407407 2.99090909,9.26851852 L3.56363636,10.3703704 C3.69090909,10.6296296 3.69090909,10.8888889 3.56363636,11.1481481 C3.43636364,11.4074074 3.24545455,11.537037 2.99090909,11.6018519 L1.78181818,11.9259259 C1.71818182,12.1203704 1.65454545,12.3148148 1.59090909,12.5092593 L2.35454545,13.4814815 C2.54545455,13.6759259 2.60909091,13.9351852 2.54545455,14.1944444 C2.48181818,14.4537037 2.35454545,14.6481481 2.1,14.7777778 L1.01818182,15.3611111 C1.01818182,15.5555556 0.954545455,15.75 0.954545455,16.0092593 L1.90909091,16.8518519 C2.1,17.0462963 2.22727273,17.2407407 2.22727273,17.5 L2.22727273,17.5 C2.22727273,17.7592593 2.1,18.0185185 1.90909091,18.1481481 L0.954545455,18.9259259 C0.954545455,19.1203704 1.01818182,19.3148148 1.01818182,19.5740741 L2.1,20.1574074 C2.35454545,20.287037 2.48181818,20.4814815 2.54545455,20.7407407 C2.60909091,21 2.54545455,21.2592593 2.35454545,21.4537037 L1.59090909,22.4259259 C1.65454545,22.6203704 1.71818182,22.8148148 1.78181818,23.0092593 L2.99090909,23.3333333 C3.24545455,23.3981481 3.43636364,23.5925926 3.56363636,23.8518519 C3.69090909,24.1111111 3.69090909,24.3703704 3.56363636,24.6296296 L2.99090909,25.7314815 C3.11818182,25.9259259 3.18181818,26.1203704 3.30909091,26.25 L4.58181818,26.3148148 C4.83636364,26.3148148 5.09090909,26.4444444 5.21818182,26.7037037 C5.34545455,26.8981481 5.40909091,27.1574074 5.34545455,27.4166667 L5.02727273,28.6481481 C5.15454545,28.7777778 5.28181818,28.9722222 5.40909091,29.1018519 L6.61818182,28.9074074 C6.87272727,28.8425926 7.12727273,28.9722222 7.31818182,29.1018519 C7.50909091,29.2962963 7.63636364,29.5555556 7.57272727,29.8148148 L7.50909091,31.1111111 C7.7,31.2407407 7.82727273,31.3703704 8.01818182,31.5 L9.16363636,31.0462963 C9.41818182,30.9814815 9.67272727,30.9814815 9.92727273,31.1111111 C10.1818182,31.2407407 10.3090909,31.5 10.3727273,31.7592593 L10.5636364,32.9907407 C10.7545455,33.0555556 10.9454545,33.1851852 11.1363636,33.25 L12.1545455,32.537037 C12.3454545,32.4074074 12.6636364,32.3425926 12.9181818,32.4074074 C13.1727273,32.4722222 13.3636364,32.6666667 13.4272727,32.9259259 L13.8727273,34.0925926 C14.0636364,34.1574074 14.2545455,34.1574074 14.4454545,34.2222222 L15.3363636,33.3148148 C15.5272727,33.1203704 15.7818182,33.0555556 16.0363636,33.0555556 C16.2909091,33.0555556 16.5454545,33.25 16.6727273,33.4444444 L17.3727273,34.4814815 L17.6272727,34.4814815 L17.8818182,34.4814815 L17.8818182,34.4814815 L18.5818182,33.4444444 C18.7090909,33.25 18.9636364,33.0555556 19.2181818,33.0555556 C19.4727273,33.0555556 19.7272727,33.1203704 19.9181818,33.3148148 L20.8090909,34.2222222 C21,34.1574074 21.1909091,34.1574074 21.3818182,34.0925926 L21.8272727,32.9259259 C21.8909091,32.6666667 22.0818182,32.4722222 22.3363636,32.4074074 C22.5909091,32.3425926 22.8454545,32.3425926 23.1,32.537037 L24.1181818,33.25 C24.3090909,33.1851852 24.5,33.0555556 24.6909091,32.9907407 L24.8818182,31.7592593 C24.9454545,31.5 25.0727273,31.2407407 25.3272727,31.1111111 C25.5818182,30.9814815 25.8363636,30.9814815 26.0909091,31.0462963 L27.2363636,31.5 C27.4272727,31.3703704 27.5545455,31.2407407 27.7454545,31.1111111 L27.6818182,29.8796296 C27.6818182,29.6203704 27.7454545,29.3611111 27.9363636,29.1666667 C28.1272727,28.9722222 28.3818182,28.9074074 28.6363636,28.9722222 L29.8454545,29.1666667 C29.9727273,29.037037 30.1,28.8425926 30.2272727,28.712963 L29.9090909,27.4814815 C29.8454545,27.2222222 29.9090909,26.962963 30.0363636,26.7685185 C30.1636364,26.5740741 30.4181818,26.4444444 30.6727273,26.4444444 L31.9454545,26.3796296 C32.0727273,26.1851852 32.1363636,26.0555556 32.2636364,25.8611111 L31.6909091,24.7592593 C31.5636364,24.5 31.5636364,24.2407407 31.6909091,23.9814815 C31.8181818,23.7222222 32.0090909,23.5925926 32.2636364,23.462963 L33.4727273,23.1388889 C33.5363636,22.9444444 33.6,22.75 33.6636364,22.5555556 L32.9,21.5833333 C32.7090909,21.3888889 32.6454545,21.1296296 32.7090909,20.8703704 C32.7727273,20.6111111 32.9,20.4166667 33.1545455,20.287037 L34.2363636,19.7037037 C34.2363636,19.5092593 34.3,19.3148148 34.3,19.0555556 L33.3454545,18.2777778 C33.0909091,18.0185185 32.9636364,17.7592593 32.9636364,17.5 Z M30.4181818,17.5 C30.4181818,24.6944444 24.6272727,30.5925926 17.5636364,30.5925926 C10.5,30.5925926 4.70909091,24.6944444 4.70909091,17.5 C4.70909091,10.3055556 10.5,4.40740741 17.5636364,4.40740741 C24.6909091,4.40740741 30.4181818,10.3055556 30.4181818,17.5 Z M5.21818182,17.5 C5.21818182,24.4351852 10.7545455,30.0740741 17.5636364,30.0740741 C24.3727273,30.0740741 29.9727273,24.4351852 29.9727273,17.5 C29.9727273,10.5648148 24.4363636,4.92592593 17.5636364,4.92592593 C10.7545455,4.92592593 5.21818182,10.5648148 5.21818182,17.5 Z" id="Shape" fill-rule="nonzero"></path>
                    </g>
                </g>
            </g>
        </g>
    </g>
</svg>