<?xml version="1.0" encoding="UTF-8" standalone="no"?>
<svg width="16px" height="15px" viewBox="0 0 16 15" version="1.1" xmlns="http://www.w3.org/2000/svg" xmlns:xlink="http://www.w3.org/1999/xlink">
    <!-- Generator: Sketch 43.1 (39012) - http://www.bohemiancoding.com/sketch -->
    <title>icon-coproc-small</title>
    <desc>Created with Sketch.</desc>
    <defs></defs>
    <g id="coproc-light" stroke="none" stroke-width="1" fill="none" fill-rule="evenodd" opacity="0.8">
        <g id="Coproc-Icons-Light" transform="translate(-88.000000, -24.000000)" fill="#5D5D5D">
            <g id="icon-coproc-small" transform="translate(86.000000, 22.000000)">
                <g id="croproc-Icn-light" transform="translate(9.663845, 9.484544) rotate(-13.000000) translate(-9.663845, -9.484544) translate(2.163845, 1.984544)">
                    <g id="croprocIcn-light">
                        <path d="M7.28181818,10.2222222 L7.00909091,10.2222222 C6.68181818,10.2222222 6.40909091,10.2222222 6.16363636,10.1944444 C5.91818182,10.1666667 5.72727273,10.1388889 5.53636364,10.0833333 C5.37272727,10.0277778 5.20909091,9.97222222 5.1,9.88888889 C4.99090909,9.80555556 4.90909091,9.72222222 4.82727273,9.61111111 C4.74545455,9.5 4.71818182,9.38888889 4.69090909,9.25 C4.66363636,9.11111111 4.66363636,8.97222222 4.66363636,8.80555556 L5.29090909,8.80555556 C5.29090909,9 5.31818182,9.16666667 5.37272727,9.27777778 C5.42727273,9.38888889 5.53636364,9.47222222 5.64545455,9.52777778 C5.78181818,9.58333333 5.94545455,9.61111111 6.16363636,9.63888889 C6.38181818,9.66666667 6.65454545,9.66666667 6.95454545,9.66666667 L7.22727273,9.66666667 L7.22727273,7.69444444 L7.17272727,7.69444444 C6.79090909,7.69444444 6.43636364,7.66666667 6.16363636,7.63888889 C5.89090909,7.61111111 5.64545455,7.55555556 5.45454545,7.5 C5.26363636,7.44444444 5.12727273,7.38888889 4.99090909,7.30555556 C4.85454545,7.22222222 4.8,7.13888889 4.74545455,7.02777778 C4.69090909,6.91666667 4.63636364,6.80555556 4.63636364,6.66666667 C4.60909091,6.52777778 4.60909091,6.38888889 4.60909091,6.25 C4.60909091,6.08333333 4.63636364,5.94444444 4.66363636,5.80555556 C4.69090909,5.66666667 4.74545455,5.55555556 4.82727273,5.44444444 C4.90909091,5.33333333 5.01818182,5.25 5.12727273,5.13888889 C5.26363636,5.05555556 5.42727273,4.97222222 5.61818182,4.91666667 C5.83636364,4.86111111 6.08181818,4.80555556 6.35454545,4.77777778 C6.6,4.75 6.9,4.75 7.22727273,4.72222222 L7.22727273,4.38888889 L7.90909091,4.38888889 L7.90909091,4.72222222 L8.07272727,4.72222222 C8.4,4.72222222 8.67272727,4.72222222 8.91818182,4.75 C9.16363636,4.77777778 9.35454545,4.80555556 9.54545455,4.86111111 C9.70909091,4.91666667 9.87272727,4.97222222 9.98181818,5.05555556 C10.0909091,5.13888889 10.2,5.22222222 10.2545455,5.33333333 C10.3090909,5.44444444 10.3636364,5.55555556 10.3909091,5.69444444 C10.4181818,5.83333333 10.4181818,5.97222222 10.4181818,6.13888889 L9.79090909,6.13888889 C9.79090909,5.94444444 9.76363636,5.77777778 9.70909091,5.66666667 C9.65454545,5.55555556 9.54545455,5.47222222 9.43636364,5.41666667 C9.3,5.36111111 9.13636364,5.33333333 8.91818182,5.30555556 C8.7,5.27777778 8.42727273,5.27777778 8.12727273,5.27777778 L7.90909091,5.27777778 L7.90909091,7.11111111 L8.1,7.11111111 C8.45454545,7.11111111 8.75454545,7.13888889 9,7.16666667 C9.24545455,7.19444444 9.46363636,7.25 9.62727273,7.30555556 C9.79090909,7.36111111 9.92727273,7.44444444 10.0363636,7.52777778 C10.1454545,7.61111111 10.2272727,7.72222222 10.2818182,7.83333333 C10.3363636,7.94444444 10.3636364,8.05555556 10.3909091,8.19444444 C10.4181818,8.33333333 10.4181818,8.47222222 10.4181818,8.63888889 C10.4181818,8.80555556 10.3909091,8.94444444 10.3636364,9.08333333 C10.3363636,9.22222222 10.2818182,9.36111111 10.2272727,9.47222222 C10.1454545,9.58333333 10.0636364,9.69444444 9.92727273,9.77777778 C9.81818182,9.86111111 9.65454545,9.94444444 9.46363636,10 C9.27272727,10.0555556 9.05454545,10.1111111 8.78181818,10.1388889 C8.53636364,10.1666667 8.23636364,10.1944444 7.90909091,10.1944444 L7.90909091,10.5277778 L7.28181818,10.5277778 L7.28181818,10.2222222 Z M7.28181818,7.16666667 L7.28181818,5.33333333 C6.92727273,5.33333333 6.62727273,5.36111111 6.38181818,5.38888889 C6.10909091,5.41666667 5.89090909,5.47222222 5.72727273,5.52777778 C5.56363636,5.61111111 5.45454545,5.69444444 5.4,5.80555556 C5.34545455,5.91666667 5.31818182,6.08333333 5.31818182,6.25 C5.31818182,6.36111111 5.31818182,6.47222222 5.34545455,6.55555556 C5.37272727,6.63888889 5.4,6.72222222 5.42727273,6.77777778 C5.48181818,6.83333333 5.53636364,6.88888889 5.61818182,6.94444444 C5.7,7 5.80909091,7.02777778 5.97272727,7.05555556 C6.10909091,7.08333333 6.3,7.11111111 6.49090909,7.11111111 C6.70909091,7.11111111 6.92727273,7.13888889 7.22727273,7.13888889 L7.28181818,7.13888889 L7.28181818,7.16666667 Z M7.90909091,7.72222222 L7.90909091,9.69444444 C8.26363636,9.69444444 8.53636364,9.66666667 8.78181818,9.63888889 C9.02727273,9.61111111 9.21818182,9.55555556 9.38181818,9.47222222 C9.51818182,9.38888889 9.62727273,9.27777778 9.68181818,9.16666667 C9.73636364,9.02777778 9.76363636,8.88888889 9.76363636,8.69444444 C9.76363636,8.5 9.73636364,8.36111111 9.70909091,8.22222222 C9.65454545,8.11111111 9.6,8 9.46363636,7.91666667 C9.35454545,7.83333333 9.16363636,7.80555556 8.94545455,7.75 C8.72727273,7.72222222 8.42727273,7.69444444 8.07272727,7.69444444 L7.90909091,7.69444444 L7.90909091,7.72222222 Z" id="Shape" fill-rule="nonzero"></path>
                        <path d="M7.71818182,0.111111111 L7.52727273,0.111111111 L7.33636364,0.111111111 L7.00909091,0.611111111 C6.92727273,0.75 6.70909091,0.777777778 6.6,0.666666667 L6.19090909,0.25 C6.08181818,0.277777778 5.94545455,0.305555556 5.83636364,0.333333333 L5.61818182,0.888888889 C5.56363636,1.05555556 5.37272727,1.11111111 5.23636364,1.02777778 L4.74545455,0.694444444 C4.63636364,0.75 4.52727273,0.805555556 4.41818182,0.861111111 L4.33636364,1.44444444 C4.30909091,1.61111111 4.14545455,1.72222222 3.98181818,1.66666667 L3.43636364,1.44444444 L3.13636364,1.66666667 L3.16363636,2.25 C3.16363636,2.41666667 3.02727273,2.55555556 2.86363636,2.52777778 L2.29090909,2.44444444 C2.20909091,2.52777778 2.12727273,2.63888889 2.04545455,2.72222222 L2.20909091,3.30555556 C2.26363636,3.47222222 2.12727273,3.63888889 1.96363636,3.63888889 L1.36363636,3.66666667 C1.30909091,3.77777778 1.22727273,3.88888889 1.17272727,4 L1.44545455,4.52777778 C1.52727273,4.69444444 1.44545455,4.86111111 1.28181818,4.91666667 L0.709090909,5.05555556 C0.654545455,5.16666667 0.627272727,5.30555556 0.6,5.41666667 L0.981818182,5.88888889 C1.09090909,6.02777778 1.03636364,6.22222222 0.9,6.30555556 L0.381818182,6.58333333 C0.354545455,6.72222222 0.354545455,6.83333333 0.354545455,6.97222222 L0.818181818,7.33333333 C0.954545455,7.44444444 0.954545455,7.63888889 0.818181818,7.75 L0.354545455,8.11111111 C0.354545455,8.25 0.381818182,8.36111111 0.381818182,8.5 L0.9,8.77777778 C1.06363636,8.86111111 1.09090909,9.05555556 0.981818182,9.19444444 L0.6,9.66666667 C0.627272727,9.77777778 0.681818182,9.91666667 0.709090909,10.0277778 L1.28181818,10.1666667 C1.44545455,10.2222222 1.52727273,10.3888889 1.44545455,10.5555556 L1.17272727,11.0833333 C1.22727273,11.1944444 1.28181818,11.3055556 1.36363636,11.4166667 L1.96363636,11.4444444 C2.12727273,11.4444444 2.26363636,11.6111111 2.20909091,11.7777778 L2.04545455,12.3611111 C2.12727273,12.4444444 2.20909091,12.5555556 2.29090909,12.6388889 L2.86363636,12.5555556 C3.02727273,12.5277778 3.19090909,12.6666667 3.16363636,12.8333333 L3.13636364,13.4166667 C3.24545455,13.5 3.32727273,13.5555556 3.43636364,13.6388889 L3.98181818,13.4166667 C4.14545455,13.3611111 4.30909091,13.4444444 4.33636364,13.6388889 L4.41818182,14.2222222 C4.52727273,14.2777778 4.63636364,14.3333333 4.74545455,14.3888889 L5.23636364,14.0555556 C5.37272727,13.9722222 5.56363636,14.0277778 5.61818182,14.1944444 L5.83636364,14.75 C5.94545455,14.7777778 6.08181818,14.8055556 6.19090909,14.8333333 L6.6,14.4166667 C6.70909091,14.3055556 6.92727273,14.3055556 7.00909091,14.4722222 L7.33636364,14.9722222 L7.52727273,14.9722222 L7.71818182,14.9722222 L8.04545455,14.4722222 C8.12727273,14.3333333 8.34545455,14.3055556 8.45454545,14.4166667 L8.86363636,14.8333333 C8.97272727,14.8055556 9.10909091,14.7777778 9.21818182,14.75 L9.43636364,14.1944444 C9.49090909,14.0277778 9.68181818,13.9722222 9.81818182,14.0555556 L10.3090909,14.3888889 C10.4181818,14.3333333 10.5272727,14.2777778 10.6363636,14.2222222 L10.7181818,13.6388889 C10.7454545,13.4722222 10.9090909,13.3611111 11.0727273,13.4166667 L11.6181818,13.6388889 C11.7272727,13.5555556 11.8090909,13.5 11.9181818,13.4166667 L11.8909091,12.8333333 C11.8909091,12.6666667 12.0272727,12.5277778 12.1909091,12.5555556 L12.7636364,12.6388889 C12.8454545,12.5555556 12.9272727,12.4444444 13.0090909,12.3611111 L12.8454545,11.7777778 C12.7909091,11.6111111 12.9272727,11.4444444 13.0909091,11.4444444 L13.6909091,11.4166667 C13.7454545,11.3055556 13.8272727,11.1944444 13.8818182,11.0833333 L13.6090909,10.5555556 C13.5272727,10.3888889 13.6090909,10.2222222 13.7727273,10.1666667 L14.3454545,10.0277778 C14.4,9.91666667 14.4272727,9.77777778 14.4545455,9.66666667 L14.0727273,9.19444444 C13.9636364,9.05555556 14.0181818,8.86111111 14.1545455,8.77777778 L14.6727273,8.5 C14.7,8.36111111 14.7,8.25 14.7,8.11111111 L14.2363636,7.75 C14.1,7.63888889 14.1,7.44444444 14.2363636,7.33333333 L14.7,6.97222222 C14.7,6.83333333 14.6727273,6.72222222 14.6727273,6.58333333 L14.1545455,6.30555556 C13.9909091,6.22222222 13.9636364,6.02777778 14.0727273,5.88888889 L14.4545455,5.41666667 C14.4272727,5.30555556 14.3727273,5.16666667 14.3454545,5.05555556 L13.7727273,4.91666667 C13.6090909,4.86111111 13.5272727,4.69444444 13.6090909,4.52777778 L13.8818182,4 C13.8272727,3.88888889 13.7727273,3.77777778 13.6909091,3.66666667 L13.0909091,3.63888889 C12.9272727,3.63888889 12.7909091,3.47222222 12.8454545,3.30555556 L13.0090909,2.72222222 C12.9272727,2.63888889 12.8454545,2.52777778 12.7636364,2.44444444 L12.1909091,2.52777778 C12.0272727,2.55555556 11.8636364,2.41666667 11.8909091,2.25 L11.9181818,1.66666667 C11.8090909,1.58333333 11.7272727,1.52777778 11.6181818,1.44444444 L11.0727273,1.66666667 C10.9090909,1.72222222 10.7454545,1.63888889 10.7181818,1.44444444 L10.6636364,0.833333333 C10.5545455,0.777777778 10.4454545,0.722222222 10.3363636,0.666666667 L9.84545455,1 C9.70909091,1.08333333 9.51818182,1.02777778 9.46363636,0.861111111 L9.24545455,0.305555556 C9.13636364,0.277777778 9,0.25 8.89090909,0.222222222 L8.45454545,0.666666667 C8.34545455,0.777777778 8.12727273,0.777777778 8.04545455,0.611111111 L7.71818182,0.111111111 Z M12.9545455,7.5 C12.9545455,10.5277778 10.5272727,13 7.55454545,13 C4.58181818,13 2.12727273,10.5277778 2.12727273,7.5 C2.12727273,4.47222222 4.55454545,2 7.52727273,2 C10.5,2 12.9545455,4.47222222 12.9545455,7.5 Z" id="SVGID_1_" fill-rule="nonzero"></path>
                        <path d="M14.8909091,8.02777778 L14.8909091,8.08333333 C14.8909091,8.22222222 14.8636364,8.33333333 14.8636364,8.47222222 L14.8636364,8.52777778 L14.2909091,8.83333333 C14.2363636,8.86111111 14.2090909,8.88888889 14.2090909,8.94444444 C14.2090909,9 14.2090909,9.05555556 14.2363636,9.08333333 L14.6454545,9.58333333 L14.6181818,9.63888889 C14.5909091,9.75 14.5363636,9.88888889 14.5090909,10 L14.4818182,10.0555556 L13.8545455,10.2222222 C13.8,10.2222222 13.7727273,10.2777778 13.7454545,10.3055556 C13.7181818,10.3611111 13.7181818,10.4166667 13.7454545,10.4444444 L14.0454545,11.0277778 L14.0181818,11.0833333 C13.9636364,11.1944444 13.8818182,11.3055556 13.8272727,11.4166667 L13.8,11.4722222 L13.1727273,11.5 C13.1181818,11.5 13.0636364,11.5277778 13.0363636,11.5555556 C13.0090909,11.5833333 13.0090909,11.6388889 13.0090909,11.6944444 L13.1727273,12.3333333 L13.1454545,12.3611111 C13.0636364,12.4722222 12.9818182,12.5555556 12.9,12.6388889 L12.8727273,12.6666667 L12.2454545,12.5555556 C12.1909091,12.5555556 12.1363636,12.5555556 12.1090909,12.5833333 C12.0818182,12.6111111 12.0545455,12.6666667 12.0545455,12.7222222 L12.0818182,13.3611111 L12.0272727,13.3888889 C11.9181818,13.4722222 11.8363636,13.5555556 11.7272727,13.6111111 L11.6727273,13.6388889 L11.0727273,13.3888889 C11.0181818,13.3611111 10.9636364,13.3611111 10.9363636,13.3888889 C10.8818182,13.4166667 10.8545455,13.4444444 10.8545455,13.5 L10.7454545,14.1388889 L10.6909091,14.1666667 C10.5818182,14.2222222 10.4727273,14.2777778 10.3363636,14.3333333 L10.2818182,14.3611111 L9.73636364,14 C9.68181818,13.9722222 9.65454545,13.9722222 9.6,13.9722222 C9.54545455,14 9.51818182,14.0277778 9.49090909,14.0833333 L9.27272727,14.6944444 L9.21818182,14.6944444 C9.10909091,14.7222222 8.97272727,14.75 8.83636364,14.7777778 L8.78181818,14.7777778 L8.34545455,14.3055556 C8.31818182,14.2777778 8.26363636,14.25 8.20909091,14.25 C8.15454545,14.25 8.12727273,14.2777778 8.1,14.3333333 L7.74545455,14.8888889 L7.63636364,14.8888889 L7.5,14.8888889 L7.36363636,14.8888889 L7.25454545,14.8888889 L6.9,14.3333333 C6.87272727,14.2777778 6.81818182,14.25 6.79090909,14.25 C6.73636364,14.25 6.68181818,14.25 6.65454545,14.3055556 L6.21818182,14.7777778 L6.16363636,14.7777778 C6.02727273,14.75 5.91818182,14.7222222 5.78181818,14.6944444 L5.72727273,14.6944444 L5.50909091,14.0833333 C5.48181818,14.0277778 5.45454545,14 5.4,13.9722222 C5.34545455,13.9444444 5.29090909,13.9722222 5.26363636,14 L4.71818182,14.3611111 L4.66363636,14.3333333 C4.55454545,14.2777778 4.44545455,14.2222222 4.30909091,14.1666667 L4.25454545,14.1388889 L4.22727273,13.6111111 C4.22727273,13.5555556 4.2,13.5277778 4.14545455,13.5 C4.09090909,13.4722222 4.06363636,13.4722222 4.00909091,13.5 L3.40909091,13.75 L3.35454545,13.7222222 C3.24545455,13.6388889 3.13636364,13.5833333 3.05454545,13.5 L3,13.4722222 L3.02727273,12.8333333 C3.02727273,12.7777778 3,12.7222222 2.97272727,12.6944444 C2.94545455,12.6666667 2.89090909,12.6388889 2.83636364,12.6666667 L2.20909091,12.7777778 L2.18181818,12.75 C2.1,12.6666667 2.01818182,12.5555556 1.93636364,12.4722222 L1.90909091,12.3333333 L2.07272727,11.6944444 C2.07272727,11.6388889 2.07272727,11.5833333 2.04545455,11.5555556 C2.01818182,11.5277778 1.96363636,11.5 1.90909091,11.5 L1.28181818,11.4722222 L1.25454545,11.4166667 C1.2,11.3055556 1.11818182,11.1944444 1.06363636,11.0833333 L1.03636364,11.0277778 L1.33636364,10.4444444 C1.36363636,10.3888889 1.36363636,10.3333333 1.33636364,10.3055556 C1.30909091,10.25 1.28181818,10.2222222 1.22727273,10.2222222 L0.6,10.0555556 L0.6,10 C0.545454545,9.88888889 0.518181818,9.75 0.490909091,9.63888889 L0.463636364,9.58333333 L0.872727273,9.08333333 C0.9,9.05555556 0.927272727,9 0.9,8.94444444 C0.9,8.88888889 0.845454545,8.86111111 0.818181818,8.83333333 L0.245454545,8.52777778 L0.245454545,8.47222222 C0.218181818,8.33333333 0.218181818,8.22222222 0.218181818,8.08333333 L0.218181818,8.02777778 L0.709090909,7.61111111 C0.736363636,7.58333333 0.763636364,7.52777778 0.763636364,7.47222222 L0.763636364,7.47222222 C0.763636364,7.41666667 0.736363636,7.36111111 0.709090909,7.33333333 L0.218181818,6.91666667 L0.218181818,6.86111111 C0.218181818,6.72222222 0.245454545,6.61111111 0.245454545,6.47222222 L0.245454545,6.41666667 L0.818181818,6.11111111 C0.872727273,6.08333333 0.9,6.05555556 0.9,6 C0.9,5.94444444 0.9,5.88888889 0.872727273,5.86111111 L0.463636364,5.36111111 L0.490909091,5.30555556 C0.518181818,5.19444444 0.572727273,5.05555556 0.6,4.94444444 L0.627272727,4.88888889 L1.25454545,4.72222222 C1.30909091,4.72222222 1.33636364,4.66666667 1.36363636,4.63888889 C1.39090909,4.58333333 1.39090909,4.52777778 1.36363636,4.5 L1.06363636,3.91666667 L1.09090909,3.86111111 C1.14545455,3.75 1.22727273,3.63888889 1.28181818,3.52777778 L1.30909091,3.47222222 L1.93636364,3.44444444 C1.99090909,3.44444444 2.04545455,3.41666667 2.07272727,3.38888889 C2.1,3.36111111 2.1,3.30555556 2.1,3.25 L1.90909091,2.66666667 L1.93636364,2.63888889 C2.01818182,2.52777778 2.1,2.44444444 2.18181818,2.36111111 L2.20909091,2.33333333 L2.83636364,2.44444444 C2.89090909,2.44444444 2.94545455,2.44444444 2.97272727,2.41666667 C3,2.38888889 3.02727273,2.33333333 3.02727273,2.27777778 L3,1.63888889 L3.38181818,1.36111111 L3.98181818,1.61111111 C4.03636364,1.63888889 4.09090909,1.63888889 4.11818182,1.61111111 C4.17272727,1.58333333 4.2,1.55555556 4.2,1.5 L4.30909091,0.861111111 L4.36363636,0.833333333 C4.47272727,0.777777778 4.58181818,0.722222222 4.71818182,0.666666667 L4.77272727,0.638888889 L5.31818182,1 C5.37272727,1.02777778 5.4,1.02777778 5.45454545,1.02777778 C5.50909091,1 5.53636364,0.972222222 5.56363636,0.916666667 L5.78181818,0.305555556 L5.83636364,0.305555556 C5.94545455,0.277777778 6.08181818,0.25 6.21818182,0.222222222 L6.27272727,0.222222222 L6.70909091,0.694444444 C6.73636364,0.722222222 6.79090909,0.75 6.84545455,0.75 C6.9,0.75 6.92727273,0.722222222 6.95454545,0.666666667 L7.30909091,0.111111111 L7.41818182,0.111111111 L7.55454545,0.111111111 L7.69090909,0.111111111 L7.8,0.111111111 L8.15454545,0.666666667 C8.18181818,0.722222222 8.23636364,0.75 8.26363636,0.75 C8.31818182,0.75 8.37272727,0.75 8.4,0.694444444 L8.83636364,0.222222222 L8.89090909,0.222222222 C9.02727273,0.25 9.13636364,0.277777778 9.27272727,0.305555556 L9.32727273,0.305555556 L9.54545455,0.833333333 C9.57272727,0.888888889 9.6,0.916666667 9.65454545,0.944444444 C9.70909091,0.972222222 9.76363636,0.944444444 9.79090909,0.916666667 L10.3363636,0.555555556 L10.3909091,0.583333333 C10.5,0.638888889 10.6090909,0.694444444 10.7454545,0.75 L10.8,0.777777778 L10.9090909,1.41666667 C10.9090909,1.47222222 10.9363636,1.5 10.9909091,1.52777778 C11.0454545,1.55555556 11.0727273,1.55555556 11.1272727,1.52777778 L11.7272727,1.27777778 L11.7818182,1.30555556 C11.8909091,1.38888889 12,1.44444444 12.0818182,1.52777778 L12.1363636,1.55555556 L12.1090909,2.19444444 C12.1090909,2.25 12.1363636,2.30555556 12.1636364,2.33333333 C12.1909091,2.36111111 12.2454545,2.38888889 12.3,2.36111111 L12.9272727,2.25 L12.9545455,2.27777778 C13.0363636,2.36111111 13.1181818,2.47222222 13.2,2.55555556 L13.2272727,2.58333333 L13.0636364,3.22222222 C13.0636364,3.27777778 13.0636364,3.33333333 13.0909091,3.36111111 C13.1181818,3.38888889 13.1727273,3.41666667 13.2272727,3.41666667 L13.8545455,3.44444444 L13.8818182,3.5 C13.9363636,3.61111111 14.0181818,3.72222222 14.0727273,3.83333333 L14.1,3.88888889 L13.8,4.47222222 C13.7727273,4.52777778 13.7727273,4.58333333 13.8,4.61111111 C13.8272727,4.66666667 13.8545455,4.69444444 13.9090909,4.69444444 L14.5363636,4.86111111 L14.5636364,4.91666667 C14.6181818,5.02777778 14.6454545,5.16666667 14.6727273,5.27777778 L14.7,5.33333333 L14.2909091,5.83333333 C14.2636364,5.86111111 14.2363636,5.91666667 14.2636364,5.97222222 C14.2636364,6.02777778 14.3181818,6.05555556 14.3454545,6.08333333 L14.9181818,6.38888889 L14.9181818,6.44444444 C14.9454545,6.58333333 14.9454545,6.69444444 14.9454545,6.83333333 L14.9454545,6.88888889 L14.4545455,7.30555556 C14.4272727,7.33333333 14.4,7.38888889 14.4,7.44444444 L14.4,7.44444444 C14.4,7.5 14.4272727,7.55555556 14.4545455,7.58333333 L14.8909091,8.02777778 Z M14.1272727,7.5 L14.1272727,7.5 C14.1272727,7.38888889 14.1818182,7.27777778 14.2636364,7.22222222 L14.6727273,6.88888889 C14.6727273,6.80555556 14.6454545,6.72222222 14.6454545,6.61111111 L14.1818182,6.36111111 C14.0727273,6.30555556 14.0181818,6.22222222 13.9909091,6.11111111 C13.9636364,6 13.9909091,5.88888889 14.0727273,5.80555556 L14.4,5.38888889 C14.3727273,5.30555556 14.3454545,5.22222222 14.3181818,5.13888889 L13.8,5 C13.6909091,4.97222222 13.6090909,4.88888889 13.5545455,4.80555556 C13.5,4.69444444 13.5,4.58333333 13.5545455,4.47222222 L13.8,4 C13.7454545,3.91666667 13.7181818,3.83333333 13.6636364,3.77777778 L13.1181818,3.75 C13.0090909,3.75 12.9,3.69444444 12.8454545,3.61111111 C12.7909091,3.52777778 12.7636364,3.41666667 12.7909091,3.30555556 L12.9272727,2.77777778 C12.8727273,2.72222222 12.8181818,2.63888889 12.7636364,2.58333333 L12.2454545,2.66666667 C12.1363636,2.69444444 12.0272727,2.63888889 11.9454545,2.58333333 C11.8636364,2.5 11.8090909,2.38888889 11.8363636,2.27777778 L11.8636364,1.75 C11.7818182,1.69444444 11.7272727,1.63888889 11.6454545,1.58333333 L11.1545455,1.77777778 C11.0454545,1.80555556 10.9363636,1.80555556 10.8272727,1.75 C10.7181818,1.69444444 10.6636364,1.58333333 10.6363636,1.47222222 L10.5545455,0.944444444 C10.4727273,0.916666667 10.3909091,0.861111111 10.3090909,0.833333333 L9.87272727,1.13888889 C9.79090909,1.19444444 9.65454545,1.22222222 9.57272727,1.19444444 C9.46363636,1.16666667 9.38181818,1.08333333 9.35454545,0.972222222 L9.16363636,0.472222222 C9.08181818,0.444444444 9,0.444444444 8.91818182,0.416666667 L8.53636364,0.805555556 C8.45454545,0.805555556 8.34545455,0.833333333 8.23636364,0.833333333 C8.12727273,0.833333333 8.01818182,0.75 7.96363636,0.666666667 L7.66363636,0.222222222 L7.55454545,0.222222222 L7.44545455,0.222222222 L7.44545455,0.222222222 L7.14545455,0.666666667 C7.09090909,0.75 6.98181818,0.833333333 6.87272727,0.833333333 C6.76363636,0.833333333 6.65454545,0.805555556 6.57272727,0.722222222 L6.19090909,0.333333333 C6.10909091,0.361111111 6.02727273,0.361111111 5.94545455,0.388888889 L5.72727273,0.916666667 C5.7,1.02777778 5.61818182,1.11111111 5.50909091,1.13888889 C5.4,1.16666667 5.29090909,1.16666667 5.20909091,1.08333333 L4.77272727,0.777777778 C4.69090909,0.805555556 4.60909091,0.861111111 4.52727273,0.888888889 L4.44545455,1.41666667 C4.41818182,1.52777778 4.36363636,1.63888889 4.25454545,1.69444444 C4.14545455,1.75 4.03636364,1.75 3.92727273,1.72222222 L3.43636364,1.52777778 L3.21818182,1.69444444 L3.24545455,2.22222222 C3.24545455,2.33333333 3.21818182,2.44444444 3.13636364,2.52777778 C3.05454545,2.61111111 2.94545455,2.63888889 2.83636364,2.61111111 L2.31818182,2.52777778 C2.26363636,2.58333333 2.20909091,2.66666667 2.15454545,2.72222222 L2.29090909,3.25 C2.31818182,3.36111111 2.29090909,3.47222222 2.23636364,3.55555556 C2.18181818,3.63888889 2.07272727,3.69444444 1.96363636,3.72222222 L1.41818182,3.75 C1.36363636,3.83333333 1.33636364,3.88888889 1.28181818,3.97222222 L1.52727273,4.44444444 C1.58181818,4.55555556 1.58181818,4.66666667 1.52727273,4.77777778 C1.47272727,4.88888889 1.39090909,4.94444444 1.28181818,4.97222222 L0.763636364,5.11111111 C0.736363636,5.19444444 0.709090909,5.27777778 0.681818182,5.36111111 L1.00909091,5.77777778 C1.09090909,5.86111111 1.11818182,5.97222222 1.09090909,6.08333333 C1.06363636,6.19444444 1.00909091,6.27777778 0.9,6.33333333 L0.436363636,6.58333333 C0.436363636,6.66666667 0.409090909,6.75 0.409090909,6.86111111 L0.818181818,7.22222222 C0.9,7.30555556 0.954545455,7.38888889 0.954545455,7.5 L0.954545455,7.5 C0.954545455,7.61111111 0.9,7.72222222 0.818181818,7.77777778 L0.409090909,8.11111111 C0.409090909,8.19444444 0.436363636,8.27777778 0.436363636,8.38888889 L0.9,8.63888889 C1.00909091,8.69444444 1.06363636,8.77777778 1.09090909,8.88888889 C1.11818182,9 1.09090909,9.11111111 1.00909091,9.19444444 L0.681818182,9.61111111 C0.709090909,9.69444444 0.736363636,9.77777778 0.763636364,9.86111111 L1.28181818,10 C1.39090909,10.0277778 1.47272727,10.1111111 1.52727273,10.2222222 C1.58181818,10.3333333 1.58181818,10.4444444 1.52727273,10.5555556 L1.28181818,11.0277778 C1.33636364,11.1111111 1.36363636,11.1944444 1.41818182,11.25 L1.96363636,11.2777778 C2.07272727,11.2777778 2.18181818,11.3333333 2.23636364,11.4444444 C2.29090909,11.5277778 2.31818182,11.6388889 2.29090909,11.75 L2.15454545,12.2777778 C2.20909091,12.3333333 2.26363636,12.4166667 2.31818182,12.4722222 L2.83636364,12.3888889 C2.94545455,12.3611111 3.05454545,12.4166667 3.13636364,12.4722222 C3.21818182,12.5555556 3.27272727,12.6666667 3.24545455,12.7777778 L3.21818182,13.3333333 C3.3,13.3888889 3.35454545,13.4444444 3.43636364,13.5 L3.92727273,13.3055556 C4.03636364,13.2777778 4.14545455,13.2777778 4.25454545,13.3333333 C4.36363636,13.3888889 4.41818182,13.5 4.44545455,13.6111111 L4.52727273,14.1388889 C4.60909091,14.1666667 4.69090909,14.2222222 4.77272727,14.25 L5.20909091,13.9444444 C5.29090909,13.8888889 5.42727273,13.8611111 5.53636364,13.8888889 C5.64545455,13.9166667 5.72727273,14 5.75454545,14.1111111 L5.94545455,14.6111111 C6.02727273,14.6388889 6.10909091,14.6388889 6.19090909,14.6666667 L6.57272727,14.2777778 C6.65454545,14.1944444 6.76363636,14.1666667 6.87272727,14.1666667 C6.98181818,14.1666667 7.09090909,14.25 7.14545455,14.3333333 L7.44545455,14.7777778 L7.55454545,14.7777778 L7.66363636,14.7777778 L7.66363636,14.7777778 L7.96363636,14.3333333 C8.01818182,14.25 8.12727273,14.1666667 8.23636364,14.1666667 C8.34545455,14.1666667 8.45454545,14.1944444 8.53636364,14.2777778 L8.91818182,14.6666667 C9,14.6388889 9.08181818,14.6388889 9.16363636,14.6111111 L9.35454545,14.1111111 C9.38181818,14 9.46363636,13.9166667 9.57272727,13.8888889 C9.68181818,13.8611111 9.79090909,13.8611111 9.9,13.9444444 L10.3363636,14.25 C10.4181818,14.2222222 10.5,14.1666667 10.5818182,14.1388889 L10.6636364,13.6111111 C10.6909091,13.5 10.7454545,13.3888889 10.8545455,13.3333333 C10.9636364,13.2777778 11.0727273,13.2777778 11.1818182,13.3055556 L11.6727273,13.5 C11.7545455,13.4444444 11.8090909,13.3888889 11.8909091,13.3333333 L11.8636364,12.8055556 C11.8636364,12.6944444 11.8909091,12.5833333 11.9727273,12.5 C12.0545455,12.4166667 12.1636364,12.3888889 12.2727273,12.4166667 L12.7909091,12.5 C12.8454545,12.4444444 12.9,12.3611111 12.9545455,12.3055556 L12.8181818,11.7777778 C12.7909091,11.6666667 12.8181818,11.5555556 12.8727273,11.4722222 C12.9272727,11.3888889 13.0363636,11.3333333 13.1454545,11.3333333 L13.6909091,11.3055556 C13.7454545,11.2222222 13.7727273,11.1666667 13.8272727,11.0833333 L13.5818182,10.6111111 C13.5272727,10.5 13.5272727,10.3888889 13.5818182,10.2777778 C13.6363636,10.1666667 13.7181818,10.1111111 13.8272727,10.0555556 L14.3454545,9.91666667 C14.3727273,9.83333333 14.4,9.75 14.4272727,9.66666667 L14.1,9.25 C14.0181818,9.16666667 13.9909091,9.05555556 14.0181818,8.94444444 C14.0454545,8.83333333 14.1,8.75 14.2090909,8.69444444 L14.6727273,8.44444444 C14.6727273,8.36111111 14.7,8.27777778 14.7,8.16666667 L14.2909091,7.83333333 C14.1818182,7.72222222 14.1272727,7.61111111 14.1272727,7.5 Z M13.0363636,7.5 C13.0363636,10.5833333 10.5545455,13.1111111 7.52727273,13.1111111 C4.5,13.1111111 2.01818182,10.5833333 2.01818182,7.5 C2.01818182,4.41666667 4.5,1.88888889 7.52727273,1.88888889 C10.5818182,1.88888889 13.0363636,4.41666667 13.0363636,7.5 Z M2.23636364,7.5 C2.23636364,10.4722222 4.60909091,12.8888889 7.52727273,12.8888889 C10.4454545,12.8888889 12.8454545,10.4722222 12.8454545,7.5 C12.8454545,4.52777778 10.4727273,2.11111111 7.52727273,2.11111111 C4.60909091,2.11111111 2.23636364,4.52777778 2.23636364,7.5 Z" id="Shape" fill-rule="nonzero"></path>
                    </g>
                </g>
            </g>
        </g>
    </g>
</svg>