<?xml version="1.0" encoding="UTF-8" standalone="no"?>
<svg width="33px" height="32px" viewBox="0 0 33 32" version="1.1" xmlns="http://www.w3.org/2000/svg" xmlns:xlink="http://www.w3.org/1999/xlink">
    <!-- Generator: Sketch 43.1 (39012) - http://www.bohemiancoding.com/sketch -->
    <title>icon-coproc-white</title>
    <desc>Created with Sketch.</desc>
    <defs></defs>
    <g id="coproc-light" stroke="none" stroke-width="1" fill="none" fill-rule="evenodd" opacity="0.23">
        <g id="Coproc-Icons-Light" transform="translate(-167.000000, -14.000000)" fill="#5D5D5D">
            <g id="icon-coproc-white" transform="translate(167.000000, 14.000000)">
                <g id="croproc-Icn-light" transform="translate(0.290412, 0.027689)">
                    <g id="croprocIcn-light">
                        <path d="M15.5345455,21.8074074 L14.9527273,21.8074074 C14.2545455,21.8074074 13.6727273,21.8074074 13.1490909,21.7481481 C12.6254545,21.6888889 12.2181818,21.6296296 11.8109091,21.5111111 C11.4618182,21.3925926 11.1127273,21.2740741 10.88,21.0962963 C10.6472727,20.9185185 10.4727273,20.7407407 10.2981818,20.5037037 C10.1236364,20.2666667 10.0654545,20.0296296 10.0072727,19.7333333 C9.94909091,19.437037 9.94909091,19.1407407 9.94909091,18.7851852 L11.2872727,18.7851852 C11.2872727,19.2 11.3454545,19.5555556 11.4618182,19.7925926 C11.5781818,20.0296296 11.8109091,20.2074074 12.0436364,20.3259259 C12.3345455,20.4444444 12.6836364,20.5037037 13.1490909,20.562963 C13.6145455,20.6222222 14.1963636,20.6222222 14.8363636,20.6222222 L15.4181818,20.6222222 L15.4181818,16.4148148 L15.3018182,16.4148148 C14.4872727,16.4148148 13.7309091,16.3555556 13.1490909,16.2962963 C12.5672727,16.237037 12.0436364,16.1185185 11.6363636,16 C11.2290909,15.8814815 10.9381818,15.762963 10.6472727,15.5851852 C10.3563636,15.4074074 10.24,15.2296296 10.1236364,14.9925926 C10.0072727,14.7555556 9.89090909,14.5185185 9.89090909,14.2222222 C9.83272727,13.9259259 9.83272727,13.6296296 9.83272727,13.3333333 C9.83272727,12.9777778 9.89090909,12.6814815 9.94909091,12.3851852 C10.0072727,12.0888889 10.1236364,11.8518519 10.2981818,11.6148148 C10.4727273,11.3777778 10.7054545,11.2 10.9381818,10.962963 C11.2290909,10.7851852 11.5781818,10.6074074 11.9854545,10.4888889 C12.4509091,10.3703704 12.9745455,10.2518519 13.5563636,10.1925926 C14.08,10.1333333 14.72,10.1333333 15.4181818,10.0740741 L15.4181818,9.36296296 L16.8727273,9.36296296 L16.8727273,10.0740741 L17.2218182,10.0740741 C17.92,10.0740741 18.5018182,10.0740741 19.0254545,10.1333333 C19.5490909,10.1925926 19.9563636,10.2518519 20.3636364,10.3703704 C20.7127273,10.4888889 21.0618182,10.6074074 21.2945455,10.7851852 C21.5272727,10.962963 21.76,11.1407407 21.8763636,11.3777778 C21.9927273,11.6148148 22.1090909,11.8518519 22.1672727,12.1481481 C22.2254545,12.4444444 22.2254545,12.7407407 22.2254545,13.0962963 L20.8872727,13.0962963 C20.8872727,12.6814815 20.8290909,12.3259259 20.7127273,12.0888889 C20.5963636,11.8518519 20.3636364,11.6740741 20.1309091,11.5555556 C19.84,11.437037 19.4909091,11.3777778 19.0254545,11.3185185 C18.56,11.2592593 17.9781818,11.2592593 17.3381818,11.2592593 L16.8727273,11.2592593 L16.8727273,15.1703704 L17.28,15.1703704 C18.0363636,15.1703704 18.6763636,15.2296296 19.2,15.2888889 C19.7236364,15.3481481 20.1890909,15.4666667 20.5381818,15.5851852 C20.8872727,15.7037037 21.1781818,15.8814815 21.4109091,16.0592593 C21.6436364,16.237037 21.8181818,16.4740741 21.9345455,16.7111111 C22.0509091,16.9481481 22.1090909,17.1851852 22.1672727,17.4814815 C22.2254545,17.7777778 22.2254545,18.0740741 22.2254545,18.4296296 C22.2254545,18.7851852 22.1672727,19.0814815 22.1090909,19.3777778 C22.0509091,19.6740741 21.9345455,19.9703704 21.8181818,20.2074074 C21.6436364,20.4444444 21.4690909,20.6814815 21.1781818,20.8592593 C20.9454545,21.037037 20.5963636,21.2148148 20.1890909,21.3333333 C19.7818182,21.4518519 19.3163636,21.5703704 18.7345455,21.6296296 C18.2109091,21.6888889 17.5709091,21.7481481 16.8727273,21.7481481 L16.8727273,22.4592593 L15.5345455,22.4592593 L15.5345455,21.8074074 Z M15.5345455,15.2888889 L15.5345455,11.3777778 C14.7781818,11.3777778 14.1381818,11.437037 13.6145455,11.4962963 C13.0327273,11.5555556 12.5672727,11.6740741 12.2181818,11.7925926 C11.8690909,11.9703704 11.6363636,12.1481481 11.52,12.3851852 C11.4036364,12.6222222 11.3454545,12.9777778 11.3454545,13.3333333 C11.3454545,13.5703704 11.3454545,13.8074074 11.4036364,13.9851852 C11.4618182,14.162963 11.52,14.3407407 11.5781818,14.4592593 C11.6945455,14.5777778 11.8109091,14.6962963 11.9854545,14.8148148 C12.16,14.9333333 12.3927273,14.9925926 12.7418182,15.0518519 C13.0327273,15.1111111 13.44,15.1703704 13.8472727,15.1703704 C14.3127273,15.1703704 14.7781818,15.2296296 15.4181818,15.2296296 L15.5345455,15.2296296 L15.5345455,15.2888889 Z M16.8727273,16.4740741 L16.8727273,20.6814815 C17.6290909,20.6814815 18.2109091,20.6222222 18.7345455,20.562963 C19.2581818,20.5037037 19.6654545,20.3851852 20.0145455,20.2074074 C20.3054545,20.0296296 20.5381818,19.7925926 20.6545455,19.5555556 C20.7709091,19.2592593 20.8290909,18.962963 20.8290909,18.5481481 C20.8290909,18.1333333 20.7709091,17.837037 20.7127273,17.5407407 C20.5963636,17.3037037 20.48,17.0666667 20.1890909,16.8888889 C19.9563636,16.7111111 19.5490909,16.6518519 19.0836364,16.5333333 C18.6181818,16.4740741 17.9781818,16.4148148 17.2218182,16.4148148 L16.8727273,16.4148148 L16.8727273,16.4740741 Z" id="Shape" fill-rule="nonzero"></path>
                        <path d="M16.4654545,0.237037037 L16.0581818,0.237037037 L15.6509091,0.237037037 L14.9527273,1.3037037 C14.7781818,1.6 14.3127273,1.65925926 14.08,1.42222222 L13.2072727,0.533333333 C12.9745455,0.592592593 12.6836364,0.651851852 12.4509091,0.711111111 L11.9854545,1.8962963 C11.8690909,2.25185185 11.4618182,2.37037037 11.1709091,2.19259259 L10.1236364,1.48148148 C9.89090909,1.6 9.65818182,1.71851852 9.42545455,1.83703704 L9.25090909,3.08148148 C9.19272727,3.43703704 8.84363636,3.67407407 8.49454545,3.55555556 L7.33090909,3.08148148 L6.69090909,3.55555556 L6.74909091,4.8 C6.74909091,5.15555556 6.45818182,5.45185185 6.10909091,5.39259259 L4.88727273,5.21481481 C4.71272727,5.39259259 4.53818182,5.62962963 4.36363636,5.80740741 L4.71272727,7.05185185 C4.82909091,7.40740741 4.53818182,7.76296296 4.18909091,7.76296296 L2.90909091,7.82222222 C2.79272727,8.05925926 2.61818182,8.2962963 2.50181818,8.53333333 L3.08363636,9.65925926 C3.25818182,10.0148148 3.08363636,10.3703704 2.73454545,10.4888889 L1.51272727,10.7851852 C1.39636364,11.0222222 1.33818182,11.3185185 1.28,11.5555556 L2.09454545,12.562963 C2.32727273,12.8592593 2.21090909,13.2740741 1.92,13.4518519 L0.814545455,14.0444444 C0.756363636,14.3407407 0.756363636,14.5777778 0.756363636,14.8740741 L1.74545455,15.6444444 C2.03636364,15.8814815 2.03636364,16.2962963 1.74545455,16.5333333 L0.756363636,17.3037037 C0.756363636,17.6 0.814545455,17.837037 0.814545455,18.1333333 L1.92,18.7259259 C2.26909091,18.9037037 2.32727273,19.3185185 2.09454545,19.6148148 L1.28,20.6222222 C1.33818182,20.8592593 1.45454545,21.1555556 1.51272727,21.3925926 L2.73454545,21.6888889 C3.08363636,21.8074074 3.25818182,22.162963 3.08363636,22.5185185 L2.50181818,23.6444444 C2.61818182,23.8814815 2.73454545,24.1185185 2.90909091,24.3555556 L4.18909091,24.4148148 C4.53818182,24.4148148 4.82909091,24.7703704 4.71272727,25.1259259 L4.36363636,26.3703704 C4.53818182,26.5481481 4.71272727,26.7851852 4.88727273,26.962963 L6.10909091,26.7851852 C6.45818182,26.7259259 6.80727273,27.0222222 6.74909091,27.3777778 L6.69090909,28.6222222 C6.92363636,28.8 7.09818182,28.9185185 7.33090909,29.0962963 L8.49454545,28.6222222 C8.84363636,28.5037037 9.19272727,28.6814815 9.25090909,29.0962963 L9.42545455,30.3407407 C9.65818182,30.4592593 9.89090909,30.5777778 10.1236364,30.6962963 L11.1709091,29.9851852 C11.4618182,29.8074074 11.8690909,29.9259259 11.9854545,30.2814815 L12.4509091,31.4666667 C12.6836364,31.5259259 12.9745455,31.5851852 13.2072727,31.6444444 L14.08,30.7555556 C14.3127273,30.5185185 14.7781818,30.5185185 14.9527273,30.8740741 L15.6509091,31.9407407 L16.0581818,31.9407407 L16.4654545,31.9407407 L17.1636364,30.8740741 C17.3381818,30.5777778 17.8036364,30.5185185 18.0363636,30.7555556 L18.9090909,31.6444444 C19.1418182,31.5851852 19.4327273,31.5259259 19.6654545,31.4666667 L20.1309091,30.2814815 C20.2472727,29.9259259 20.6545455,29.8074074 20.9454545,29.9851852 L21.9927273,30.6962963 C22.2254545,30.5777778 22.4581818,30.4592593 22.6909091,30.3407407 L22.8654545,29.0962963 C22.9236364,28.7407407 23.2727273,28.5037037 23.6218182,28.6222222 L24.7854545,29.0962963 C25.0181818,28.9185185 25.1927273,28.8 25.4254545,28.6222222 L25.3672727,27.3777778 C25.3672727,27.0222222 25.6581818,26.7259259 26.0072727,26.7851852 L27.2290909,26.962963 C27.4036364,26.7851852 27.5781818,26.5481481 27.7527273,26.3703704 L27.4036364,25.1259259 C27.2872727,24.7703704 27.5781818,24.4148148 27.9272727,24.4148148 L29.2072727,24.3555556 C29.3236364,24.1185185 29.4981818,23.8814815 29.6145455,23.6444444 L29.0327273,22.5185185 C28.8581818,22.162963 29.0327273,21.8074074 29.3818182,21.6888889 L30.6036364,21.3925926 C30.72,21.1555556 30.7781818,20.8592593 30.8363636,20.6222222 L30.0218182,19.6148148 C29.7890909,19.3185185 29.9054545,18.9037037 30.1963636,18.7259259 L31.3018182,18.1333333 C31.36,17.837037 31.36,17.6 31.36,17.3037037 L30.3709091,16.5333333 C30.08,16.2962963 30.08,15.8814815 30.3709091,15.6444444 L31.36,14.8740741 C31.36,14.5777778 31.3018182,14.3407407 31.3018182,14.0444444 L30.1963636,13.4518519 C29.8472727,13.2740741 29.7890909,12.8592593 30.0218182,12.562963 L30.8363636,11.5555556 C30.7781818,11.3185185 30.6618182,11.0222222 30.6036364,10.7851852 L29.3818182,10.4888889 C29.0327273,10.3703704 28.8581818,10.0148148 29.0327273,9.65925926 L29.6145455,8.53333333 C29.4981818,8.2962963 29.3818182,8.05925926 29.2072727,7.82222222 L27.9272727,7.76296296 C27.5781818,7.76296296 27.2872727,7.40740741 27.4036364,7.05185185 L27.7527273,5.80740741 C27.5781818,5.62962963 27.4036364,5.39259259 27.2290909,5.21481481 L26.0072727,5.39259259 C25.6581818,5.45185185 25.3090909,5.15555556 25.3672727,4.8 L25.4254545,3.55555556 C25.1927273,3.37777778 25.0181818,3.25925926 24.7854545,3.08148148 L23.6218182,3.55555556 C23.2727273,3.67407407 22.9236364,3.4962963 22.8654545,3.08148148 L22.7490909,1.77777778 C22.5163636,1.65925926 22.2836364,1.54074074 22.0509091,1.42222222 L21.0036364,2.13333333 C20.7127273,2.31111111 20.3054545,2.19259259 20.1890909,1.83703704 L19.7236364,0.651851852 C19.4909091,0.592592593 19.2,0.533333333 18.9672727,0.474074074 L18.0363636,1.42222222 C17.8036364,1.65925926 17.3381818,1.65925926 17.1636364,1.3037037 L16.4654545,0.237037037 Z M27.6363636,16 C27.6363636,22.4592593 22.4581818,27.7333333 16.1163636,27.7333333 C9.77454545,27.7333333 4.53818182,22.4592593 4.53818182,16 C4.53818182,9.54074074 9.71636364,4.26666667 16.0581818,4.26666667 C22.4,4.26666667 27.6363636,9.54074074 27.6363636,16 Z" id="SVGID_1_" fill-rule="nonzero"></path>
                        <path d="M31.7672727,17.1259259 L31.7672727,17.2444444 C31.7672727,17.5407407 31.7090909,17.7777778 31.7090909,18.0740741 L31.7090909,18.1925926 L30.4872727,18.8444444 C30.3709091,18.9037037 30.3127273,18.962963 30.3127273,19.0814815 C30.3127273,19.2 30.3127273,19.3185185 30.3709091,19.3777778 L31.2436364,20.4444444 L31.1854545,20.562963 C31.1272727,20.8 31.0109091,21.0962963 30.9527273,21.3333333 L30.8945455,21.4518519 L29.5563636,21.8074074 C29.44,21.8074074 29.3818182,21.9259259 29.3236364,21.9851852 C29.2654545,22.1037037 29.2654545,22.2222222 29.3236364,22.2814815 L29.9636364,23.5259259 L29.9054545,23.6444444 C29.7890909,23.8814815 29.6145455,24.1185185 29.4981818,24.3555556 L29.44,24.4740741 L28.1018182,24.5333333 C27.9854545,24.5333333 27.8690909,24.5925926 27.8109091,24.6518519 C27.7527273,24.7111111 27.7527273,24.8296296 27.7527273,24.9481481 L28.1018182,26.3111111 L28.0436364,26.3703704 C27.8690909,26.6074074 27.6945455,26.7851852 27.52,26.962963 L27.4618182,27.0222222 L26.1236364,26.7851852 C26.0072727,26.7851852 25.8909091,26.7851852 25.8327273,26.8444444 C25.7745455,26.9037037 25.7163636,27.0222222 25.7163636,27.1407407 L25.7745455,28.5037037 L25.6581818,28.562963 C25.4254545,28.7407407 25.2509091,28.9185185 25.0181818,29.037037 L24.9018182,29.0962963 L23.6218182,28.562963 C23.5054545,28.5037037 23.3890909,28.5037037 23.3309091,28.562963 C23.2145455,28.6222222 23.1563636,28.6814815 23.1563636,28.8 L22.9236364,30.162963 L22.8072727,30.2222222 C22.5745455,30.3407407 22.3418182,30.4592593 22.0509091,30.5777778 L21.9345455,30.637037 L20.7709091,29.8666667 C20.6545455,29.8074074 20.5963636,29.8074074 20.48,29.8074074 C20.3636364,29.8666667 20.3054545,29.9259259 20.2472727,30.0444444 L19.7818182,31.3481481 L19.6654545,31.3481481 C19.4327273,31.4074074 19.1418182,31.4666667 18.8509091,31.5259259 L18.7345455,31.5259259 L17.8036364,30.5185185 C17.7454545,30.4592593 17.6290909,30.4 17.5127273,30.4 C17.3963636,30.4 17.3381818,30.4592593 17.28,30.5777778 L16.5236364,31.762963 L16.2909091,31.762963 L16,31.762963 L15.7090909,31.762963 L15.4763636,31.762963 L14.72,30.5777778 C14.6618182,30.4592593 14.5454545,30.4 14.4872727,30.4 C14.3709091,30.4 14.2545455,30.4 14.1963636,30.5185185 L13.2654545,31.5259259 L13.1490909,31.5259259 C12.8581818,31.4666667 12.6254545,31.4074074 12.3345455,31.3481481 L12.2181818,31.3481481 L11.7527273,30.0444444 C11.6945455,29.9259259 11.6363636,29.8666667 11.52,29.8074074 C11.4036364,29.7481481 11.2872727,29.8074074 11.2290909,29.8666667 L10.0654545,30.637037 L9.94909091,30.5777778 C9.71636364,30.4592593 9.48363636,30.3407407 9.19272727,30.2222222 L9.07636364,30.162963 L9.01818182,29.037037 C9.01818182,28.9185185 8.96,28.8592593 8.84363636,28.8 C8.72727273,28.7407407 8.66909091,28.7407407 8.55272727,28.8 L7.27272727,29.3333333 L7.15636364,29.2740741 C6.92363636,29.0962963 6.69090909,28.9777778 6.51636364,28.8 L6.4,28.7407407 L6.45818182,27.3777778 C6.45818182,27.2592593 6.4,27.1407407 6.34181818,27.0814815 C6.28363636,27.0222222 6.16727273,26.962963 6.05090909,27.0222222 L4.71272727,27.2592593 L4.65454545,27.2 C4.48,27.0222222 4.30545455,26.7851852 4.13090909,26.6074074 L4.07272727,26.3111111 L4.42181818,24.9481481 C4.42181818,24.8296296 4.42181818,24.7111111 4.36363636,24.6518519 C4.30545455,24.5925926 4.18909091,24.5333333 4.07272727,24.5333333 L2.73454545,24.4740741 L2.67636364,24.3555556 C2.56,24.1185185 2.38545455,23.8814815 2.26909091,23.6444444 L2.21090909,23.5259259 L2.85090909,22.2814815 C2.90909091,22.162963 2.90909091,22.0444444 2.85090909,21.9851852 C2.79272727,21.8666667 2.73454545,21.8074074 2.61818182,21.8074074 L1.28,21.4518519 L1.28,21.3333333 C1.16363636,21.0962963 1.10545455,20.8 1.04727273,20.562963 L0.989090909,20.4444444 L1.86181818,19.3777778 C1.92,19.3185185 1.97818182,19.2 1.92,19.0814815 C1.92,18.962963 1.80363636,18.9037037 1.74545455,18.8444444 L0.523636364,18.1925926 L0.523636364,18.0740741 C0.465454545,17.7777778 0.465454545,17.5407407 0.465454545,17.2444444 L0.465454545,17.1259259 L1.51272727,16.237037 C1.57090909,16.1777778 1.62909091,16.0592593 1.62909091,15.9407407 L1.62909091,15.9407407 C1.62909091,15.8222222 1.57090909,15.7037037 1.51272727,15.6444444 L0.465454545,14.7555556 L0.465454545,14.637037 C0.465454545,14.3407407 0.523636364,14.1037037 0.523636364,13.8074074 L0.523636364,13.6888889 L1.74545455,13.037037 C1.86181818,12.9777778 1.92,12.9185185 1.92,12.8 C1.92,12.6814815 1.92,12.562963 1.86181818,12.5037037 L0.989090909,11.437037 L1.04727273,11.3185185 C1.10545455,11.0814815 1.22181818,10.7851852 1.28,10.5481481 L1.33818182,10.4296296 L2.67636364,10.0740741 C2.79272727,10.0740741 2.85090909,9.95555556 2.90909091,9.8962963 C2.96727273,9.77777778 2.96727273,9.65925926 2.90909091,9.6 L2.26909091,8.35555556 L2.32727273,8.23703704 C2.44363636,8 2.61818182,7.76296296 2.73454545,7.52592593 L2.79272727,7.40740741 L4.13090909,7.34814815 C4.24727273,7.34814815 4.36363636,7.28888889 4.42181818,7.22962963 C4.48,7.17037037 4.48,7.05185185 4.48,6.93333333 L4.07272727,5.68888889 L4.13090909,5.62962963 C4.30545455,5.39259259 4.48,5.21481481 4.65454545,5.03703704 L4.71272727,4.97777778 L6.05090909,5.21481481 C6.16727273,5.21481481 6.28363636,5.21481481 6.34181818,5.15555556 C6.4,5.0962963 6.45818182,4.97777778 6.45818182,4.85925926 L6.4,3.4962963 L7.21454545,2.9037037 L8.49454545,3.43703704 C8.61090909,3.4962963 8.72727273,3.4962963 8.78545455,3.43703704 C8.90181818,3.37777778 8.96,3.31851852 8.96,3.2 L9.19272727,1.83703704 L9.30909091,1.77777778 C9.54181818,1.65925926 9.77454545,1.54074074 10.0654545,1.42222222 L10.1818182,1.36296296 L11.3454545,2.13333333 C11.4618182,2.19259259 11.52,2.19259259 11.6363636,2.19259259 C11.7527273,2.13333333 11.8109091,2.07407407 11.8690909,1.95555556 L12.3345455,0.651851852 L12.4509091,0.651851852 C12.6836364,0.592592593 12.9745455,0.533333333 13.2654545,0.474074074 L13.3818182,0.474074074 L14.3127273,1.48148148 C14.3709091,1.54074074 14.4872727,1.6 14.6036364,1.6 C14.72,1.6 14.7781818,1.54074074 14.8363636,1.42222222 L15.5927273,0.237037037 L15.8254545,0.237037037 L16.1163636,0.237037037 L16.4072727,0.237037037 L16.64,0.237037037 L17.3963636,1.42222222 C17.4545455,1.54074074 17.5709091,1.6 17.6290909,1.6 C17.7454545,1.6 17.8618182,1.6 17.92,1.48148148 L18.8509091,0.474074074 L18.9672727,0.474074074 C19.2581818,0.533333333 19.4909091,0.592592593 19.7818182,0.651851852 L19.8981818,0.651851852 L20.3636364,1.77777778 C20.4218182,1.8962963 20.48,1.95555556 20.5963636,2.01481481 C20.7127273,2.07407407 20.8290909,2.01481481 20.8872727,1.95555556 L22.0509091,1.18518519 L22.1672727,1.24444444 C22.4,1.36296296 22.6327273,1.48148148 22.9236364,1.6 L23.04,1.65925926 L23.2727273,3.02222222 C23.2727273,3.14074074 23.3309091,3.2 23.4472727,3.25925926 C23.5636364,3.31851852 23.6218182,3.31851852 23.7381818,3.25925926 L25.0181818,2.72592593 L25.1345455,2.78518519 C25.3672727,2.96296296 25.6,3.08148148 25.7745455,3.25925926 L25.8909091,3.31851852 L25.8327273,4.68148148 C25.8327273,4.8 25.8909091,4.91851852 25.9490909,4.97777778 C26.0072727,5.03703704 26.1236364,5.0962963 26.24,5.03703704 L27.5781818,4.8 L27.6363636,4.85925926 C27.8109091,5.03703704 27.9854545,5.27407407 28.16,5.45185185 L28.2181818,5.51111111 L27.8690909,6.87407407 C27.8690909,6.99259259 27.8690909,7.11111111 27.9272727,7.17037037 C27.9854545,7.22962963 28.1018182,7.28888889 28.2181818,7.28888889 L29.5563636,7.34814815 L29.6145455,7.46666667 C29.7309091,7.7037037 29.9054545,7.94074074 30.0218182,8.17777778 L30.08,8.2962963 L29.44,9.54074074 C29.3818182,9.65925926 29.3818182,9.77777778 29.44,9.83703704 C29.4981818,9.95555556 29.5563636,10.0148148 29.6727273,10.0148148 L31.0109091,10.3703704 L31.0690909,10.4888889 C31.1854545,10.7259259 31.2436364,11.0222222 31.3018182,11.2592593 L31.36,11.3777778 L30.4872727,12.4444444 C30.4290909,12.5037037 30.3709091,12.6222222 30.4290909,12.7407407 C30.4290909,12.8592593 30.5454545,12.9185185 30.6036364,12.9777778 L31.8254545,13.6296296 L31.8254545,13.7481481 C31.8836364,14.0444444 31.8836364,14.2814815 31.8836364,14.5777778 L31.8836364,14.6962963 L30.8363636,15.5851852 C30.7781818,15.6444444 30.72,15.762963 30.72,15.8814815 L30.72,15.8814815 C30.72,16 30.7781818,16.1185185 30.8363636,16.1777778 L31.7672727,17.1259259 Z M30.1381818,16 L30.1381818,16 C30.1381818,15.762963 30.2545455,15.5259259 30.4290909,15.4074074 L31.3018182,14.6962963 C31.3018182,14.5185185 31.2436364,14.3407407 31.2436364,14.1037037 L30.2545455,13.5703704 C30.0218182,13.4518519 29.9054545,13.2740741 29.8472727,13.037037 C29.7890909,12.8 29.8472727,12.562963 30.0218182,12.3851852 L30.72,11.4962963 C30.6618182,11.3185185 30.6036364,11.1407407 30.5454545,10.962963 L29.44,10.6666667 C29.2072727,10.6074074 29.0327273,10.4296296 28.9163636,10.2518519 C28.8,10.0148148 28.8,9.77777778 28.9163636,9.54074074 L29.44,8.53333333 C29.3236364,8.35555556 29.2654545,8.17777778 29.1490909,8.05925926 L27.9854545,8 C27.7527273,8 27.52,7.88148148 27.4036364,7.7037037 C27.2872727,7.52592593 27.2290909,7.28888889 27.2872727,7.05185185 L27.5781818,5.92592593 C27.4618182,5.80740741 27.3454545,5.62962963 27.2290909,5.51111111 L26.1236364,5.68888889 C25.8909091,5.74814815 25.6581818,5.62962963 25.4836364,5.51111111 C25.3090909,5.33333333 25.1927273,5.0962963 25.2509091,4.85925926 L25.3090909,3.73333333 C25.1345455,3.61481481 25.0181818,3.4962963 24.8436364,3.37777778 L23.7963636,3.79259259 C23.5636364,3.85185185 23.3309091,3.85185185 23.0981818,3.73333333 C22.8654545,3.61481481 22.7490909,3.37777778 22.6909091,3.14074074 L22.5163636,2.01481481 C22.3418182,1.95555556 22.1672727,1.83703704 21.9927273,1.77777778 L21.0618182,2.42962963 C20.8872727,2.54814815 20.5963636,2.60740741 20.4218182,2.54814815 C20.1890909,2.48888889 20.0145455,2.31111111 19.9563636,2.07407407 L19.5490909,1.00740741 C19.3745455,0.948148148 19.2,0.948148148 19.0254545,0.888888889 L18.2109091,1.71851852 C18.0363636,1.71851852 17.8036364,1.77777778 17.5709091,1.77777778 C17.3381818,1.77777778 17.1054545,1.6 16.9890909,1.42222222 L16.3490909,0.474074074 L16.1163636,0.474074074 L15.8836364,0.474074074 L15.8836364,0.474074074 L15.2436364,1.42222222 C15.1272727,1.6 14.8945455,1.77777778 14.6618182,1.77777778 C14.4290909,1.77777778 14.1963636,1.71851852 14.0218182,1.54074074 L13.2072727,0.711111111 C13.0327273,0.77037037 12.8581818,0.77037037 12.6836364,0.82962963 L12.2181818,1.95555556 C12.16,2.19259259 11.9854545,2.37037037 11.7527273,2.42962963 C11.52,2.48888889 11.2872727,2.48888889 11.1127273,2.31111111 L10.1818182,1.65925926 C10.0072727,1.71851852 9.83272727,1.83703704 9.65818182,1.8962963 L9.48363636,3.02222222 C9.42545455,3.25925926 9.30909091,3.4962963 9.07636364,3.61481481 C8.84363636,3.73333333 8.61090909,3.73333333 8.37818182,3.67407407 L7.33090909,3.25925926 L6.86545455,3.61481481 L6.92363636,4.74074074 C6.92363636,4.97777778 6.86545455,5.21481481 6.69090909,5.39259259 C6.51636364,5.57037037 6.28363636,5.62962963 6.05090909,5.57037037 L4.94545455,5.39259259 C4.82909091,5.51111111 4.71272727,5.68888889 4.59636364,5.80740741 L4.88727273,6.93333333 C4.94545455,7.17037037 4.88727273,7.40740741 4.77090909,7.58518519 C4.65454545,7.76296296 4.42181818,7.88148148 4.18909091,7.94074074 L3.02545455,8 C2.90909091,8.17777778 2.85090909,8.2962963 2.73454545,8.47407407 L3.25818182,9.48148148 C3.37454545,9.71851852 3.37454545,9.95555556 3.25818182,10.1925926 C3.14181818,10.4296296 2.96727273,10.5481481 2.73454545,10.6074074 L1.62909091,10.9037037 C1.57090909,11.0814815 1.51272727,11.2592593 1.45454545,11.437037 L2.15272727,12.3259259 C2.32727273,12.5037037 2.38545455,12.7407407 2.32727273,12.9777778 C2.26909091,13.2148148 2.15272727,13.3925926 1.92,13.5111111 L0.930909091,14.0444444 C0.930909091,14.2222222 0.872727273,14.4 0.872727273,14.637037 L1.74545455,15.4074074 C1.92,15.5851852 2.03636364,15.762963 2.03636364,16 L2.03636364,16 C2.03636364,16.237037 1.92,16.4740741 1.74545455,16.5925926 L0.872727273,17.3037037 C0.872727273,17.4814815 0.930909091,17.6592593 0.930909091,17.8962963 L1.92,18.4296296 C2.15272727,18.5481481 2.26909091,18.7259259 2.32727273,18.962963 C2.38545455,19.2 2.32727273,19.437037 2.15272727,19.6148148 L1.45454545,20.5037037 C1.51272727,20.6814815 1.57090909,20.8592593 1.62909091,21.037037 L2.73454545,21.3333333 C2.96727273,21.3925926 3.14181818,21.5703704 3.25818182,21.8074074 C3.37454545,22.0444444 3.37454545,22.2814815 3.25818182,22.5185185 L2.73454545,23.5259259 C2.85090909,23.7037037 2.90909091,23.8814815 3.02545455,24 L4.18909091,24.0592593 C4.42181818,24.0592593 4.65454545,24.1777778 4.77090909,24.4148148 C4.88727273,24.5925926 4.94545455,24.8296296 4.88727273,25.0666667 L4.59636364,26.1925926 C4.71272727,26.3111111 4.82909091,26.4888889 4.94545455,26.6074074 L6.05090909,26.4296296 C6.28363636,26.3703704 6.51636364,26.4888889 6.69090909,26.6074074 C6.86545455,26.7851852 6.98181818,27.0222222 6.92363636,27.2592593 L6.86545455,28.4444444 C7.04,28.562963 7.15636364,28.6814815 7.33090909,28.8 L8.37818182,28.3851852 C8.61090909,28.3259259 8.84363636,28.3259259 9.07636364,28.4444444 C9.30909091,28.562963 9.42545455,28.8 9.48363636,29.037037 L9.65818182,30.162963 C9.83272727,30.2222222 10.0072727,30.3407407 10.1818182,30.4 L11.1127273,29.7481481 C11.2872727,29.6296296 11.5781818,29.5703704 11.8109091,29.6296296 C12.0436364,29.6888889 12.2181818,29.8666667 12.2763636,30.1037037 L12.6836364,31.1703704 C12.8581818,31.2296296 13.0327273,31.2296296 13.2072727,31.2888889 L14.0218182,30.4592593 C14.1963636,30.2814815 14.4290909,30.2222222 14.6618182,30.2222222 C14.8945455,30.2222222 15.1272727,30.4 15.2436364,30.5777778 L15.8836364,31.5259259 L16.1163636,31.5259259 L16.3490909,31.5259259 L16.3490909,31.5259259 L16.9890909,30.5777778 C17.1054545,30.4 17.3381818,30.2222222 17.5709091,30.2222222 C17.8036364,30.2222222 18.0363636,30.2814815 18.2109091,30.4592593 L19.0254545,31.2888889 C19.2,31.2296296 19.3745455,31.2296296 19.5490909,31.1703704 L19.9563636,30.1037037 C20.0145455,29.8666667 20.1890909,29.6888889 20.4218182,29.6296296 C20.6545455,29.5703704 20.8872727,29.5703704 21.12,29.7481481 L22.0509091,30.4 C22.2254545,30.3407407 22.4,30.2222222 22.5745455,30.162963 L22.7490909,29.037037 C22.8072727,28.8 22.9236364,28.562963 23.1563636,28.4444444 C23.3890909,28.3259259 23.6218182,28.3259259 23.8545455,28.3851852 L24.9018182,28.8 C25.0763636,28.6814815 25.1927273,28.562963 25.3672727,28.4444444 L25.3090909,27.3185185 C25.3090909,27.0814815 25.3672727,26.8444444 25.5418182,26.6666667 C25.7163636,26.4888889 25.9490909,26.4296296 26.1818182,26.4888889 L27.2872727,26.6666667 C27.4036364,26.5481481 27.52,26.3703704 27.6363636,26.2518519 L27.3454545,25.1259259 C27.2872727,24.8888889 27.3454545,24.6518519 27.4618182,24.4740741 C27.5781818,24.2962963 27.8109091,24.1777778 28.0436364,24.1777778 L29.2072727,24.1185185 C29.3236364,23.9407407 29.3818182,23.8222222 29.4981818,23.6444444 L28.9745455,22.637037 C28.8581818,22.4 28.8581818,22.162963 28.9745455,21.9259259 C29.0909091,21.6888889 29.2654545,21.5703704 29.4981818,21.4518519 L30.6036364,21.1555556 C30.6618182,20.9777778 30.72,20.8 30.7781818,20.6222222 L30.08,19.7333333 C29.9054545,19.5555556 29.8472727,19.3185185 29.9054545,19.0814815 C29.9636364,18.8444444 30.08,18.6666667 30.3127273,18.5481481 L31.3018182,18.0148148 C31.3018182,17.837037 31.36,17.6592593 31.36,17.4222222 L30.4872727,16.7111111 C30.2545455,16.4740741 30.1381818,16.237037 30.1381818,16 Z M27.8109091,16 C27.8109091,22.5777778 22.5163636,27.9703704 16.0581818,27.9703704 C9.6,27.9703704 4.30545455,22.5777778 4.30545455,16 C4.30545455,9.42222222 9.6,4.02962963 16.0581818,4.02962963 C22.5745455,4.02962963 27.8109091,9.42222222 27.8109091,16 Z M4.77090909,16 C4.77090909,22.3407407 9.83272727,27.4962963 16.0581818,27.4962963 C22.2836364,27.4962963 27.4036364,22.3407407 27.4036364,16 C27.4036364,9.65925926 22.3418182,4.5037037 16.0581818,4.5037037 C9.83272727,4.5037037 4.77090909,9.65925926 4.77090909,16 Z" id="Shape" fill-rule="nonzero"></path>
                    </g>
                </g>
            </g>
        </g>
    </g>
</svg>