<?xml version="1.0" encoding="utf-8"?>
<!-- Generator: Adobe Illustrator 21.0.0, SVG Export Plug-In . SVG Version: 6.00 Build 0)  -->
<svg version="1.1" id="Layer_1" xmlns="http://www.w3.org/2000/svg" xmlns:xlink="http://www.w3.org/1999/xlink" x="0px" y="0px"
	 viewBox="0 0 51 51" style="enable-background:new 0 0 51 51;" xml:space="preserve">
<style type="text/css">
	.st0{fill:url(#SVGID_1_);}
	.st1{fill:#FFFFFF;}
</style>
<radialGradient id="SVGID_1_" cx="25.9415" cy="18.1059" r="25.875" gradientUnits="userSpaceOnUse">
	<stop  offset="0" style="stop-color:#416AA8"/>
	<stop  offset="1" style="stop-color:#233D69"/>
</radialGradient>
<rect x="-0.2" y="-0.8" class="st0" width="51.8" height="51.8"/>
<g>
	<path class="st1" d="M17.4,35.4c-0.4-0.1-0.7-0.2-1-0.6l-0.3-0.5v-8.1c0.2-0.6,0.6-1,1.2-1h17.4c0.8-0.1,1.4-0.5,1.9-1.1
		c0.3-0.4,0.4-0.8,0.5-1.3v-1c0-0.6-0.3-1.1-0.8-1.6c-0.5-0.4-1-0.6-1.6-0.7H17.4c-0.6-0.2-1-0.5-1.2-1v-0.7c0.2-0.6,0.6-1,1.2-1
		h17.2c1.6,0.1,2.9,0.7,4.1,1.9c0.7,0.9,1.1,2,1.2,3.2v0.9c-0.1,1.5-0.7,2.8-1.9,3.9c-1,0.7-2.1,1.1-3.3,1.3H18.9v6.3
		c-0.1,0.4-0.4,0.7-0.8,0.9L17.4,35.4z"/>
</g>
<g>
	<path class="st1" d="M25.7,45.1c-11,0-20-9-20-20c0-11,9-20,20-20s20,9,20,20C45.7,36.2,36.7,45.1,25.7,45.1z M25.7,6.1
		c-10.5,0-19,8.5-19,19c0,10.5,8.5,19,19,19c10.5,0,19-8.5,19-19C44.7,14.6,36.1,6.1,25.7,6.1z"/>
</g>
</svg>
