<?xml version="1.0" encoding="utf-8"?>
<!-- Generator: Adobe Illustrator 21.0.0, SVG Export Plug-In . SVG Version: 6.00 Build 0)  -->
<svg version="1.1" id="Layer_1" xmlns:sketch="http://www.bohemiancoding.com/sketch/ns"
	 xmlns="http://www.w3.org/2000/svg" xmlns:xlink="http://www.w3.org/1999/xlink" x="0px" y="0px" viewBox="0 0 356 156"
	 style="enable-background:new 0 0 356 156;" xml:space="preserve">
<style type="text/css">
	.st0{fill:#FFFFFF;}
	.st1{clip-path:url(#SVGID_2_);fill:#FFFFFF;}
	.st2{clip-path:url(#SVGID_4_);fill:#FFFFFF;}
</style>
<title>Artboard 1</title>
<desc>Created with Sketch.</desc>
<g>
	<path class="st0" d="M122,56.2h32.8c2.7,0,5,0.1,6.9,0.4c1.9,0.2,3.4,0.6,4.6,1.1c1.2,0.5,2.1,1.1,2.8,1.8c0.7,0.7,1.1,1.5,1.4,2.5
		c0.3,0.9,0.5,2,0.5,3.2c0,1.2,0.1,2.5,0.1,3.9c0,1.5,0,2.8-0.1,4.1s-0.3,2.4-0.7,3.4c-0.4,1-1,1.9-1.8,2.7c-0.8,0.8-2,1.4-3.4,1.9
		c-1.5,0.5-3.4,0.9-5.7,1.2s-5.1,0.4-8.4,0.4h-23.6v17.3H122V56.2z M127.4,78h23.6c2.4,0,4.5,0,6.1-0.1c1.7-0.1,3-0.2,4.1-0.5
		c1.1-0.2,1.9-0.5,2.5-1s1-1,1.3-1.6s0.4-1.5,0.5-2.5c0-1,0.1-2.1,0.1-3.4c0-1.2,0-2.3-0.1-3.2c0-0.9-0.2-1.6-0.5-2.2
		c-0.3-0.6-0.7-1.1-1.3-1.4c-0.6-0.4-1.4-0.6-2.5-0.8c-1.1-0.2-2.4-0.3-4.1-0.4c-1.7-0.1-3.7-0.1-6.1-0.1h-23.6V78z"/>
	<path class="st0" d="M228.4,99.8H223v-8.2c0-1.3,0-2.5-0.1-3.4c0-1-0.2-1.8-0.5-2.5s-0.7-1.2-1.3-1.6c-0.6-0.4-1.4-0.7-2.5-1
		c-1.1-0.2-2.4-0.4-4.1-0.5c-1.7-0.1-3.7-0.1-6.1-0.1h-24.5v17.3h-5.5V56.2h30.9c3.3,0,6.1,0.1,8.4,0.4c2.3,0.2,4.2,0.6,5.7,1.1
		s2.6,1.1,3.4,1.8c0.8,0.7,1.4,1.5,1.8,2.5c0.4,0.9,0.6,2,0.7,3.2c0.1,1.2,0.1,2.5,0.1,3.9c0,1.8-0.1,3.4-0.4,4.8s-0.7,2.5-1.3,3.5
		s-1.4,1.7-2.4,2.3c-1,0.6-2.3,1-3.8,1.2c1.5,0.2,2.7,0.6,3.6,1.2c0.9,0.6,1.6,1.3,2.1,2.2c0.5,0.9,0.8,2,1,3.2
		c0.2,1.3,0.2,2.7,0.2,4.3V99.8z M183.8,78h25.4c2.4,0,4.5,0,6.1-0.1c1.7-0.1,3-0.2,4.1-0.5c1.1-0.2,1.9-0.5,2.5-1s1-1,1.3-1.6
		s0.4-1.5,0.5-2.5c0-1,0.1-2.1,0.1-3.4c0-1.2,0-2.3-0.1-3.2c0-0.9-0.2-1.6-0.5-2.2c-0.3-0.6-0.7-1.1-1.3-1.4
		c-0.6-0.4-1.4-0.6-2.5-0.8c-1.1-0.2-2.4-0.3-4.1-0.4c-1.7-0.1-3.7-0.1-6.1-0.1h-25.4V78z"/>
	<path class="st0" d="M273,55.2c3.3,0,6.1,0.2,8.4,0.6c2.3,0.4,4.2,1,5.6,1.8c1.5,0.8,2.6,1.9,3.4,3.1c0.8,1.3,1.4,2.7,1.7,4.4
		s0.6,3.6,0.7,5.7c0.1,2.1,0.1,4.5,0.1,7c0,2.6,0,4.9-0.1,7c-0.1,2.1-0.3,4-0.7,5.7c-0.4,1.7-1,3.2-1.7,4.4
		c-0.8,1.3-1.9,2.3-3.4,3.1c-1.5,0.8-3.4,1.4-5.6,1.8c-2.3,0.4-5.1,0.6-8.4,0.6h-16.4c-3.3,0-6.1-0.2-8.4-0.6s-4.2-1-5.6-1.8
		c-1.5-0.8-2.6-1.9-3.4-3.1c-0.8-1.3-1.4-2.7-1.8-4.4c-0.4-1.7-0.6-3.6-0.6-5.7c-0.1-2.1-0.1-4.5-0.1-7c0-2.6,0-4.9,0.1-7
		c0.1-2.1,0.3-4,0.6-5.7c0.4-1.7,1-3.2,1.8-4.4c0.8-1.3,1.9-2.3,3.4-3.1c1.5-0.8,3.4-1.4,5.6-1.8s5.1-0.6,8.4-0.6H273z M273,96.2
		c2.4,0,4.4-0.1,6.1-0.2c1.7-0.1,3-0.4,4.1-0.9s1.9-1.1,2.5-1.9c0.6-0.8,1-1.9,1.3-3.2c0.3-1.3,0.4-3,0.5-5c0-2,0.1-4.3,0.1-7
		s0-5.1-0.1-7c0-2-0.2-3.6-0.5-5c-0.3-1.3-0.7-2.4-1.3-3.2s-1.4-1.4-2.5-1.9c-1.1-0.4-2.4-0.7-4.1-0.9c-1.7-0.1-3.7-0.2-6.1-0.2
		h-16.4c-2.4,0-4.5,0.1-6.1,0.2s-3,0.4-4.1,0.9s-1.9,1.1-2.5,1.9s-1,1.9-1.3,3.2c-0.3,1.3-0.4,3-0.5,5c0,2-0.1,4.3-0.1,7
		s0,5.1,0.1,7c0,2,0.2,3.6,0.5,5s0.7,2.4,1.3,3.2c0.6,0.8,1.4,1.4,2.5,1.9s2.4,0.7,4.1,0.9s3.7,0.2,6.1,0.2H273z"/>
	<path class="st0" d="M347.5,69.8c0-2.3-0.2-4.1-0.7-5.4c-0.5-1.3-1.3-2.3-2.4-3c-1.1-0.7-2.6-1.1-4.5-1.3c-1.8-0.2-4.1-0.3-6.9-0.3
		h-12.8c-2.4,0-4.5,0.1-6.1,0.2c-1.7,0.1-3,0.4-4.1,0.9s-1.9,1.1-2.5,1.9s-1,1.9-1.3,3.2c-0.3,1.3-0.4,3-0.5,5c0,2-0.1,4.3-0.1,7
		s0,5.1,0.1,7c0,2,0.2,3.6,0.5,5c0.3,1.3,0.7,2.4,1.3,3.2c0.6,0.8,1.4,1.4,2.5,1.9s2.4,0.7,4.1,0.9c1.7,0.1,3.7,0.2,6.1,0.2H333
		c2.1,0,4-0.1,5.5-0.2c1.5-0.1,2.8-0.3,3.9-0.6s2-0.7,2.6-1.3s1.2-1.2,1.5-2c0.4-0.8,0.6-1.8,0.8-2.9c0.1-1.1,0.2-2.4,0.2-4h5.5
		c0,1.8-0.1,3.5-0.3,4.9c-0.2,1.5-0.6,2.8-1.2,3.9s-1.4,2.1-2.3,3s-2.2,1.5-3.7,2.1s-3.2,0.9-5.3,1.2c-2,0.3-4.4,0.4-7.2,0.4h-12.8
		c-3.3,0-6.1-0.2-8.4-0.6c-2.3-0.4-4.2-1-5.6-1.8c-1.5-0.8-2.6-1.9-3.4-3.1s-1.4-2.7-1.8-4.4c-0.4-1.7-0.6-3.6-0.6-5.7
		c-0.1-2.1-0.1-4.5-0.1-7c0-2.6,0-4.9,0.1-7c0.1-2.1,0.3-4,0.6-5.7s1-3.2,1.8-4.4s1.9-2.3,3.4-3.1c1.5-0.8,3.4-1.4,5.6-1.8
		c2.3-0.4,5.1-0.6,8.4-0.6H333c2.7,0,5.1,0.1,7.2,0.4c2,0.3,3.8,0.6,5.3,1.2c1.5,0.5,2.7,1.2,3.7,2s1.7,1.7,2.3,2.8
		c0.6,1.1,1,2.3,1.2,3.7c0.2,1.4,0.3,2.9,0.3,4.5H347.5z"/>
	<g>
		<path class="st0" d="M86.7,86.8h-1c-1.2,0-2.2,0-3.1-0.1c-0.9-0.1-1.6-0.2-2.3-0.4c-0.6-0.2-1.2-0.4-1.6-0.7c-0.4-0.3-0.7-0.6-1-1
			s-0.4-0.8-0.5-1.3c-0.1-0.5-0.1-1-0.1-1.6h2.3c0,0.7,0.1,1.3,0.3,1.7c0.2,0.4,0.6,0.7,1,0.9c0.5,0.2,1.1,0.3,1.9,0.4
			c0.8,0.1,1.8,0.1,2.9,0.1h1v-7.1h-0.2c-1.4,0-2.7-0.1-3.7-0.2c-1-0.1-1.9-0.3-2.6-0.5c-0.7-0.2-1.2-0.4-1.7-0.7s-0.7-0.6-0.9-1
			c-0.2-0.4-0.4-0.8-0.4-1.3c-0.1-0.5-0.1-1-0.1-1.5c0-0.6,0.1-1.1,0.2-1.6c0.1-0.5,0.3-0.9,0.6-1.3c0.3-0.4,0.7-0.7,1.1-1.1
			c0.5-0.3,1.1-0.6,1.8-0.8c0.8-0.2,1.7-0.4,2.7-0.5c0.9-0.1,2-0.1,3.2-0.2v-1.2H89v1.2h0.6c1.2,0,2.2,0,3.1,0.1
			c0.9,0.1,1.6,0.2,2.3,0.4c0.6,0.2,1.2,0.4,1.6,0.7c0.4,0.3,0.8,0.6,1,1s0.4,0.8,0.5,1.3c0.1,0.5,0.1,1,0.1,1.6h-2.3
			c0-0.7-0.1-1.3-0.3-1.7s-0.6-0.7-1-0.9c-0.5-0.2-1.1-0.3-1.9-0.4c-0.8-0.1-1.8-0.1-2.9-0.1H89v6.6h0.7c1.3,0,2.4,0.1,3.3,0.2
			c0.9,0.1,1.7,0.3,2.3,0.5c0.6,0.2,1.1,0.5,1.5,0.8c0.4,0.3,0.7,0.7,0.9,1.1c0.2,0.4,0.3,0.8,0.4,1.3s0.1,1,0.1,1.6
			c0,0.6-0.1,1.1-0.2,1.6c-0.1,0.5-0.3,1-0.5,1.4c-0.3,0.4-0.6,0.8-1.1,1.1c-0.4,0.3-1,0.6-1.7,0.8c-0.7,0.2-1.5,0.4-2.5,0.5
			c-0.9,0.1-2,0.2-3.2,0.2v1.2h-2.3V86.8z M86.7,75.8v-6.6c-1.3,0-2.4,0.1-3.3,0.2c-1,0.1-1.8,0.3-2.4,0.5c-0.6,0.3-1,0.6-1.2,1
			c-0.2,0.4-0.3,1-0.3,1.6c0,0.4,0,0.8,0.1,1.1c0.1,0.3,0.2,0.6,0.3,0.8c0.2,0.2,0.4,0.4,0.7,0.6c0.3,0.2,0.7,0.3,1.3,0.4
			c0.5,0.1,1.2,0.2,1.9,0.2c0.8,0,1.6,0.1,2.7,0.1H86.7z M89,77.8v7.1c1.3,0,2.3-0.1,3.2-0.2c0.9-0.1,1.6-0.3,2.2-0.6
			c0.5-0.3,0.9-0.7,1.1-1.1c0.2-0.5,0.3-1,0.3-1.7c0-0.7-0.1-1.2-0.2-1.7c-0.2-0.4-0.4-0.8-0.9-1.1c-0.4-0.3-1.1-0.4-1.9-0.6
			c-0.8-0.1-1.9-0.2-3.2-0.2H89z"/>
	</g>
	<g>
		<g>
			<defs>
				<path id="SVGID_1_" d="M88.3,50.4c-0.2,0-0.5,0-0.7,0c-0.2,0-0.5,0-0.7,0l-1.2,1.8c-0.3,0.5-1.1,0.6-1.5,0.2l-1.5-1.5
					c-0.4,0.1-0.9,0.2-1.3,0.3l-0.8,2c-0.2,0.6-0.9,0.8-1.4,0.5l-1.8-1.2c-0.4,0.2-0.8,0.4-1.2,0.6l-0.3,2.1c-0.1,0.6-0.7,1-1.3,0.8
					l-2-0.8l-1.1,0.8l0.1,2.1c0,0.6-0.5,1.1-1.1,1l-2.1-0.3c-0.3,0.3-0.6,0.7-0.9,1l0.6,2.1c0.2,0.6-0.3,1.2-0.9,1.2l-2.2,0.1
					c-0.2,0.4-0.5,0.8-0.7,1.2l1,1.9c0.3,0.6,0,1.2-0.6,1.4l-2.1,0.5c-0.2,0.4-0.3,0.9-0.4,1.3l1.4,1.7c0.4,0.5,0.2,1.2-0.3,1.5
					l-1.9,1c-0.1,0.5-0.1,0.9-0.1,1.4l1.7,1.3c0.5,0.4,0.5,1.1,0,1.5l-1.7,1.3c0,0.5,0.1,0.9,0.1,1.4l1.9,1c0.6,0.3,0.7,1,0.3,1.5
					l-1.4,1.7c0.1,0.4,0.3,0.9,0.4,1.3l2.1,0.5c0.6,0.2,0.9,0.8,0.6,1.4l-1,1.9c0.2,0.4,0.4,0.8,0.7,1.2l2.2,0.1
					c0.6,0,1.1,0.6,0.9,1.2l-0.6,2.1c0.3,0.3,0.6,0.7,0.9,1l2.1-0.3c0.6-0.1,1.2,0.4,1.1,1l-0.1,2.1c0.4,0.3,0.7,0.5,1.1,0.8l2-0.8
					c0.6-0.2,1.2,0.1,1.3,0.8l0.3,2.1c0.4,0.2,0.8,0.4,1.2,0.6l1.8-1.2c0.5-0.3,1.2-0.1,1.4,0.5l0.8,2c0.4,0.1,0.9,0.2,1.3,0.3
					l1.5-1.5c0.4-0.4,1.2-0.4,1.5,0.2l1.2,1.8c0.2,0,0.5,0,0.7,0c0.2,0,0.5,0,0.7,0l1.2-1.8c0.3-0.5,1.1-0.6,1.5-0.2l1.5,1.5
					c0.4-0.1,0.9-0.2,1.3-0.3l0.8-2c0.2-0.6,0.9-0.8,1.4-0.5l1.8,1.2c0.4-0.2,0.8-0.4,1.2-0.6l0.3-2.1c0.1-0.6,0.7-1,1.3-0.8l2,0.8
					c0.4-0.3,0.7-0.5,1.1-0.8l-0.1-2.1c0-0.6,0.5-1.1,1.1-1l2.1,0.3c0.3-0.3,0.6-0.7,0.9-1l-0.6-2.1c-0.2-0.6,0.3-1.2,0.9-1.2
					l2.2-0.1c0.2-0.4,0.5-0.8,0.7-1.2l-1-1.9c-0.3-0.6,0-1.2,0.6-1.4l2.1-0.5c0.2-0.4,0.3-0.9,0.4-1.3l-1.4-1.7
					c-0.4-0.5-0.2-1.2,0.3-1.5l1.9-1c0.1-0.5,0.1-0.9,0.1-1.4l-1.7-1.3c-0.5-0.4-0.5-1.1,0-1.5l1.7-1.3c0-0.5-0.1-0.9-0.1-1.4
					l-1.9-1c-0.6-0.3-0.7-1-0.3-1.5l1.4-1.7c-0.1-0.4-0.3-0.9-0.4-1.3l-2.1-0.5c-0.6-0.2-0.9-0.8-0.6-1.4l1-1.9
					c-0.2-0.4-0.4-0.8-0.7-1.2l-2.2-0.1c-0.6,0-1.1-0.6-0.9-1.2l0.6-2.1c-0.3-0.3-0.6-0.7-0.9-1l-2.1,0.3c-0.6,0.1-1.2-0.4-1.1-1
					l0.1-2.1c-0.4-0.3-0.7-0.5-1.1-0.8l-2,0.8c-0.6,0.2-1.2-0.1-1.3-0.8L99.1,53c-0.4-0.2-0.8-0.4-1.2-0.6l-1.8,1.2
					c-0.5,0.3-1.2,0.1-1.4-0.5l-0.8-2c-0.4-0.1-0.9-0.2-1.3-0.3L91,52.4c-0.4,0.4-1.2,0.4-1.5-0.2L88.3,50.4z M107.5,77
					c0,10.9-8.9,19.8-19.8,19.8S67.8,87.9,67.8,77s8.9-19.8,19.8-19.8S107.5,66.1,107.5,77z"/>
			</defs>
			<use xlink:href="#SVGID_1_"  style="overflow:visible;fill:#FFFFFF;"/>
			<clipPath id="SVGID_2_">
				<use xlink:href="#SVGID_1_"  style="overflow:visible;"/>
			</clipPath>
			<rect x="107.4" y="57.2" class="st1" width="0.1" height="39.6"/>
			<rect x="107.1" y="57.2" class="st1" width="0.3" height="39.6"/>
			<rect x="106.8" y="57.2" class="st1" width="0.3" height="39.6"/>
			<rect x="106.5" y="57.2" class="st1" width="0.3" height="39.6"/>
			<rect x="106.2" y="57.2" class="st1" width="0.3" height="39.6"/>
			<rect x="105.8" y="57.2" class="st1" width="0.3" height="39.6"/>
			<rect x="105.5" y="57.2" class="st1" width="0.3" height="39.6"/>
			<rect x="105.2" y="57.2" class="st1" width="0.3" height="39.6"/>
			<rect x="104.9" y="57.2" class="st1" width="0.3" height="39.6"/>
			<rect x="104.6" y="57.2" class="st1" width="0.3" height="39.6"/>
			<rect x="104.3" y="57.2" class="st1" width="0.3" height="39.6"/>
			<rect x="104" y="57.2" class="st1" width="0.3" height="39.6"/>
			<rect x="103.6" y="57.2" class="st1" width="0.3" height="39.6"/>
			<rect x="103.3" y="57.2" class="st1" width="0.3" height="39.6"/>
			<rect x="103" y="57.2" class="st1" width="0.3" height="39.6"/>
			<rect x="102.7" y="57.2" class="st1" width="0.3" height="39.6"/>
			<rect x="102.4" y="57.2" class="st1" width="0.3" height="39.6"/>
			<rect x="102.1" y="57.2" class="st1" width="0.3" height="39.6"/>
			<rect x="101.8" y="57.2" class="st1" width="0.3" height="39.6"/>
			<rect x="101.5" y="57.2" class="st1" width="0.3" height="39.6"/>
			<rect x="101.1" y="57.2" class="st1" width="0.3" height="39.6"/>
			<rect x="100.8" y="57.2" class="st1" width="0.3" height="39.6"/>
			<rect x="100.5" y="57.2" class="st1" width="0.3" height="39.6"/>
			<rect x="100.2" y="57.2" class="st1" width="0.3" height="39.6"/>
			<rect x="99.9" y="57.2" class="st1" width="0.3" height="39.6"/>
			<rect x="99.6" y="57.2" class="st1" width="0.3" height="39.6"/>
			<rect x="99.3" y="57.2" class="st1" width="0.3" height="39.6"/>
			<rect x="98.9" y="57.2" class="st1" width="0.3" height="39.6"/>
			<rect x="98.6" y="57.2" class="st1" width="0.3" height="39.6"/>
			<rect x="98.3" y="57.2" class="st1" width="0.3" height="39.6"/>
			<rect x="98" y="57.2" class="st1" width="0.3" height="39.6"/>
			<rect x="97.7" y="57.2" class="st1" width="0.3" height="39.6"/>
			<rect x="97.4" y="57.2" class="st1" width="0.3" height="39.6"/>
			<rect x="97.1" y="57.2" class="st1" width="0.3" height="39.6"/>
			<rect x="96.7" y="57.2" class="st1" width="0.3" height="39.6"/>
			<rect x="96.4" y="57.2" class="st1" width="0.3" height="39.6"/>
			<rect x="96.1" y="57.2" class="st1" width="0.3" height="39.6"/>
			<rect x="95.8" y="57.2" class="st1" width="0.3" height="39.6"/>
			<rect x="95.5" y="57.2" class="st1" width="0.3" height="39.6"/>
			<rect x="95.2" y="57.2" class="st1" width="0.3" height="39.6"/>
			<rect x="94.9" y="57.2" class="st1" width="0.3" height="39.6"/>
			<rect x="94.5" y="57.2" class="st1" width="0.3" height="39.6"/>
			<rect x="94.2" y="57.2" class="st1" width="0.3" height="39.6"/>
			<rect x="93.9" y="57.2" class="st1" width="0.3" height="39.6"/>
			<rect x="93.6" y="57.2" class="st1" width="0.3" height="39.6"/>
			<rect x="93.3" y="57.2" class="st1" width="0.3" height="39.6"/>
			<rect x="93" y="57.2" class="st1" width="0.3" height="39.6"/>
			<rect x="92.7" y="57.2" class="st1" width="0.3" height="39.6"/>
			<rect x="92.4" y="57.2" class="st1" width="0.3" height="39.6"/>
			<rect x="92" y="57.2" class="st1" width="0.3" height="39.6"/>
			<rect x="91.7" y="57.2" class="st1" width="0.3" height="39.6"/>
			<rect x="91.4" y="57.2" class="st1" width="0.3" height="39.6"/>
			<rect x="91.1" y="57.2" class="st1" width="0.3" height="39.6"/>
			<rect x="90.8" y="57.2" class="st1" width="0.3" height="39.6"/>
			<rect x="90.5" y="57.2" class="st1" width="0.3" height="39.6"/>
			<rect x="90.2" y="57.2" class="st1" width="0.3" height="39.6"/>
			<rect x="89.8" y="57.2" class="st1" width="0.3" height="39.6"/>
			<rect x="89.5" y="57.2" class="st1" width="0.3" height="39.6"/>
			<rect x="89.2" y="57.2" class="st1" width="0.3" height="39.6"/>
			<rect x="88.9" y="57.2" class="st1" width="0.3" height="39.6"/>
			<rect x="88.6" y="57.2" class="st1" width="0.3" height="39.6"/>
			<rect x="88.3" y="57.2" class="st1" width="0.3" height="39.6"/>
			<rect x="88" y="57.2" class="st1" width="0.3" height="39.6"/>
			<rect x="87.6" y="57.2" class="st1" width="0.3" height="39.6"/>
			<rect x="87.3" y="57.2" class="st1" width="0.3" height="39.6"/>
			<rect x="87" y="57.2" class="st1" width="0.3" height="39.6"/>
			<rect x="86.7" y="57.2" class="st1" width="0.3" height="39.6"/>
			<rect x="86.4" y="57.2" class="st1" width="0.3" height="39.6"/>
			<rect x="86.1" y="57.2" class="st1" width="0.3" height="39.6"/>
			<rect x="85.8" y="57.2" class="st1" width="0.3" height="39.6"/>
			<rect x="85.4" y="57.2" class="st1" width="0.3" height="39.6"/>
			<rect x="85.1" y="57.2" class="st1" width="0.3" height="39.6"/>
			<rect x="84.8" y="57.2" class="st1" width="0.3" height="39.6"/>
			<rect x="84.5" y="57.2" class="st1" width="0.3" height="39.6"/>
			<rect x="84.2" y="57.2" class="st1" width="0.3" height="39.6"/>
			<rect x="83.9" y="57.2" class="st1" width="0.3" height="39.6"/>
			<rect x="83.6" y="57.2" class="st1" width="0.3" height="39.6"/>
			<rect x="83.2" y="57.2" class="st1" width="0.3" height="39.6"/>
			<rect x="82.9" y="57.2" class="st1" width="0.3" height="39.6"/>
			<rect x="82.6" y="57.2" class="st1" width="0.3" height="39.6"/>
			<rect x="82.3" y="57.2" class="st1" width="0.3" height="39.6"/>
			<rect x="82" y="57.2" class="st1" width="0.3" height="39.6"/>
			<rect x="81.7" y="57.2" class="st1" width="0.3" height="39.6"/>
			<rect x="81.4" y="57.2" class="st1" width="0.3" height="39.6"/>
			<rect x="81.1" y="57.2" class="st1" width="0.3" height="39.6"/>
			<rect x="80.7" y="57.2" class="st1" width="0.3" height="39.6"/>
			<rect x="80.4" y="57.2" class="st1" width="0.3" height="39.6"/>
			<rect x="80.1" y="57.2" class="st1" width="0.3" height="39.6"/>
			<rect x="79.8" y="57.2" class="st1" width="0.3" height="39.6"/>
			<rect x="79.5" y="57.2" class="st1" width="0.3" height="39.6"/>
			<rect x="79.2" y="57.2" class="st1" width="0.3" height="39.6"/>
			<rect x="78.9" y="57.2" class="st1" width="0.3" height="39.6"/>
			<rect x="78.5" y="57.2" class="st1" width="0.3" height="39.6"/>
			<rect x="78.2" y="57.2" class="st1" width="0.3" height="39.6"/>
			<rect x="77.9" y="57.2" class="st1" width="0.3" height="39.6"/>
			<rect x="77.6" y="57.2" class="st1" width="0.3" height="39.6"/>
			<rect x="77.3" y="57.2" class="st1" width="0.3" height="39.6"/>
			<rect x="77" y="57.2" class="st1" width="0.3" height="39.6"/>
			<rect x="76.7" y="57.2" class="st1" width="0.3" height="39.6"/>
			<rect x="76.3" y="57.2" class="st1" width="0.3" height="39.6"/>
			<rect x="76" y="57.2" class="st1" width="0.3" height="39.6"/>
			<rect x="75.7" y="57.2" class="st1" width="0.3" height="39.6"/>
			<rect x="75.4" y="57.2" class="st1" width="0.3" height="39.6"/>
			<rect x="75.1" y="57.2" class="st1" width="0.3" height="39.6"/>
			<rect x="74.8" y="57.2" class="st1" width="0.3" height="39.6"/>
			<rect x="74.5" y="57.2" class="st1" width="0.3" height="39.6"/>
			<rect x="74.1" y="57.2" class="st1" width="0.3" height="39.6"/>
			<rect x="73.8" y="57.2" class="st1" width="0.3" height="39.6"/>
			<rect x="73.5" y="57.2" class="st1" width="0.3" height="39.6"/>
			<rect x="73.2" y="57.2" class="st1" width="0.3" height="39.6"/>
			<rect x="72.9" y="57.2" class="st1" width="0.3" height="39.6"/>
			<rect x="72.6" y="57.2" class="st1" width="0.3" height="39.6"/>
			<rect x="72.3" y="57.2" class="st1" width="0.3" height="39.6"/>
			<rect x="72" y="57.2" class="st1" width="0.3" height="39.6"/>
			<rect x="71.6" y="57.2" class="st1" width="0.3" height="39.6"/>
			<rect x="71.3" y="57.2" class="st1" width="0.3" height="39.6"/>
			<rect x="71" y="57.2" class="st1" width="0.3" height="39.6"/>
			<rect x="70.7" y="57.2" class="st1" width="0.3" height="39.6"/>
			<rect x="70.4" y="57.2" class="st1" width="0.3" height="39.6"/>
			<rect x="70.1" y="57.2" class="st1" width="0.3" height="39.6"/>
			<rect x="69.8" y="57.2" class="st1" width="0.3" height="39.6"/>
			<rect x="69.4" y="57.2" class="st1" width="0.3" height="39.6"/>
			<rect x="69.1" y="57.2" class="st1" width="0.3" height="39.6"/>
			<rect x="68.8" y="57.2" class="st1" width="0.3" height="39.6"/>
			<rect x="68.5" y="57.2" class="st1" width="0.3" height="39.6"/>
			<rect x="68.2" y="57.2" class="st1" width="0.3" height="39.6"/>
			<rect x="67.9" y="57.2" class="st1" width="0.3" height="39.6"/>
			<rect x="67.8" y="57.2" class="st1" width="0" height="39.6"/>
			<rect x="114" y="50.4" class="st1" width="0.2" height="53.3"/>
			<rect x="113.7" y="50.4" class="st1" width="0.3" height="53.3"/>
			<rect x="113.4" y="50.4" class="st1" width="0.3" height="53.3"/>
			<rect x="113.1" y="50.4" class="st1" width="0.3" height="53.3"/>
			<rect x="112.8" y="50.4" class="st1" width="0.3" height="53.3"/>
			<rect x="112.4" y="50.4" class="st1" width="0.3" height="53.3"/>
			<rect x="112.1" y="50.4" class="st1" width="0.3" height="53.3"/>
			<rect x="111.8" y="50.4" class="st1" width="0.3" height="53.3"/>
			<rect x="111.5" y="50.4" class="st1" width="0.3" height="53.3"/>
			<rect x="111.2" y="50.4" class="st1" width="0.3" height="53.3"/>
			<rect x="110.9" y="50.4" class="st1" width="0.3" height="53.3"/>
			<rect x="110.6" y="50.4" class="st1" width="0.3" height="53.3"/>
			<rect x="110.2" y="50.4" class="st1" width="0.3" height="53.3"/>
			<rect x="109.9" y="50.4" class="st1" width="0.3" height="53.3"/>
			<rect x="109.6" y="50.4" class="st1" width="0.3" height="53.3"/>
			<rect x="109.3" y="50.4" class="st1" width="0.3" height="53.3"/>
			<rect x="109" y="50.4" class="st1" width="0.3" height="53.3"/>
			<rect x="108.7" y="50.4" class="st1" width="0.3" height="53.3"/>
			<rect x="108.4" y="50.4" class="st1" width="0.3" height="53.3"/>
			<rect x="108" y="50.4" class="st1" width="0.3" height="53.3"/>
			<rect x="107.7" y="50.4" class="st1" width="0.3" height="53.3"/>
			<rect x="107.4" y="50.4" class="st1" width="0.3" height="53.3"/>
			<rect x="107.1" y="50.4" class="st1" width="0.3" height="53.3"/>
			<rect x="106.8" y="50.4" class="st1" width="0.3" height="53.3"/>
			<rect x="106.5" y="50.4" class="st1" width="0.3" height="53.3"/>
			<rect x="106.2" y="50.4" class="st1" width="0.3" height="53.3"/>
			<rect x="105.8" y="50.4" class="st1" width="0.3" height="53.3"/>
			<rect x="105.5" y="50.4" class="st1" width="0.3" height="53.3"/>
			<rect x="105.2" y="50.4" class="st1" width="0.3" height="53.3"/>
			<rect x="104.9" y="50.4" class="st1" width="0.3" height="53.3"/>
			<rect x="104.6" y="50.4" class="st1" width="0.3" height="53.3"/>
			<rect x="104.3" y="50.4" class="st1" width="0.3" height="53.3"/>
			<rect x="104" y="50.4" class="st1" width="0.3" height="53.3"/>
			<rect x="103.6" y="50.4" class="st1" width="0.3" height="53.3"/>
			<rect x="103.3" y="50.4" class="st1" width="0.3" height="53.3"/>
			<rect x="103" y="50.4" class="st1" width="0.3" height="53.3"/>
			<rect x="102.7" y="50.4" class="st1" width="0.3" height="53.3"/>
			<rect x="102.4" y="50.4" class="st1" width="0.3" height="53.3"/>
			<rect x="102.1" y="50.4" class="st1" width="0.3" height="53.3"/>
			<rect x="101.8" y="50.4" class="st1" width="0.3" height="53.3"/>
			<rect x="101.5" y="50.4" class="st1" width="0.3" height="53.3"/>
			<rect x="101.1" y="50.4" class="st1" width="0.3" height="53.3"/>
			<rect x="100.8" y="50.4" class="st1" width="0.3" height="53.3"/>
			<rect x="100.5" y="50.4" class="st1" width="0.3" height="53.3"/>
			<rect x="100.2" y="50.4" class="st1" width="0.3" height="53.3"/>
			<rect x="99.9" y="50.4" class="st1" width="0.3" height="53.3"/>
			<rect x="99.6" y="50.4" class="st1" width="0.3" height="53.3"/>
			<rect x="99.3" y="50.4" class="st1" width="0.3" height="53.3"/>
			<rect x="98.9" y="50.4" class="st1" width="0.3" height="53.3"/>
			<rect x="98.6" y="50.4" class="st1" width="0.3" height="53.3"/>
			<rect x="98.3" y="50.4" class="st1" width="0.3" height="53.3"/>
			<rect x="98" y="50.4" class="st1" width="0.3" height="53.3"/>
			<rect x="97.7" y="50.4" class="st1" width="0.3" height="53.3"/>
			<rect x="97.4" y="50.4" class="st1" width="0.3" height="53.3"/>
			<rect x="97.1" y="50.4" class="st1" width="0.3" height="53.3"/>
			<rect x="96.7" y="50.4" class="st1" width="0.3" height="53.3"/>
			<rect x="96.4" y="50.4" class="st1" width="0.3" height="53.3"/>
			<rect x="96.1" y="50.4" class="st1" width="0.3" height="53.3"/>
			<rect x="95.8" y="50.4" class="st1" width="0.3" height="53.3"/>
			<rect x="95.5" y="50.4" class="st1" width="0.3" height="53.3"/>
			<rect x="95.2" y="50.4" class="st1" width="0.3" height="53.3"/>
			<rect x="94.9" y="50.4" class="st1" width="0.3" height="53.3"/>
			<rect x="94.5" y="50.4" class="st1" width="0.3" height="53.3"/>
			<rect x="94.2" y="50.4" class="st1" width="0.3" height="53.3"/>
			<rect x="93.9" y="50.4" class="st1" width="0.3" height="53.3"/>
			<rect x="93.6" y="50.4" class="st1" width="0.3" height="53.3"/>
			<rect x="93.3" y="50.4" class="st1" width="0.3" height="53.3"/>
			<rect x="93" y="50.4" class="st1" width="0.3" height="53.3"/>
			<rect x="92.7" y="50.4" class="st1" width="0.3" height="53.3"/>
			<rect x="92.4" y="50.4" class="st1" width="0.3" height="53.3"/>
			<rect x="92" y="50.4" class="st1" width="0.3" height="53.3"/>
			<rect x="91.7" y="50.4" class="st1" width="0.3" height="53.3"/>
			<rect x="91.4" y="50.4" class="st1" width="0.3" height="53.3"/>
			<rect x="91.1" y="50.4" class="st1" width="0.3" height="53.3"/>
			<rect x="90.8" y="50.4" class="st1" width="0.3" height="53.3"/>
			<rect x="90.5" y="50.4" class="st1" width="0.3" height="53.3"/>
			<rect x="90.2" y="50.4" class="st1" width="0.3" height="53.3"/>
			<rect x="89.8" y="50.4" class="st1" width="0.3" height="53.3"/>
			<rect x="89.5" y="50.4" class="st1" width="0.3" height="53.3"/>
			<rect x="89.2" y="50.4" class="st1" width="0.3" height="53.3"/>
			<rect x="88.9" y="50.4" class="st1" width="0.3" height="53.3"/>
			<rect x="88.6" y="50.4" class="st1" width="0.3" height="53.3"/>
			<rect x="88.3" y="50.4" class="st1" width="0.3" height="53.3"/>
			<rect x="88" y="50.4" class="st1" width="0.3" height="53.3"/>
			<rect x="87.6" y="50.4" class="st1" width="0.3" height="53.3"/>
			<rect x="87.3" y="50.4" class="st1" width="0.3" height="53.3"/>
			<rect x="87" y="50.4" class="st1" width="0.3" height="53.3"/>
			<rect x="86.7" y="50.4" class="st1" width="0.3" height="53.3"/>
			<rect x="86.4" y="50.4" class="st1" width="0.3" height="53.3"/>
			<rect x="86.1" y="50.4" class="st1" width="0.3" height="53.3"/>
			<rect x="85.8" y="50.4" class="st1" width="0.3" height="53.3"/>
			<rect x="85.4" y="50.4" class="st1" width="0.3" height="53.3"/>
			<rect x="85.1" y="50.4" class="st1" width="0.3" height="53.3"/>
			<rect x="84.8" y="50.4" class="st1" width="0.3" height="53.3"/>
			<rect x="84.5" y="50.4" class="st1" width="0.3" height="53.3"/>
			<rect x="84.2" y="50.4" class="st1" width="0.3" height="53.3"/>
			<rect x="83.9" y="50.4" class="st1" width="0.3" height="53.3"/>
			<rect x="83.6" y="50.4" class="st1" width="0.3" height="53.3"/>
			<rect x="83.2" y="50.4" class="st1" width="0.3" height="53.3"/>
			<rect x="82.9" y="50.4" class="st1" width="0.3" height="53.3"/>
			<rect x="82.6" y="50.4" class="st1" width="0.3" height="53.3"/>
			<rect x="82.3" y="50.4" class="st1" width="0.3" height="53.3"/>
			<rect x="82" y="50.4" class="st1" width="0.3" height="53.3"/>
			<rect x="81.7" y="50.4" class="st1" width="0.3" height="53.3"/>
			<rect x="81.4" y="50.4" class="st1" width="0.3" height="53.3"/>
			<rect x="81.1" y="50.4" class="st1" width="0.3" height="53.3"/>
			<rect x="80.7" y="50.4" class="st1" width="0.3" height="53.3"/>
			<rect x="80.4" y="50.4" class="st1" width="0.3" height="53.3"/>
			<rect x="80.1" y="50.4" class="st1" width="0.3" height="53.3"/>
			<rect x="79.8" y="50.4" class="st1" width="0.3" height="53.3"/>
			<rect x="79.5" y="50.4" class="st1" width="0.3" height="53.3"/>
			<rect x="79.2" y="50.4" class="st1" width="0.3" height="53.3"/>
			<rect x="78.9" y="50.4" class="st1" width="0.3" height="53.3"/>
			<rect x="78.5" y="50.4" class="st1" width="0.3" height="53.3"/>
			<rect x="78.2" y="50.4" class="st1" width="0.3" height="53.3"/>
			<rect x="77.9" y="50.4" class="st1" width="0.3" height="53.3"/>
			<rect x="77.6" y="50.4" class="st1" width="0.3" height="53.3"/>
			<rect x="77.3" y="50.4" class="st1" width="0.3" height="53.3"/>
			<rect x="77" y="50.4" class="st1" width="0.3" height="53.3"/>
			<rect x="76.7" y="50.4" class="st1" width="0.3" height="53.3"/>
			<rect x="76.3" y="50.4" class="st1" width="0.3" height="53.3"/>
			<rect x="76" y="50.4" class="st1" width="0.3" height="53.3"/>
			<rect x="75.7" y="50.4" class="st1" width="0.3" height="53.3"/>
			<rect x="75.4" y="50.4" class="st1" width="0.3" height="53.3"/>
			<rect x="75.1" y="50.4" class="st1" width="0.3" height="53.3"/>
			<rect x="74.8" y="50.4" class="st1" width="0.3" height="53.3"/>
			<rect x="74.5" y="50.4" class="st1" width="0.3" height="53.3"/>
			<rect x="74.1" y="50.4" class="st1" width="0.3" height="53.3"/>
			<rect x="73.8" y="50.4" class="st1" width="0.3" height="53.3"/>
			<rect x="73.5" y="50.4" class="st1" width="0.3" height="53.3"/>
			<rect x="73.2" y="50.4" class="st1" width="0.3" height="53.3"/>
			<rect x="72.9" y="50.4" class="st1" width="0.3" height="53.3"/>
			<rect x="72.6" y="50.4" class="st1" width="0.3" height="53.3"/>
			<rect x="72.3" y="50.4" class="st1" width="0.3" height="53.3"/>
			<rect x="72" y="50.4" class="st1" width="0.3" height="53.3"/>
			<rect x="71.6" y="50.4" class="st1" width="0.3" height="53.3"/>
			<rect x="71.3" y="50.4" class="st1" width="0.3" height="53.3"/>
			<rect x="71" y="50.4" class="st1" width="0.3" height="53.3"/>
			<rect x="70.7" y="50.4" class="st1" width="0.3" height="53.3"/>
			<rect x="70.4" y="50.4" class="st1" width="0.3" height="53.3"/>
			<rect x="70.1" y="50.4" class="st1" width="0.3" height="53.3"/>
			<rect x="69.8" y="50.4" class="st1" width="0.3" height="53.3"/>
			<rect x="69.4" y="50.4" class="st1" width="0.3" height="53.3"/>
			<rect x="69.1" y="50.4" class="st1" width="0.3" height="53.3"/>
			<rect x="68.8" y="50.4" class="st1" width="0.3" height="53.3"/>
			<rect x="68.5" y="50.4" class="st1" width="0.3" height="53.3"/>
			<rect x="68.2" y="50.4" class="st1" width="0.3" height="53.3"/>
			<rect x="67.9" y="50.4" class="st1" width="0.3" height="53.3"/>
			<rect x="67.6" y="50.4" class="st1" width="0.3" height="53.3"/>
			<rect x="67.2" y="50.4" class="st1" width="0.3" height="53.3"/>
			<rect x="66.9" y="50.4" class="st1" width="0.3" height="53.3"/>
			<rect x="66.6" y="50.4" class="st1" width="0.3" height="53.3"/>
			<rect x="66.3" y="50.4" class="st1" width="0.3" height="53.3"/>
			<rect x="66" y="50.4" class="st1" width="0.3" height="53.3"/>
			<rect x="65.7" y="50.4" class="st1" width="0.3" height="53.3"/>
			<rect x="65.4" y="50.4" class="st1" width="0.3" height="53.3"/>
			<rect x="65" y="50.4" class="st1" width="0.3" height="53.3"/>
			<rect x="64.7" y="50.4" class="st1" width="0.3" height="53.3"/>
			<rect x="64.4" y="50.4" class="st1" width="0.3" height="53.3"/>
			<rect x="64.1" y="50.4" class="st1" width="0.3" height="53.3"/>
			<rect x="63.8" y="50.4" class="st1" width="0.3" height="53.3"/>
			<rect x="63.5" y="50.4" class="st1" width="0.3" height="53.3"/>
			<rect x="63.2" y="50.4" class="st1" width="0.3" height="53.3"/>
			<rect x="62.8" y="50.4" class="st1" width="0.3" height="53.3"/>
			<rect x="62.5" y="50.4" class="st1" width="0.3" height="53.3"/>
			<rect x="62.2" y="50.4" class="st1" width="0.3" height="53.3"/>
			<rect x="61.9" y="50.4" class="st1" width="0.3" height="53.3"/>
			<rect x="61.6" y="50.4" class="st1" width="0.3" height="53.3"/>
			<rect x="61.3" y="50.4" class="st1" width="0.3" height="53.3"/>
			<rect x="61.1" y="50.4" class="st1" width="0.2" height="53.3"/>
		</g>
		<path class="st0" d="M114.6,78.9l0,0.2c0,0.5-0.1,0.9-0.1,1.4l0,0.2l-2.1,1.1c-0.2,0.1-0.3,0.2-0.3,0.4c0,0.2,0,0.4,0.1,0.5
			l1.5,1.8l-0.1,0.2c-0.1,0.4-0.3,0.9-0.4,1.3l-0.1,0.2l-2.3,0.6c-0.2,0-0.3,0.2-0.4,0.3c-0.1,0.2-0.1,0.4,0,0.5l1.1,2.1l-0.1,0.2
			c-0.2,0.4-0.5,0.8-0.7,1.2l-0.1,0.2l-2.3,0.1c-0.2,0-0.4,0.1-0.5,0.2c-0.1,0.1-0.1,0.3-0.1,0.5l0.6,2.3l-0.1,0.1
			c-0.3,0.4-0.6,0.7-0.9,1l-0.1,0.1l-2.3-0.4c-0.2,0-0.4,0-0.5,0.1c-0.1,0.1-0.2,0.3-0.2,0.5l0.1,2.3l-0.2,0.1
			c-0.4,0.3-0.7,0.6-1.1,0.8l-0.2,0.1l-2.2-0.9c-0.2-0.1-0.4-0.1-0.5,0c-0.2,0.1-0.3,0.2-0.3,0.4l-0.4,2.3l-0.2,0.1
			c-0.4,0.2-0.8,0.4-1.3,0.6l-0.2,0.1l-2-1.3c-0.2-0.1-0.3-0.1-0.5-0.1c-0.2,0.1-0.3,0.2-0.4,0.4l-0.8,2.2l-0.2,0
			c-0.4,0.1-0.9,0.2-1.4,0.3l-0.2,0l-1.6-1.7c-0.1-0.1-0.3-0.2-0.5-0.2c-0.2,0-0.3,0.1-0.4,0.3l-1.3,2l-0.4,0c-0.2,0-0.3,0-0.5,0
			s-0.3,0-0.5,0l-0.4,0l-1.3-2c-0.1-0.2-0.3-0.3-0.4-0.3c-0.2,0-0.4,0-0.5,0.2l-1.6,1.7l-0.2,0c-0.5-0.1-0.9-0.2-1.4-0.3l-0.2,0
			l-0.8-2.2c-0.1-0.2-0.2-0.3-0.4-0.4c-0.2-0.1-0.4,0-0.5,0.1l-2,1.3l-0.2-0.1c-0.4-0.2-0.8-0.4-1.3-0.6l-0.2-0.1L75.5,99
			c0-0.2-0.1-0.3-0.3-0.4s-0.3-0.1-0.5,0l-2.2,0.9l-0.2-0.1c-0.4-0.3-0.8-0.5-1.1-0.8l-0.2-0.1l0.1-2.3c0-0.2-0.1-0.4-0.2-0.5
			c-0.1-0.1-0.3-0.2-0.5-0.1l-2.3,0.4l-0.1-0.1c-0.3-0.3-0.6-0.7-0.9-1L67,94.4l0.6-2.3c0-0.2,0-0.4-0.1-0.5
			c-0.1-0.1-0.3-0.2-0.5-0.2l-2.3-0.1l-0.1-0.2c-0.2-0.4-0.5-0.8-0.7-1.2l-0.1-0.2l1.1-2.1c0.1-0.2,0.1-0.4,0-0.5
			c-0.1-0.2-0.2-0.3-0.4-0.3l-2.3-0.6L62.2,86c-0.2-0.4-0.3-0.9-0.4-1.3l-0.1-0.2l1.5-1.8c0.1-0.1,0.2-0.3,0.1-0.5
			c0-0.2-0.2-0.3-0.3-0.4l-2.1-1.1l0-0.2c-0.1-0.5-0.1-0.9-0.1-1.4l0-0.2l1.8-1.5c0.1-0.1,0.2-0.3,0.2-0.5l0,0
			c0-0.2-0.1-0.4-0.2-0.5l-1.8-1.5l0-0.2c0-0.5,0.1-0.9,0.1-1.4l0-0.2l2.1-1.1c0.2-0.1,0.3-0.2,0.3-0.4c0-0.2,0-0.4-0.1-0.5
			l-1.5-1.8l0.1-0.2c0.1-0.4,0.3-0.9,0.4-1.3l0.1-0.2l2.3-0.6c0.2,0,0.3-0.2,0.4-0.3c0.1-0.2,0.1-0.4,0-0.5l-1.1-2.1l0.1-0.2
			c0.2-0.4,0.5-0.8,0.7-1.2l0.1-0.2l2.3-0.1c0.2,0,0.4-0.1,0.5-0.2c0.1-0.1,0.1-0.3,0.1-0.5L67,59.6l0.1-0.1c0.3-0.4,0.6-0.7,0.9-1
			l0.1-0.1l2.3,0.4c0.2,0,0.4,0,0.5-0.1c0.1-0.1,0.2-0.3,0.2-0.5l-0.1-2.3l1.4-1l2.2,0.9c0.2,0.1,0.4,0.1,0.5,0
			c0.2-0.1,0.3-0.2,0.3-0.4l0.4-2.3l0.2-0.1c0.4-0.2,0.8-0.4,1.3-0.6l0.2-0.1l2,1.3c0.2,0.1,0.3,0.1,0.5,0.1
			c0.2-0.1,0.3-0.2,0.4-0.4l0.8-2.2l0.2,0c0.4-0.1,0.9-0.2,1.4-0.3l0.2,0l1.6,1.7c0.1,0.1,0.3,0.2,0.5,0.2c0.2,0,0.3-0.1,0.4-0.3
			l1.3-2l0.4,0c0.2,0,0.3,0,0.5,0c0.2,0,0.3,0,0.5,0l0.4,0l1.3,2c0.1,0.2,0.3,0.3,0.4,0.3c0.2,0,0.4,0,0.5-0.2l1.6-1.7l0.2,0
			c0.5,0.1,0.9,0.2,1.4,0.3l0.2,0L95,53c0.1,0.2,0.2,0.3,0.4,0.4c0.2,0.1,0.4,0,0.5-0.1l2-1.3l0.2,0.1c0.4,0.2,0.8,0.4,1.3,0.6
			l0.2,0.1l0.4,2.3c0,0.2,0.1,0.3,0.3,0.4c0.2,0.1,0.3,0.1,0.5,0l2.2-0.9l0.2,0.1c0.4,0.3,0.8,0.5,1.1,0.8l0.2,0.1l-0.1,2.3
			c0,0.2,0.1,0.4,0.2,0.5c0.1,0.1,0.3,0.2,0.5,0.1l2.3-0.4l0.1,0.1c0.3,0.3,0.6,0.7,0.9,1l0.1,0.1l-0.6,2.3c0,0.2,0,0.4,0.1,0.5
			c0.1,0.1,0.3,0.2,0.5,0.2l2.3,0.1l0.1,0.2c0.2,0.4,0.5,0.8,0.7,1.2l0.1,0.2l-1.1,2.1c-0.1,0.2-0.1,0.4,0,0.5
			c0.1,0.2,0.2,0.3,0.4,0.3l2.3,0.6l0.1,0.2c0.2,0.4,0.3,0.9,0.4,1.3l0.1,0.2l-1.5,1.8c-0.1,0.1-0.2,0.3-0.1,0.5
			c0,0.2,0.2,0.3,0.3,0.4l2.1,1.1l0,0.2c0.1,0.5,0.1,0.9,0.1,1.4l0,0.2l-1.8,1.5c-0.1,0.1-0.2,0.3-0.2,0.5l0,0
			c0,0.2,0.1,0.4,0.2,0.5L114.6,78.9z M111.8,77C111.8,77,111.8,77,111.8,77c0-0.4,0.2-0.8,0.5-1l1.5-1.2c0-0.3-0.1-0.6-0.1-1
			l-1.7-0.9c-0.4-0.2-0.6-0.5-0.7-0.9c-0.1-0.4,0-0.8,0.3-1.1l1.2-1.5c-0.1-0.3-0.2-0.6-0.3-0.9l-1.9-0.5c-0.4-0.1-0.7-0.4-0.9-0.7
			c-0.2-0.4-0.2-0.8,0-1.2l0.9-1.7c-0.2-0.3-0.3-0.6-0.5-0.8l-2-0.1c-0.4,0-0.8-0.2-1-0.5c-0.2-0.3-0.3-0.7-0.2-1.1l0.5-1.9
			c-0.2-0.2-0.4-0.5-0.6-0.7l-1.9,0.3c-0.4,0.1-0.8-0.1-1.1-0.3c-0.3-0.3-0.5-0.7-0.4-1.1l0.1-1.9c-0.3-0.2-0.5-0.4-0.8-0.6
			l-1.8,0.7c-0.4,0.1-0.8,0.1-1.2-0.1c-0.4-0.2-0.6-0.6-0.7-1l-0.3-1.9c-0.3-0.1-0.6-0.3-0.9-0.4l-1.6,1.1c-0.3,0.2-0.8,0.3-1.1,0.2
			c-0.4-0.1-0.7-0.4-0.8-0.8l-0.7-1.8c-0.3-0.1-0.6-0.1-0.9-0.2l-1.4,1.4C91,52.9,90.6,53,90.2,53c-0.4,0-0.8-0.3-1-0.6l-1.1-1.6
			c-0.1,0-0.3,0-0.4,0s-0.3,0-0.4,0l0,0l-1.1,1.6c-0.2,0.3-0.6,0.6-1,0.6c-0.4,0-0.8-0.1-1.1-0.4l-1.4-1.4c-0.3,0.1-0.6,0.1-0.9,0.2
			L81,53.3c-0.1,0.4-0.4,0.7-0.8,0.8c-0.4,0.1-0.8,0.1-1.1-0.2l-1.6-1.1c-0.3,0.1-0.6,0.3-0.9,0.4l-0.3,1.9c-0.1,0.4-0.3,0.8-0.7,1
			c-0.4,0.2-0.8,0.2-1.2,0.1l-1.8-0.7l-0.8,0.6l0.1,1.9c0,0.4-0.1,0.8-0.4,1.1c-0.3,0.3-0.7,0.4-1.1,0.3l-1.9-0.3
			c-0.2,0.2-0.4,0.5-0.6,0.7l0.5,1.9c0.1,0.4,0,0.8-0.2,1.1c-0.2,0.3-0.6,0.5-1,0.6l-2,0.1c-0.2,0.3-0.3,0.5-0.5,0.8l0.9,1.7
			c0.2,0.4,0.2,0.8,0,1.2c-0.2,0.4-0.5,0.6-0.9,0.7l-1.9,0.5c-0.1,0.3-0.2,0.6-0.3,0.9l1.2,1.5c0.3,0.3,0.4,0.7,0.3,1.1
			c-0.1,0.4-0.3,0.7-0.7,0.9l-1.7,0.9c0,0.3-0.1,0.6-0.1,1L63,76c0.3,0.3,0.5,0.6,0.5,1c0,0,0,0,0,0c0,0.4-0.2,0.8-0.5,1l-1.5,1.2
			c0,0.3,0.1,0.6,0.1,1l1.7,0.9c0.4,0.2,0.6,0.5,0.7,0.9c0.1,0.4,0,0.8-0.3,1.1l-1.2,1.5c0.1,0.3,0.2,0.6,0.3,0.9l1.9,0.5
			c0.4,0.1,0.7,0.4,0.9,0.8c0.2,0.4,0.2,0.8,0,1.2l-0.9,1.7c0.2,0.3,0.3,0.6,0.5,0.8l2,0.1c0.4,0,0.8,0.2,1,0.6
			c0.2,0.3,0.3,0.7,0.2,1.1l-0.5,1.9c0.2,0.2,0.4,0.5,0.6,0.7l1.9-0.3c0.4-0.1,0.8,0.1,1.1,0.3c0.3,0.3,0.5,0.7,0.4,1.1L71.8,98
			c0.3,0.2,0.5,0.4,0.8,0.6l1.8-0.7c0.4-0.1,0.8-0.1,1.2,0.1c0.4,0.2,0.6,0.6,0.7,1l0.3,1.9c0.3,0.1,0.6,0.3,0.9,0.4l1.6-1.1
			c0.3-0.2,0.8-0.3,1.2-0.2c0.4,0.1,0.7,0.4,0.8,0.8l0.7,1.8c0.3,0.1,0.6,0.1,0.9,0.2l1.4-1.4c0.3-0.3,0.7-0.4,1.1-0.4
			c0.4,0,0.8,0.3,1,0.6l1.1,1.6c0.1,0,0.3,0,0.4,0s0.3,0,0.4,0l0,0l1.1-1.6c0.2-0.3,0.6-0.6,1-0.6c0.4,0,0.8,0.1,1.1,0.4l1.4,1.4
			c0.3-0.1,0.6-0.1,0.9-0.2l0.7-1.8c0.1-0.4,0.4-0.7,0.8-0.8c0.4-0.1,0.8-0.1,1.2,0.2l1.6,1.1c0.3-0.1,0.6-0.3,0.9-0.4l0.3-1.9
			c0.1-0.4,0.3-0.8,0.7-1c0.4-0.2,0.8-0.2,1.2-0.1l1.8,0.7c0.3-0.2,0.5-0.4,0.8-0.6l-0.1-1.9c0-0.4,0.1-0.8,0.4-1.1
			c0.3-0.3,0.7-0.4,1.1-0.3l1.9,0.3c0.2-0.2,0.4-0.5,0.6-0.7l-0.5-1.9c-0.1-0.4,0-0.8,0.2-1.1c0.2-0.3,0.6-0.5,1-0.5l2-0.1
			c0.2-0.3,0.3-0.5,0.5-0.8l-0.9-1.7c-0.2-0.4-0.2-0.8,0-1.2c0.2-0.4,0.5-0.6,0.9-0.8l1.9-0.5c0.1-0.3,0.2-0.6,0.3-0.9l-1.2-1.5
			c-0.3-0.3-0.4-0.7-0.3-1.1c0.1-0.4,0.3-0.7,0.7-0.9l1.7-0.9c0-0.3,0.1-0.6,0.1-1l-1.5-1.2C112,77.8,111.8,77.4,111.8,77z
			 M107.8,77c0,11.1-9.1,20.2-20.2,20.2c-11.1,0-20.2-9.1-20.2-20.2s9.1-20.2,20.2-20.2C98.8,56.8,107.8,65.9,107.8,77z M68.2,77
			c0,10.7,8.7,19.4,19.4,19.4c10.7,0,19.5-8.7,19.5-19.4c0-10.7-8.7-19.4-19.5-19.4C76.9,57.6,68.2,66.3,68.2,77z"/>
	</g>
	<g>
		<g>
			<defs>
				<path id="SVGID_3_" d="M46.3,87.8c-0.1,1-0.3,1.8-0.6,2.5c-0.3,0.7-0.8,1.3-1.3,1.7c-0.6,0.5-1.3,0.8-2.2,1.1
					c-0.9,0.3-2,0.4-3.4,0.5c-1.3,0.1-2.9,0.1-4.7,0.1H23.1c-2.1,0-3.8-0.1-5.3-0.2c-1.4-0.1-2.6-0.4-3.5-0.7
					c-0.9-0.4-1.6-0.9-2.1-1.6c-0.5-0.7-0.9-1.6-1.1-2.8c-0.2-1.2-0.4-2.6-0.4-4.3c0-1.7-0.1-3.7-0.1-6c0-2.3,0-4.4,0-6
					c0-1.7,0.2-3.1,0.4-4.3c0.2-1.2,0.6-2.1,1.1-2.8c0.5-0.7,1.2-1.2,2.1-1.6c0.9-0.4,2.1-0.6,3.5-0.7c1.4-0.1,3.2-0.2,5.3-0.2H34
					c2.3,0,4.3,0.1,5.9,0.2c1.6,0.2,2.9,0.5,3.8,1.1c1,0.6,1.7,1.4,2.1,2.6c0.4,1.1,0.6,2.7,0.6,4.6h4.7c0-1.4-0.1-2.7-0.3-3.9
					c-0.2-1.2-0.5-2.2-1-3.1c-0.5-0.9-1.2-1.7-2-2.4C47,61,46,60.4,44.7,59.9c-1.3-0.4-2.8-0.8-4.5-1c-1.8-0.2-3.8-0.3-6.1-0.3H23.1
					c-2.9,0-5.3,0.2-7.2,0.5c-2,0.3-3.6,0.9-4.8,1.6c-1.3,0.7-2.2,1.6-2.9,2.7c-0.7,1.1-1.2,2.3-1.5,3.8c-0.3,1.4-0.5,3.1-0.5,4.9
					c0,1.8-0.1,3.8-0.1,6c0,2.2,0,4.2,0.1,6c0,1.8,0.2,3.5,0.5,4.9c0.3,1.4,0.8,2.7,1.5,3.8s1.7,2,2.9,2.7c1.3,0.7,2.9,1.2,4.8,1.6
					c2,0.3,4.4,0.5,7.2,0.5H34c2.3,0,4.4-0.1,6.1-0.3c1.8-0.2,3.3-0.6,4.5-1c1.3-0.5,2.3-1.1,3.1-1.8c0.8-0.7,1.5-1.6,2-2.5
					c0.5-1,0.8-2.1,1-3.4c0.2-1.3,0.3-2.7,0.3-4.2h-4.7C46.5,85.7,46.5,86.8,46.3,87.8z"/>
			</defs>
			<use xlink:href="#SVGID_3_"  style="overflow:visible;fill:#FFFFFF;"/>
			<clipPath id="SVGID_4_">
				<use xlink:href="#SVGID_3_"  style="overflow:visible;"/>
			</clipPath>
			<rect x="6" y="97.4" class="st2" width="45.2" height="0.2"/>
			<rect x="6" y="97.1" class="st2" width="45.2" height="0.3"/>
			<rect x="6" y="96.8" class="st2" width="45.2" height="0.3"/>
			<rect x="6" y="96.5" class="st2" width="45.2" height="0.3"/>
			<rect x="6" y="96.2" class="st2" width="45.2" height="0.3"/>
			<rect x="6" y="95.9" class="st2" width="45.2" height="0.3"/>
			<rect x="6" y="95.6" class="st2" width="45.2" height="0.3"/>
			<rect x="6" y="95.2" class="st2" width="45.2" height="0.3"/>
			<rect x="6" y="94.9" class="st2" width="45.2" height="0.3"/>
			<rect x="6" y="94.6" class="st2" width="45.2" height="0.3"/>
			<rect x="6" y="94.3" class="st2" width="45.2" height="0.3"/>
			<rect x="6" y="94" class="st2" width="45.2" height="0.3"/>
			<rect x="6" y="93.7" class="st2" width="45.2" height="0.3"/>
			<rect x="6" y="93.4" class="st2" width="45.2" height="0.3"/>
			<rect x="6" y="93" class="st2" width="45.2" height="0.3"/>
			<rect x="6" y="92.7" class="st2" width="45.2" height="0.3"/>
			<rect x="6" y="92.4" class="st2" width="45.2" height="0.3"/>
			<rect x="6" y="92.1" class="st2" width="45.2" height="0.3"/>
			<rect x="6" y="91.8" class="st2" width="45.2" height="0.3"/>
			<rect x="6" y="91.5" class="st2" width="45.2" height="0.3"/>
			<rect x="6" y="91.2" class="st2" width="45.2" height="0.3"/>
			<rect x="6" y="90.8" class="st2" width="45.2" height="0.3"/>
			<rect x="6" y="90.5" class="st2" width="45.2" height="0.3"/>
			<rect x="6" y="90.2" class="st2" width="45.2" height="0.3"/>
			<rect x="6" y="89.9" class="st2" width="45.2" height="0.3"/>
			<rect x="6" y="89.6" class="st2" width="45.2" height="0.3"/>
			<rect x="6" y="89.3" class="st2" width="45.2" height="0.3"/>
			<rect x="6" y="89" class="st2" width="45.2" height="0.3"/>
			<rect x="6" y="88.7" class="st2" width="45.2" height="0.3"/>
			<rect x="6" y="88.3" class="st2" width="45.2" height="0.3"/>
			<rect x="6" y="88" class="st2" width="45.2" height="0.3"/>
			<rect x="6" y="87.7" class="st2" width="45.2" height="0.3"/>
			<rect x="6" y="87.4" class="st2" width="45.2" height="0.3"/>
			<rect x="6" y="87.1" class="st2" width="45.2" height="0.3"/>
			<rect x="6" y="86.8" class="st2" width="45.2" height="0.3"/>
			<rect x="6" y="86.5" class="st2" width="45.2" height="0.3"/>
			<rect x="6" y="86.1" class="st2" width="45.2" height="0.3"/>
			<rect x="6" y="85.8" class="st2" width="45.2" height="0.3"/>
			<rect x="6" y="85.5" class="st2" width="45.2" height="0.3"/>
			<rect x="6" y="85.2" class="st2" width="45.2" height="0.3"/>
			<rect x="6" y="84.9" class="st2" width="45.2" height="0.3"/>
			<rect x="6" y="84.6" class="st2" width="45.2" height="0.3"/>
			<rect x="6" y="84.3" class="st2" width="45.2" height="0.3"/>
			<rect x="6" y="83.9" class="st2" width="45.2" height="0.3"/>
			<rect x="6" y="83.6" class="st2" width="45.2" height="0.3"/>
			<rect x="6" y="83.3" class="st2" width="45.2" height="0.3"/>
			<rect x="6" y="83" class="st2" width="45.2" height="0.3"/>
			<rect x="6" y="82.7" class="st2" width="45.2" height="0.3"/>
			<rect x="6" y="82.4" class="st2" width="45.2" height="0.3"/>
			<rect x="6" y="82.1" class="st2" width="45.2" height="0.3"/>
			<rect x="6" y="81.7" class="st2" width="45.2" height="0.3"/>
			<rect x="6" y="81.4" class="st2" width="45.2" height="0.3"/>
			<rect x="6" y="81.1" class="st2" width="45.2" height="0.3"/>
			<rect x="6" y="80.8" class="st2" width="45.2" height="0.3"/>
			<rect x="6" y="80.5" class="st2" width="45.2" height="0.3"/>
			<rect x="6" y="80.2" class="st2" width="45.2" height="0.3"/>
			<rect x="6" y="79.9" class="st2" width="45.2" height="0.3"/>
			<rect x="6" y="79.6" class="st2" width="45.2" height="0.3"/>
			<rect x="6" y="79.2" class="st2" width="45.2" height="0.3"/>
			<rect x="6" y="78.9" class="st2" width="45.2" height="0.3"/>
			<rect x="6" y="78.6" class="st2" width="45.2" height="0.3"/>
			<rect x="6" y="78.3" class="st2" width="45.2" height="0.3"/>
			<rect x="6" y="78" class="st2" width="45.2" height="0.3"/>
			<rect x="6" y="77.7" class="st2" width="45.2" height="0.3"/>
			<rect x="6" y="77.4" class="st2" width="45.2" height="0.3"/>
			<rect x="6" y="77" class="st2" width="45.2" height="0.3"/>
			<rect x="6" y="76.7" class="st2" width="45.2" height="0.3"/>
			<rect x="6" y="76.4" class="st2" width="45.2" height="0.3"/>
			<rect x="6" y="76.1" class="st2" width="45.2" height="0.3"/>
			<rect x="6" y="75.8" class="st2" width="45.2" height="0.3"/>
			<rect x="6" y="75.5" class="st2" width="45.2" height="0.3"/>
			<rect x="6" y="75.2" class="st2" width="45.2" height="0.3"/>
			<rect x="6" y="74.8" class="st2" width="45.2" height="0.3"/>
			<rect x="6" y="74.5" class="st2" width="45.2" height="0.3"/>
			<rect x="6" y="74.2" class="st2" width="45.2" height="0.3"/>
			<rect x="6" y="73.9" class="st2" width="45.2" height="0.3"/>
			<rect x="6" y="73.6" class="st2" width="45.2" height="0.3"/>
			<rect x="6" y="73.3" class="st2" width="45.2" height="0.3"/>
			<rect x="6" y="73" class="st2" width="45.2" height="0.3"/>
			<rect x="6" y="72.6" class="st2" width="45.2" height="0.3"/>
			<rect x="6" y="72.3" class="st2" width="45.2" height="0.3"/>
			<rect x="6" y="72" class="st2" width="45.2" height="0.3"/>
			<rect x="6" y="71.7" class="st2" width="45.2" height="0.3"/>
			<rect x="6" y="71.4" class="st2" width="45.2" height="0.3"/>
			<rect x="6" y="71.1" class="st2" width="45.2" height="0.3"/>
			<rect x="6" y="70.8" class="st2" width="45.2" height="0.3"/>
			<rect x="6" y="70.4" class="st2" width="45.2" height="0.3"/>
			<rect x="6" y="70.1" class="st2" width="45.2" height="0.3"/>
			<rect x="6" y="69.8" class="st2" width="45.2" height="0.3"/>
			<rect x="6" y="69.5" class="st2" width="45.2" height="0.3"/>
			<rect x="6" y="69.2" class="st2" width="45.2" height="0.3"/>
			<rect x="6" y="68.9" class="st2" width="45.2" height="0.3"/>
			<rect x="6" y="68.6" class="st2" width="45.2" height="0.3"/>
			<rect x="6" y="68.3" class="st2" width="45.2" height="0.3"/>
			<rect x="6" y="67.9" class="st2" width="45.2" height="0.3"/>
			<rect x="6" y="67.6" class="st2" width="45.2" height="0.3"/>
			<rect x="6" y="67.3" class="st2" width="45.2" height="0.3"/>
			<rect x="6" y="67" class="st2" width="45.2" height="0.3"/>
			<rect x="6" y="66.7" class="st2" width="45.2" height="0.3"/>
			<rect x="6" y="66.4" class="st2" width="45.2" height="0.3"/>
			<rect x="6" y="66.1" class="st2" width="45.2" height="0.3"/>
			<rect x="6" y="65.7" class="st2" width="45.2" height="0.3"/>
			<rect x="6" y="65.4" class="st2" width="45.2" height="0.3"/>
			<rect x="6" y="65.1" class="st2" width="45.2" height="0.3"/>
			<rect x="6" y="64.8" class="st2" width="45.2" height="0.3"/>
			<rect x="6" y="64.5" class="st2" width="45.2" height="0.3"/>
			<rect x="6" y="64.2" class="st2" width="45.2" height="0.3"/>
			<rect x="6" y="63.9" class="st2" width="45.2" height="0.3"/>
			<rect x="6" y="63.5" class="st2" width="45.2" height="0.3"/>
			<rect x="6" y="63.2" class="st2" width="45.2" height="0.3"/>
			<rect x="6" y="62.9" class="st2" width="45.2" height="0.3"/>
			<rect x="6" y="62.6" class="st2" width="45.2" height="0.3"/>
			<rect x="6" y="62.3" class="st2" width="45.2" height="0.3"/>
			<rect x="6" y="62" class="st2" width="45.2" height="0.3"/>
			<rect x="6" y="61.7" class="st2" width="45.2" height="0.3"/>
			<rect x="6" y="61.3" class="st2" width="45.2" height="0.3"/>
			<rect x="6" y="61" class="st2" width="45.2" height="0.3"/>
			<rect x="6" y="60.7" class="st2" width="45.2" height="0.3"/>
			<rect x="6" y="60.4" class="st2" width="45.2" height="0.3"/>
			<rect x="6" y="60.1" class="st2" width="45.2" height="0.3"/>
			<rect x="6" y="59.8" class="st2" width="45.2" height="0.3"/>
			<rect x="6" y="59.5" class="st2" width="45.2" height="0.3"/>
			<rect x="6" y="59.1" class="st2" width="45.2" height="0.3"/>
			<rect x="6" y="58.8" class="st2" width="45.2" height="0.3"/>
			<rect x="6" y="58.6" class="st2" width="45.2" height="0.2"/>
		</g>
		<path class="st0" d="M34,100.6H23.1c-3,0-5.6-0.2-7.7-0.6c-2.3-0.4-4.2-1-5.8-1.9c-1.7-0.9-3-2.2-4-3.6c-0.9-1.4-1.5-3-1.9-4.7
			c-0.4-1.6-0.6-3.5-0.6-5.5C3,82.4,3,80.4,3,78.1c0-2.2,0-4.3,0.1-6.1c0.1-2,0.3-3.8,0.6-5.5c0.4-1.8,1-3.4,1.9-4.7
			c1-1.5,2.3-2.7,4-3.7c1.6-0.9,3.5-1.5,5.8-1.9c2.1-0.4,4.7-0.6,7.8-0.6H34c2.5,0,4.6,0.1,6.5,0.4c2,0.2,3.7,0.6,5.2,1.1
			c1.6,0.6,2.9,1.3,4,2.2c1.1,0.9,2,2,2.7,3.3c0.6,1.2,1.1,2.6,1.3,4.1c0.2,1.3,0.3,2.8,0.3,4.4v3H43.6v-3c0-2-0.2-3.1-0.4-3.6
			c-0.2-0.5-0.5-0.8-0.8-1.1c-0.6-0.4-1.5-0.6-2.6-0.7c-1.5-0.2-3.4-0.2-5.6-0.2H23.1c-2,0-3.7,0.1-5,0.2c-1.4,0.1-2.2,0.4-2.7,0.5
			c-0.4,0.2-0.7,0.4-0.9,0.6c-0.2,0.2-0.4,0.7-0.6,1.6c-0.2,1-0.3,2.2-0.3,3.7c0,1.7,0,3.7,0,6c0,2.3,0,4.3,0.1,6
			c0,1.5,0.2,2.8,0.3,3.8c0.2,0.9,0.4,1.4,0.6,1.6c0.2,0.2,0.4,0.4,0.8,0.6c0.4,0.2,1.3,0.4,2.7,0.5c1.4,0.1,3,0.2,5,0.2H34
			c1.7,0,3.2,0,4.5-0.1c1.1-0.1,2.1-0.2,2.8-0.4c0.7-0.2,1-0.4,1.2-0.5c0.2-0.2,0.4-0.4,0.5-0.6c0.2-0.4,0.3-0.9,0.4-1.6
			c0.1-0.8,0.2-1.9,0.2-3.1v-3h10.6v3c0,1.7-0.1,3.3-0.3,4.7c-0.2,1.6-0.7,3-1.3,4.2c-0.7,1.3-1.6,2.5-2.7,3.5
			c-1.1,0.9-2.5,1.7-4.1,2.3c-1.5,0.5-3.2,0.9-5.2,1.2C38.7,100.5,36.5,100.6,34,100.6z"/>
	</g>
</g>
</svg>
